SplineFontDB: 3.0
FontName: Samim
FullName: Samim
FamilyName: Samim
Weight: Regular
Copyright: Copyright (c) 2003 by Bitstream, Inc. All Rights Reserved.\nDejaVu changes are in public domain\nCopyright (c) 2015 by Saber Rastikerdar. All Rights Reserved.\nNon-Arabic(Latin) glyphs and data are imported from Open Sans font under the Apache License, Version 2.0.
Version: 2.0.1
ItalicAngle: 0
UnderlinePosition: -200
UnderlineWidth: 100
Ascent: 1638
Descent: 410
InvalidEm: 0
LayerCount: 2
Layer: 0 1 "Back" 1
Layer: 1 1 "Fore" 0
XUID: [1021 502 1027637223 15701598]
UniqueID: 4254684
UseUniqueID: 1
FSType: 0
OS2Version: 1
OS2_WeightWidthSlopeOnly: 0
OS2_UseTypoMetrics: 1
CreationTime: 1431850356
ModificationTime: 1509583597
PfmFamily: 33
TTFWeight: 400
TTFWidth: 5
LineGap: 0
VLineGap: 0
Panose: 2 11 6 3 3 8 4 2 2 4
OS2TypoAscent: 2150
OS2TypoAOffset: 0
OS2TypoDescent: -1000
OS2TypoDOffset: 0
OS2TypoLinegap: 0
OS2WinAscent: 2150
OS2WinAOffset: 0
OS2WinDescent: 1000
OS2WinDOffset: 0
HheadAscent: 2150
HheadAOffset: 0
HheadDescent: -1000
HheadDOffset: 0
OS2SubXSize: 1331
OS2SubYSize: 1433
OS2SubXOff: 0
OS2SubYOff: 286
OS2SupXSize: 1331
OS2SupYSize: 1433
OS2SupXOff: 0
OS2SupYOff: 983
OS2StrikeYSize: 102
OS2StrikeYPos: 530
OS2CapHeight: 1638
OS2XHeight: 1082
OS2Vendor: 'PfEd'
OS2CodePages: 600001ff.dfff0000
Lookup: 1 9 0 "'fina' Terminal Forms in Arabic lookup 9" { "'fina' Terminal Forms in Arabic lookup 9 subtable"  } ['fina' ('arab' <'KUR ' 'SND ' 'URD ' 'dflt' > ) ]
Lookup: 1 9 0 "'medi' Medial Forms in Arabic lookup 11" { "'medi' Medial Forms in Arabic lookup 11 subtable"  } ['medi' ('arab' <'KUR ' 'SND ' 'URD ' 'dflt' > ) ]
Lookup: 1 9 0 "'init' Initial Forms in Arabic lookup 13" { "'init' Initial Forms in Arabic lookup 13 subtable"  } ['init' ('arab' <'KUR ' 'SND ' 'URD ' 'dflt' > ) ]
Lookup: 4 1 1 "'rlig' Required Ligatures in Arabic lookup 14" { "'rlig' Required Ligatures in Arabic lookup 14 subtable"  } ['rlig' ('arab' <'KUR ' 'dflt' > ) ]

StartChar: exclam
Encoding: 33 33 1
Width: 559
VWidth: 2170
GlyphClass: 2
Flags: W
LayerCount: 2
Fore
SplineSet
152.986328125 130.211914062 m 128,-1,1
 152.986328125 182.616210938 152.986328125 182.616210938 191.09765625 220.728515625 c 128,-1,2
 229.208984375 258.83984375 229.208984375 258.83984375 280.421875 257.649414062 c 0,3,4
 331.634765625 258.83984375 331.634765625 258.83984375 369.74609375 220.728515625 c 128,-1,5
 407.857421875 182.616210938 407.857421875 182.616210938 407.857421875 130.211914062 c 128,-1,6
 407.857421875 77.80859375 407.857421875 77.80859375 369.74609375 39.697265625 c 128,-1,7
 331.634765625 1.5859375 331.634765625 1.5859375 280.421875 2.77734375 c 0,8,9
 229.208984375 1.5859375 229.208984375 1.5859375 191.09765625 39.697265625 c 128,-1,0
 152.986328125 77.80859375 152.986328125 77.80859375 152.986328125 130.211914062 c 128,-1,1
179.26953125 1490.36035156 m 5,10,-1
 379.73046875 1490.36035156 l 5,11,-1
 358.990234375 414.459960938 l 1,12,-1
 201.046875 414.459960938 l 1,13,-1
 179.26953125 1490.36035156 l 5,10,-1
EndSplineSet
EndChar

StartChar: period
Encoding: 46 46 2
Width: 561
VWidth: 2170
GlyphClass: 2
Flags: W
LayerCount: 2
Fore
SplineSet
152.986328125 130.211914062 m 132,-1,1
 152.986328125 182.616210938 152.986328125 182.616210938 191.09765625 220.728515625 c 132,-1,2
 229.208984375 258.83984375 229.208984375 258.83984375 280.421875 257.649414062 c 4,3,4
 331.634765625 258.83984375 331.634765625 258.83984375 369.74609375 220.728515625 c 132,-1,5
 407.857421875 182.616210938 407.857421875 182.616210938 407.857421875 130.211914062 c 132,-1,6
 407.857421875 77.80859375 407.857421875 77.80859375 369.74609375 39.697265625 c 132,-1,7
 331.634765625 1.5859375 331.634765625 1.5859375 280.421875 2.77734375 c 4,8,9
 229.208984375 1.5859375 229.208984375 1.5859375 191.09765625 39.697265625 c 132,-1,0
 152.986328125 77.80859375 152.986328125 77.80859375 152.986328125 130.211914062 c 132,-1,1
EndSplineSet
EndChar

StartChar: colon
Encoding: 58 58 3
Width: 561
VWidth: 2170
GlyphClass: 2
Flags: W
LayerCount: 2
Fore
SplineSet
152.986328125 810.211914062 m 128,-1,1
 152.986328125 862.616210938 152.986328125 862.616210938 191.09765625 900.728515625 c 128,-1,2
 229.208984375 938.83984375 229.208984375 938.83984375 280.421875 937.649414062 c 0,3,4
 331.634765625 938.83984375 331.634765625 938.83984375 369.74609375 900.728515625 c 128,-1,5
 407.857421875 862.616210938 407.857421875 862.616210938 407.857421875 810.211914062 c 128,-1,6
 407.857421875 757.80859375 407.857421875 757.80859375 369.74609375 719.697265625 c 128,-1,7
 331.634765625 681.5859375 331.634765625 681.5859375 280.421875 682.77734375 c 0,8,9
 229.208984375 681.5859375 229.208984375 681.5859375 191.09765625 719.697265625 c 128,-1,0
 152.986328125 757.80859375 152.986328125 757.80859375 152.986328125 810.211914062 c 128,-1,1
152.986328125 130.211914062 m 128,-1,11
 152.986328125 182.616210938 152.986328125 182.616210938 191.09765625 220.728515625 c 128,-1,12
 229.208984375 258.83984375 229.208984375 258.83984375 280.421875 257.649414062 c 0,13,14
 331.634765625 258.83984375 331.634765625 258.83984375 369.74609375 220.728515625 c 128,-1,15
 407.857421875 182.616210938 407.857421875 182.616210938 407.857421875 130.211914062 c 128,-1,16
 407.857421875 77.80859375 407.857421875 77.80859375 369.74609375 39.697265625 c 128,-1,17
 331.634765625 1.5859375 331.634765625 1.5859375 280.421875 2.77734375 c 0,18,19
 229.208984375 1.5859375 229.208984375 1.5859375 191.09765625 39.697265625 c 128,-1,10
 152.986328125 77.80859375 152.986328125 77.80859375 152.986328125 130.211914062 c 128,-1,11
EndSplineSet
EndChar

StartChar: afii57388
Encoding: 1548 1548 5
Width: 543
VWidth: 2177
GlyphClass: 2
Flags: W
LayerCount: 2
Fore
SplineSet
280.298828125 0 m 6,0,1
 150.249023438 0 150.249023438 0 150.249023438 117.384765625 c 6,2,-1
 150.249023438 187.95703125 l 6,3,4
 150 438 150 438 374.977539062 610.844726562 c 5,5,-1
 442.516601562 577.107421875 l 5,6,7
 295 415 295 415 291.595703125 264.512695312 c 5,8,-1
 308.390625 264.512695312 l 6,9,10
 405.634765625 264.998046875 405.634765625 264.998046875 405.634765625 152.830078125 c 6,11,-1
 405.634765625 115.780273438 l 6,12,13
 406 0 406 0 293.98046875 0 c 6,14,-1
 280.298828125 0 l 6,0,1
EndSplineSet
EndChar

StartChar: uni0615
Encoding: 1557 1557 6
Width: 6
VWidth: 2317
GlyphClass: 4
Flags: W
AnchorPoint: "Anchor-10" 583.891 1359.45 mark 0
AnchorPoint: "Anchor-9" 583.891 1359.45 mark 0
AnchorPoint: "Anchor-1" 583.891 2096.68 basemark 0
AnchorPoint: "Anchor-1" 583.891 1359.45 mark 0
LayerCount: 2
Fore
SplineSet
503.888671875 1540.73730469 m 1,0,-1
 588.427734375 1540.73730469 l 2,1,2
 664.003765358 1541.02266939 664.003765358 1541.02266939 701.798828125 1553.99902344 c 0,3,4
 768 1577 768 1577 772.559570312 1642.765625 c 0,5,6
 776 1694 776 1694 732.268554688 1701.49609375 c 0,7,8
 692 1708 692 1708 634.7890625 1667.86816406 c 0,9,10
 571 1623 571 1623 503.888671875 1540.73730469 c 1,0,-1
849.317382812 1654.34179688 m 0,11,12
 849.000615673 1457.3828125 849.000615673 1457.3828125 614.514648438 1457.3828125 c 2,13,-1
 299.59765625 1457.3828125 l 1,14,-1
 299.59765625 1540.73730469 l 1,15,-1
 411.467773438 1540.73730469 l 1,16,-1
 411.467773438 2003.28320312 l 1,17,-1
 485.95703125 2003.28320312 l 1,18,-1
 485.95703125 1620.24707031 l 1,19,20
 600 1785 600 1785 729 1786.33648891 c 0,21,22
 773 1787 773 1787 805.620117188 1762.66015625 c 4,23,24
 849 1730 849 1730 849.317382812 1654.34179688 c 0,11,12
EndSplineSet
EndChar

StartChar: uni061B
Encoding: 1563 1563 7
Width: 543
VWidth: 2177
GlyphClass: 2
Flags: W
LayerCount: 2
Fore
SplineSet
152.986328125 130.211914062 m 132,-1,1
 152.986328125 182.616210938 152.986328125 182.616210938 191.09765625 220.728515625 c 132,-1,2
 229.208984375 258.83984375 229.208984375 258.83984375 280.421875 257.649414062 c 4,3,4
 331.634765625 258.83984375 331.634765625 258.83984375 369.74609375 220.728515625 c 132,-1,5
 407.857421875 182.616210938 407.857421875 182.616210938 407.857421875 130.211914062 c 132,-1,6
 407.857421875 77.80859375 407.857421875 77.80859375 369.74609375 39.697265625 c 132,-1,7
 331.634765625 1.5859375 331.634765625 1.5859375 280.421875 2.77734375 c 4,8,9
 229.208984375 1.5859375 229.208984375 1.5859375 191.09765625 39.697265625 c 132,-1,0
 152.986328125 77.80859375 152.986328125 77.80859375 152.986328125 130.211914062 c 132,-1,1
280.361328125 417.545898438 m 6,10,11
 150.311523438 417.545898438 150.311523438 417.545898438 150.311523438 534.930664062 c 6,12,-1
 150.311523438 605.502929688 l 6,13,14
 150 856 150 856 375.040039062 1028.390625 c 5,15,-1
 442.580078125 994.653320312 l 5,16,17
 295 832 295 832 291.658203125 682.05859375 c 5,18,-1
 308.454101562 682.05859375 l 6,19,20
 405.697265625 682 405.697265625 682 405.697265625 570.375976562 c 6,21,-1
 405.697265625 528.326171875 l 6,22,23
 406.000976562 417.545898438 406.000976562 417.545898438 294.04296875 417.545898438 c 6,24,-1
 280.361328125 417.545898438 l 6,10,11
EndSplineSet
EndChar

StartChar: uni061F
Encoding: 1567 1567 8
Width: 875
VWidth: 2170
GlyphClass: 2
Flags: W
LayerCount: 2
Fore
SplineSet
397.986328125 130.211914062 m 4,0,1
 398 183 398 183 436.59765625 220.728515625 c 4,2,3
 473.651367188 257.65234375 473.651367188 257.65234375 524.46484375 257.65234375 c 4,4,5
 579.337890625 257.65234375 579.337890625 257.65234375 615.24609375 220.728515625 c 4,6,7
 653 183 653 183 652.857421875 130.211914062 c 4,8,9
 653 78 653 78 614.74609375 39.697265625 c 4,10,11
 577.762695312 2.76171875 577.762695312 2.76171875 527.5 2.76171875 c 4,12,13
 473.239257812 2.76171875 473.239257812 2.76171875 436.09765625 39.697265625 c 4,14,15
 398 78 398 78 397.986328125 130.211914062 c 4,0,1
433.780273438 425.059570312 m 5,16,-1
 433.780273438 496.219726562 l 6,17,18
 434 612.122070312 434 612.122070312 349.1640625 695.029296875 c 6,19,-1
 255.864257812 786.208007812 l 6,20,21
 92 946 92 946 92.41796875 1110.70898438 c 4,22,23
 92 1273 92 1273 204 1377.12890625 c 4,24,25
 310 1476 310 1476 480.185546875 1475.76074219 c 4,26,27
 650 1476 650 1476 814.11328125 1360.58203125 c 5,28,-1
 745.321289062 1211.89453125 l 5,29,30
 622 1292 622 1292 485.372070312 1291.9921875 c 4,31,32
 404 1292 404 1292 348.840820312 1245.52441406 c 4,33,34
 277 1185 277 1185 276.759765625 1087.20019531 c 4,35,36
 276.999023438 989.3125 276.999023438 989.3125 393.55859375 874.048828125 c 6,37,-1
 469 799.4453125 l 6,38,39
 621.400390625 648.603515625 621.400390625 648.603515625 621.400390625 489.080078125 c 6,40,-1
 621.400390625 425.059570312 l 5,41,-1
 433.780273438 425.059570312 l 5,16,-1
EndSplineSet
EndChar

StartChar: uni0621
Encoding: 1569 1569 9
Width: 778
VWidth: 2311
GlyphClass: 2
Flags: W
AnchorPoint: "Anchor-7" 380.54 -155.76 basechar 0
AnchorPoint: "Anchor-10" 370.19 1051.23 basechar 0
LayerCount: 2
Fore
SplineSet
91.3408203125 -26.1484375 m 1,0,-1
 91.3408203125 119.052734375 l 1,1,-1
 301.677734375 222.56640625 l 1,2,3
 92 285 92 285 95.154296875 491.338867188 c 0,4,5
 98 663 98 663 237.250976562 747.856445312 c 0,6,7
 377 833 377 833 593.599609375 785.115234375 c 1,8,-1
 593.599609375 610.198242188 l 1,9,10
 430 655 430 655 340.4453125 609.555664062 c 128,-1,11
 251 564 251 564 251.944335938 482.336914062 c 0,12,13
 252 356 252 356 434.59375 323.615234375 c 0,14,15
 473 317 473 317 513 319 c 128,-1,16
 553 321 553 321 686.879882812 380.873046875 c 1,17,-1
 686.879882812 189.375 l 1,18,-1
 91.3408203125 -26.1484375 l 1,0,-1
EndSplineSet
EndChar

StartChar: uni0627
Encoding: 1575 1575 15
Width: 448
VWidth: 2311
GlyphClass: 2
Flags: W
AnchorPoint: "Anchor-10" 224.19 1563.38 basechar 0
AnchorPoint: "Anchor-7" 231.61 -234.79 basechar 0
LayerCount: 2
Fore
SplineSet
137.786132812 1412.37109375 m 5,0,-1
 310.516601562 1487.2421875 l 5,1,-1
 310.516601562 1.58984375 l 5,2,-1
 181.4375 1.58984375 l 5,3,-1
 137.786132812 1412.37109375 l 5,0,-1
EndSplineSet
Substitution2: "'fina' Terminal Forms in Arabic lookup 9 subtable" uniFE8E
EndChar

StartChar: uni062D
Encoding: 1581 1581 21
Width: 1280
VWidth: 2311
GlyphClass: 2
Flags: W
AnchorPoint: "Anchor-10" 549.59 1217.96 basechar 0
AnchorPoint: "Anchor-7" 584.525 -813.648 basechar 0
LayerCount: 2
Fore
SplineSet
119.701171875 624.7109375 m 1,0,1
 292 878 292 878 489.719726562 874.5 c 0,2,3
 522 874 522 874 560.990234375 863.8046875 c 0,4,5
 600 853 600 853 757.486328125 776.234375 c 0,6,7
 915 700 915 700 995.791015625 671.354492188 c 0,8,9
 1077 643 1077 643 1169.60253906 630.88671875 c 1,10,-1
 1145.46582031 454.939453125 l 1,11,12
 1017 445 1017 445 994.629882812 443.098632812 c 0,13,14
 750 413 750 413 590.947265625 321.604492188 c 0,15,16
 265 134 265 134 265.084960938 -140.095703125 c 0,17,18
 265 -355 265 -355 460 -433.023353568 c 0,19,20
 576 -479 576 -479 776.735351562 -479.671875 c 0,21,22
 974 -480 974 -480 1151.05761719 -429.659179688 c 1,23,-1
 1195.06640625 -585.071289062 l 1,24,25
 987 -649 987 -649 778.907226562 -648.865234375 c 0,26,27
 520 -649 520 -649 339 -555 c 0,28,29
 97 -429 97 -429 96.4599609375 -143.330078125 c 0,30,31
 96 46 96 46 198.533203125 199.254882812 c 0,32,33
 353 431 353 431 685.275390625 528.139648438 c 0,34,35
 781 556 781 556 869.93359375 563.4765625 c 1,36,37
 801 581 801 581 671.255859375 642.354492188 c 0,38,39
 541 704 541 704 506.147460938 703.815429688 c 0,40,41
 371 704 371 704 234.82421875 528.734375 c 1,42,-1
 119.701171875 624.7109375 l 1,0,1
EndSplineSet
Substitution2: "'fina' Terminal Forms in Arabic lookup 9 subtable" uniFEA2
Substitution2: "'medi' Medial Forms in Arabic lookup 11 subtable" uniFEA4
Substitution2: "'init' Initial Forms in Arabic lookup 13 subtable" uniFEA3
EndChar

StartChar: uni062F
Encoding: 1583 1583 23
Width: 992
VWidth: 2311
GlyphClass: 2
Flags: W
AnchorPoint: "Anchor-10" 409.091 1221.98 basechar 0
AnchorPoint: "Anchor-7" 395.442 -216.688 basechar 0
LayerCount: 2
Fore
SplineSet
97.75390625 199.533203125 m 1,0,1
 211 162 211 162 361.6953125 162.565429688 c 0,2,3
 598 163 598 163 693.80859375 233.584960938 c 0,4,5
 743 270 743 270 742.81640625 315.80859375 c 0,6,7
 743.228528938 417.252154908 743.228528938 417.252154908 626.78067522 568 c 0,8,9
 532.209080725 690.427881854 532.209080725 690.427881854 374.004882812 810.703125 c 1,10,-1
 468.706054688 956.33203125 l 1,11,12
 666.891077147 808.28810471 666.891077147 808.28810471 774.236354414 658 c 0,13,14
 899.91572819 482.043354612 899.91572819 482.043354612 900.018554688 317.266601562 c 4,15,16
 900 156 900 156 750.693359375 65.9248046875 c 0,17,18
 611.127346031 -18.1277919673 611.127346031 -18.1277919673 349.1640625 -17.4072265625 c 0,19,20
 215 -17 215 -17 97.3447265625 24.60546875 c 1,21,-1
 97.75390625 199.533203125 l 1,0,1
EndSplineSet
Substitution2: "'fina' Terminal Forms in Arabic lookup 9 subtable" uniFEAA
EndChar

StartChar: uni0631
Encoding: 1585 1585 25
Width: 867
VWidth: 2317
GlyphClass: 2
Flags: W
AnchorPoint: "Anchor-7" 316.38 -688.85 basechar 0
AnchorPoint: "Anchor-10" 501.618 933.71 basechar 0
LayerCount: 2
Fore
SplineSet
627 -309.314453125 m 4,0,1
 445.98828125 -533.014648438 445.98828125 -533.014648438 83.630859375 -534.03125 c 2,2,-1
 81.1943359375 -534.038085938 l 1,3,-1
 26.484375 -398.100585938 l 1,4,5
 574 -360 574 -360 605.069335938 74.23828125 c 4,6,7
 613 182 613 182 539.689453125 455.208984375 c 5,8,-1
 690.200195312 541.986328125 l 5,9,10
 771 311 771 311 770.649414062 115 c 4,11,12
 770 -133 770 -133 627 -309.314453125 c 4,0,1
EndSplineSet
PairPos2: "'kern' Horizontal Kerning lookup 15-1" uni06CA dx=-85 dy=0 dh=-85 dv=0 dx=0 dy=0 dh=0 dv=0
PairPos2: "'kern' Horizontal Kerning lookup 15-1" uniFB90 dx=-307 dy=0 dh=-307 dv=0 dx=0 dy=0 dh=0 dv=0
PairPos2: "'kern' Horizontal Kerning lookup 15-1" uniFB8E dx=-307 dy=0 dh=-307 dv=0 dx=0 dy=0 dh=0 dv=0
PairPos2: "'kern' Horizontal Kerning lookup 15-1" uni06A9 dx=-307 dy=0 dh=-307 dv=0 dx=0 dy=0 dh=0 dv=0
PairPos2: "'kern' Horizontal Kerning lookup 15-1" uni064A dx=-106 dy=0 dh=-106 dv=0 dx=0 dy=0 dh=0 dv=0
PairPos2: "'kern' Horizontal Kerning lookup 15-1" afii57414 dx=-106 dy=0 dh=-106 dv=0 dx=0 dy=0 dh=0 dv=0
PairPos2: "'kern' Horizontal Kerning lookup 15-1" uniFBE8 dx=-212 dy=0 dh=-212 dv=0 dx=0 dy=0 dh=0 dv=0
PairPos2: "'kern' Horizontal Kerning lookup 15-1" uni0649 dx=-106 dy=0 dh=-106 dv=0 dx=0 dy=0 dh=0 dv=0
PairPos2: "'kern' Horizontal Kerning lookup 15-1" uni0648 dx=-85 dy=0 dh=-85 dv=0 dx=0 dy=0 dh=0 dv=0
PairPos2: "'kern' Horizontal Kerning lookup 15-1" afii57412 dx=-85 dy=0 dh=-85 dv=0 dx=0 dy=0 dh=0 dv=0
PairPos2: "'kern' Horizontal Kerning lookup 15-1" uniFEEB dx=-212 dy=0 dh=-212 dv=0 dx=0 dy=0 dh=0 dv=0
PairPos2: "'kern' Horizontal Kerning lookup 15-1" uni0647 dx=-212 dy=0 dh=-212 dv=0 dx=0 dy=0 dh=0 dv=0
PairPos2: "'kern' Horizontal Kerning lookup 15-1" uniFEE7 dx=-212 dy=0 dh=-212 dv=0 dx=0 dy=0 dh=0 dv=0
PairPos2: "'kern' Horizontal Kerning lookup 15-1" uni0646 dx=-159 dy=0 dh=-159 dv=0 dx=0 dy=0 dh=0 dv=0
PairPos2: "'kern' Horizontal Kerning lookup 15-1" uniFEE3 dx=-212 dy=0 dh=-212 dv=0 dx=0 dy=0 dh=0 dv=0
PairPos2: "'kern' Horizontal Kerning lookup 15-1" uni0645 dx=-212 dy=0 dh=-212 dv=0 dx=0 dy=0 dh=0 dv=0
PairPos2: "'kern' Horizontal Kerning lookup 15-1" uniFEFB dx=-212 dy=0 dh=-212 dv=0 dx=0 dy=0 dh=0 dv=0
PairPos2: "'kern' Horizontal Kerning lookup 15-1" uniFEDF dx=-212 dy=0 dh=-212 dv=0 dx=0 dy=0 dh=0 dv=0
PairPos2: "'kern' Horizontal Kerning lookup 15-1" uni0644 dx=-159 dy=0 dh=-159 dv=0 dx=0 dy=0 dh=0 dv=0
PairPos2: "'kern' Horizontal Kerning lookup 15-1" uniFEDB dx=-307 dy=0 dh=-307 dv=0 dx=0 dy=0 dh=0 dv=0
PairPos2: "'kern' Horizontal Kerning lookup 15-1" uni0643 dx=-212 dy=0 dh=-212 dv=0 dx=0 dy=0 dh=0 dv=0
PairPos2: "'kern' Horizontal Kerning lookup 15-1" uniFED7 dx=-212 dy=0 dh=-212 dv=0 dx=0 dy=0 dh=0 dv=0
PairPos2: "'kern' Horizontal Kerning lookup 15-1" uni0642 dx=-159 dy=0 dh=-159 dv=0 dx=0 dy=0 dh=0 dv=0
PairPos2: "'kern' Horizontal Kerning lookup 15-1" uniFED3 dx=-212 dy=0 dh=-212 dv=0 dx=0 dy=0 dh=0 dv=0
PairPos2: "'kern' Horizontal Kerning lookup 15-1" uni0641 dx=-212 dy=0 dh=-212 dv=0 dx=0 dy=0 dh=0 dv=0
PairPos2: "'kern' Horizontal Kerning lookup 15-1" uniFECF dx=-212 dy=0 dh=-212 dv=0 dx=0 dy=0 dh=0 dv=0
PairPos2: "'kern' Horizontal Kerning lookup 15-1" uniFECB dx=-212 dy=0 dh=-212 dv=0 dx=0 dy=0 dh=0 dv=0
PairPos2: "'kern' Horizontal Kerning lookup 15-1" uniFEC7 dx=-212 dy=0 dh=-212 dv=0 dx=0 dy=0 dh=0 dv=0
PairPos2: "'kern' Horizontal Kerning lookup 15-1" uni0638 dx=-212 dy=0 dh=-212 dv=0 dx=0 dy=0 dh=0 dv=0
PairPos2: "'kern' Horizontal Kerning lookup 15-1" uniFEC3 dx=-212 dy=0 dh=-212 dv=0 dx=0 dy=0 dh=0 dv=0
PairPos2: "'kern' Horizontal Kerning lookup 15-1" uni0637 dx=-212 dy=0 dh=-212 dv=0 dx=0 dy=0 dh=0 dv=0
PairPos2: "'kern' Horizontal Kerning lookup 15-1" uniFEBF dx=-212 dy=0 dh=-212 dv=0 dx=0 dy=0 dh=0 dv=0
PairPos2: "'kern' Horizontal Kerning lookup 15-1" uni0636 dx=-212 dy=0 dh=-212 dv=0 dx=0 dy=0 dh=0 dv=0
PairPos2: "'kern' Horizontal Kerning lookup 15-1" uniFEBB dx=-212 dy=0 dh=-212 dv=0 dx=0 dy=0 dh=0 dv=0
PairPos2: "'kern' Horizontal Kerning lookup 15-1" uni0635 dx=-212 dy=0 dh=-212 dv=0 dx=0 dy=0 dh=0 dv=0
PairPos2: "'kern' Horizontal Kerning lookup 15-1" uniFEB7 dx=-212 dy=0 dh=-212 dv=0 dx=0 dy=0 dh=0 dv=0
PairPos2: "'kern' Horizontal Kerning lookup 15-1" uni0634 dx=-212 dy=0 dh=-212 dv=0 dx=0 dy=0 dh=0 dv=0
PairPos2: "'kern' Horizontal Kerning lookup 15-1" uniFEB3 dx=-212 dy=0 dh=-212 dv=0 dx=0 dy=0 dh=0 dv=0
PairPos2: "'kern' Horizontal Kerning lookup 15-1" uni0633 dx=-212 dy=0 dh=-212 dv=0 dx=0 dy=0 dh=0 dv=0
PairPos2: "'kern' Horizontal Kerning lookup 15-1" uni0632 dx=-85 dy=0 dh=-85 dv=0 dx=0 dy=0 dh=0 dv=0
PairPos2: "'kern' Horizontal Kerning lookup 15-1" uni0631 dx=-85 dy=0 dh=-85 dv=0 dx=0 dy=0 dh=0 dv=0
PairPos2: "'kern' Horizontal Kerning lookup 15-1" uni0630 dx=-212 dy=0 dh=-212 dv=0 dx=0 dy=0 dh=0 dv=0
PairPos2: "'kern' Horizontal Kerning lookup 15-1" uni062F dx=-212 dy=0 dh=-212 dv=0 dx=0 dy=0 dh=0 dv=0
PairPos2: "'kern' Horizontal Kerning lookup 15-1" uniFEA7 dx=-212 dy=0 dh=-212 dv=0 dx=0 dy=0 dh=0 dv=0
PairPos2: "'kern' Horizontal Kerning lookup 15-1" uniFEA3 dx=-212 dy=0 dh=-212 dv=0 dx=0 dy=0 dh=0 dv=0
PairPos2: "'kern' Horizontal Kerning lookup 15-1" uniFE9F dx=-212 dy=0 dh=-212 dv=0 dx=0 dy=0 dh=0 dv=0
PairPos2: "'kern' Horizontal Kerning lookup 15-1" uniFE9B dx=-212 dy=0 dh=-212 dv=0 dx=0 dy=0 dh=0 dv=0
PairPos2: "'kern' Horizontal Kerning lookup 15-1" uni062B dx=-212 dy=0 dh=-212 dv=0 dx=0 dy=0 dh=0 dv=0
PairPos2: "'kern' Horizontal Kerning lookup 15-1" uniFE97 dx=-212 dy=0 dh=-212 dv=0 dx=0 dy=0 dh=0 dv=0
PairPos2: "'kern' Horizontal Kerning lookup 15-1" uni062A dx=-212 dy=0 dh=-212 dv=0 dx=0 dy=0 dh=0 dv=0
PairPos2: "'kern' Horizontal Kerning lookup 15-1" uni0629 dx=-212 dy=0 dh=-212 dv=0 dx=0 dy=0 dh=0 dv=0
PairPos2: "'kern' Horizontal Kerning lookup 15-1" uniFE91 dx=-85 dy=0 dh=-85 dv=0 dx=0 dy=0 dh=0 dv=0
PairPos2: "'kern' Horizontal Kerning lookup 15-1" uni0628 dx=-212 dy=0 dh=-212 dv=0 dx=0 dy=0 dh=0 dv=0
PairPos2: "'kern' Horizontal Kerning lookup 15-1" uni0627 dx=-212 dy=0 dh=-212 dv=0 dx=0 dy=0 dh=0 dv=0
PairPos2: "'kern' Horizontal Kerning lookup 15-1" uni0623 dx=-212 dy=0 dh=-212 dv=0 dx=0 dy=0 dh=0 dv=0
PairPos2: "'kern' Horizontal Kerning lookup 15-1" uni0622 dx=-212 dy=0 dh=-212 dv=0 dx=0 dy=0 dh=0 dv=0
PairPos2: "'kern' Horizontal Kerning lookup 15-1" uni0621 dx=-212 dy=0 dh=-212 dv=0 dx=0 dy=0 dh=0 dv=0
PairPos2: "'kern' Horizontal Kerning lookup 15-1" uniFB94 dx=-307 dy=0 dh=-307 dv=0 dx=0 dy=0 dh=0 dv=0
PairPos2: "'kern' Horizontal Kerning lookup 15-1" uniFB92 dx=-307 dy=0 dh=-307 dv=0 dx=0 dy=0 dh=0 dv=0
PairPos2: "'kern' Horizontal Kerning lookup 15-1" afii57509 dx=-307 dy=0 dh=-307 dv=0 dx=0 dy=0 dh=0 dv=0
PairPos2: "'kern' Horizontal Kerning lookup 15-1" afii57508 dx=-85 dy=0 dh=-85 dv=0 dx=0 dy=0 dh=0 dv=0
PairPos2: "'kern' Horizontal Kerning lookup 15-1" uniFB7C dx=-159 dy=0 dh=-159 dv=0 dx=0 dy=0 dh=0 dv=0
PairPos2: "'kern' Horizontal Kerning lookup 15-1" afii57506 dx=-212 dy=0 dh=-212 dv=0 dx=0 dy=0 dh=0 dv=0
PairPos2: "'kern' Horizontal Kerning lookup 15-1" afii57440 dx=-212 dy=0 dh=-212 dv=0 dx=0 dy=0 dh=0 dv=0
PairPos2: "'kern' Horizontal Kerning lookup 15-1" uniFE8B dx=-212 dy=0 dh=-212 dv=0 dx=0 dy=0 dh=0 dv=0
Substitution2: "'fina' Terminal Forms in Arabic lookup 9 subtable" uniFEAE
EndChar

StartChar: uni0633
Encoding: 1587 1587 27
Width: 2384
VWidth: 2311
GlyphClass: 2
Flags: W
AnchorPoint: "Anchor-7" 638.95 -728.09 basechar 0
AnchorPoint: "Anchor-10" 1687.64 1072.47 basechar 0
LayerCount: 2
Fore
SplineSet
1457.14160156 -0.31640625 m 0,0,1
 1385 0 1385 0 1300.55371094 51.03515625 c 1,2,3
 1298 -516 1298 -516 690.364257812 -517.545898438 c 0,4,5
 431 -518 431 -518 277 -400.52072632 c 0,6,7
 99 -264 99 -264 99.55859375 18.3544921875 c 0,8,9
 100 225 100 225 192.405273438 433.759765625 c 1,10,-1
 341.139648438 379.267578125 l 1,11,12
 261 184 261 184 260.893554688 35.2705078125 c 0,13,14
 261 -345 261 -345 693.024414062 -344.501953125 c 0,15,16
 1154 -344 1154 -344 1153.8515625 53.12109375 c 0,17,18
 1154 194 1154 194 1047.46191406 410.682617188 c 1,19,-1
 1184.29101562 530.477539062 l 1,20,21
 1185 529 1185 529 1287.19433594 286.931640625 c 16,22,23
 1332 181 1332 181 1461.29589844 181.252929688 c 0,24,25
 1614.9063731 181.999544932 1614.9063731 181.999544932 1633.47851562 372.385742188 c 2,26,-1
 1652.04394531 562.703125 l 1,27,-1
 1770.06054688 562.703125 l 1,28,-1
 1795.99609375 370.999023438 l 2,29,30
 1822 176 1822 176 1979.18261719 177.405273438 c 0,31,32
 2071 178 2071 178 2106.56347656 248.400390625 c 4,33,34
 2149 330 2149 330 2124.23925781 491.131835938 c 4,35,36
 2112 571 2112 571 2084.54882812 688.997070312 c 5,37,-1
 2241.72363281 739.366210938 l 5,38,39
 2284 620 2284 620 2294.13183594 465.57421875 c 4,40,41
 2325 4 2325 4 1981.04980469 -0.0087890625 c 0,42,43
 1795 -2 1795 -2 1710.90039062 147.736328125 c 1,44,45
 1634 -1 1634 -1 1457.14160156 -0.31640625 c 0,0,1
EndSplineSet
Substitution2: "'fina' Terminal Forms in Arabic lookup 9 subtable" uniFEB2
Substitution2: "'medi' Medial Forms in Arabic lookup 11 subtable" uniFEB4
Substitution2: "'init' Initial Forms in Arabic lookup 13 subtable" uniFEB3
EndChar

StartChar: uni0635
Encoding: 1589 1589 29
Width: 2514
VWidth: 2311
GlyphClass: 2
Flags: W
AnchorPoint: "Anchor-10" 1687.64 1072.47 basechar 0
AnchorPoint: "Anchor-7" 638.95 -728.09 basechar 0
LayerCount: 2
Fore
SplineSet
1287.19433594 286.931640625 m 0,0,1
 1312 232 1312 232 1364.87890625 227.095703125 c 1,2,3
 1733 758 1733 758 2069.15820312 757.188476562 c 0,4,5
 2222 757 2222 757 2316.26855469 669.135742188 c 0,6,7
 2416 577 2416 577 2417.58007812 422.947265625 c 0,8,9
 2419 236 2419 236 2256.95898438 113.663085938 c 0,10,11
 2104.89776025 -2.0778194561 2104.89776025 -2.0778194561 1728.84375 -0.7109375 c 2,12,-1
 1533.25195312 0 l 2,13,14
 1390 1 1390 1 1300.55371094 51.03515625 c 1,15,16
 1298 -516 1298 -516 690.364257812 -517.545898438 c 0,17,18
 431 -518 431 -518 277 -400.520507812 c 0,19,20
 99 -264 99 -264 99.55859375 18.3544921875 c 0,21,22
 100 225 100 225 192.405273438 433.759765625 c 1,23,-1
 341.139648438 379.267578125 l 1,24,25
 261 184 261 184 260.893554688 35.2705078125 c 0,26,27
 261 -345 261 -345 693.024414062 -344.501953125 c 0,28,29
 1154 -344 1154 -344 1153.8515625 53.12109375 c 0,30,31
 1154 194 1154 194 1047.46191406 410.682617188 c 1,32,-1
 1184.29101562 530.477539062 l 1,33,34
 1210 458 1210 458 1287.19433594 286.931640625 c 0,0,1
1529.328125 186.91796875 m 1,35,-1
 1712.11328125 186.91796875 l 2,36,37
 1983.29785156 186.909179688 1983.29785156 186.909179688 2101.9375 232.807617188 c 0,38,39
 2251.47851562 291.848632812 2251.47851562 291.848632812 2239.97949219 428.157226562 c 0,40,41
 2235.578125 480.529296875 2235.578125 480.529296875 2208.31738281 513.896484375 c 0,42,43
 2159.2578125 578.048828125 2159.2578125 578.048828125 2063.90917969 577.580078125 c 0,44,45
 1937.71875 578.048828125 1937.71875 578.048828125 1801.01269531 471.708984375 c 0,46,47
 1685.43847656 381.94921875 1685.43847656 381.94921875 1529.328125 186.91796875 c 1,35,-1
EndSplineSet
Substitution2: "'fina' Terminal Forms in Arabic lookup 9 subtable" uniFEBA
Substitution2: "'medi' Medial Forms in Arabic lookup 11 subtable" uniFEBC
Substitution2: "'init' Initial Forms in Arabic lookup 13 subtable" uniFEBB
EndChar

StartChar: uni0637
Encoding: 1591 1591 31
Width: 1574
VWidth: 2311
GlyphClass: 2
Flags: W
AnchorPoint: "Anchor-10" 345.043 1546.92 basechar 0
AnchorPoint: "Anchor-7" 705.363 -234.3 basechar 0
LayerCount: 2
Fore
SplineSet
589.390625 185.62890625 m 5,0,-1
 772.174804688 185.62890625 l 6,1,2
 1041 186 1041 186 1161.99902344 233.518554688 c 4,3,4
 1310.61523438 292.451171875 1310.61523438 292.451171875 1300.04101562 428.868164062 c 4,5,6
 1296 478 1296 478 1268.37890625 514.607421875 c 4,7,8
 1220 578 1220 578 1123.97070312 578.291015625 c 4,9,10
 998 579 998 579 861.07421875 472.420898438 c 4,11,12
 750 386 750 386 589.390625 185.62890625 c 5,0,-1
436.043945312 255.59375 m 5,13,14
 801 758 801 758 1129.21972656 757.900390625 c 4,15,16
 1280 758 1280 758 1376.33007812 669.846679688 c 4,17,18
 1476 578 1476 578 1477.64257812 423.658203125 c 4,19,20
 1479 229 1479 229 1317.02148438 114.374023438 c 4,21,22
 1155 0 1155 0 788.905273438 0 c 6,23,-1
 683 0 l 6,24,25
 238 0 238 0 68 32 c 9,26,-1
 67.2548828125 185.477539062 l 1,27,-1
 294.129882812 185.479492188 l 5,28,-1
 261.3046875 1417.67480469 l 5,29,-1
 436.149414062 1487.00488281 l 5,30,-1
 436.043945312 255.59375 l 5,13,14
EndSplineSet
Substitution2: "'fina' Terminal Forms in Arabic lookup 9 subtable" uniFEC2
Substitution2: "'medi' Medial Forms in Arabic lookup 11 subtable" uniFEC4
Substitution2: "'init' Initial Forms in Arabic lookup 13 subtable" uniFEC3
EndChar

StartChar: uni0639
Encoding: 1593 1593 33
Width: 1227
VWidth: 2311
GlyphClass: 2
Flags: W
AnchorPoint: "Anchor-7" 584.525 -813.648 basechar 0
AnchorPoint: "Anchor-10" 597.59 1391.96 basechar 0
LayerCount: 2
Fore
SplineSet
430 811 m 24,0,1
 360 709 360 709 450.28125 602 c 0,2,3
 515 525 515 525 599.50390625 489.787109375 c 4,4,5
 617 482 617 482 780.690429688 508.799804688 c 24,6,7
 802 512 802 512 1005.98242188 544.71484375 c 1,8,-1
 1005.98242188 378.348632812 l 1,9,10
 754 360 754 360 545.72265625 253.267578125 c 0,11,12
 265 109 265 109 266.14453125 -148.576171875 c 24,13,14
 267 -295 267 -295 380.045898438 -385.078125 c 0,15,16
 494 -477 494 -477 777.795898438 -477.551757812 c 0,17,18
 968 -478 968 -478 1100.33105469 -440.307617188 c 1,19,-1
 1144.33984375 -595.719726562 l 1,20,21
 978 -647 978 -647 779.967773438 -646.745117188 c 0,22,23
 372 -647 372 -647 207.927734375 -458.977539062 c 0,24,25
 96 -331 96 -331 97.51953125 -151.809570312 c 0,26,27
 99 49 99 49 196.629882812 187.620117188 c 0,28,29
 299 333 299 333 441.291992188 399.030273438 c 1,30,31
 238 510 238 510 238.61328125 713.392578125 c 0,32,33
 239 833 239 833 298 923.211914062 c 0,34,35
 403 1083 403 1083 596.859375 1082.85449219 c 0,36,37
 806 1083 806 1083 927.549804688 914.555664062 c 1,38,-1
 836 801 l 1,39,40
 738 901 738 901 617.958007812 903.700195312 c 0,41,42
 495 907 495 907 430 811 c 24,0,1
EndSplineSet
Substitution2: "'fina' Terminal Forms in Arabic lookup 9 subtable" uniFECA
Substitution2: "'medi' Medial Forms in Arabic lookup 11 subtable" uniFECC
Substitution2: "'init' Initial Forms in Arabic lookup 13 subtable" uniFECB
EndChar

StartChar: afii57440
Encoding: 1600 1600 35
Width: 260
VWidth: 2311
GlyphClass: 2
Flags: W
AnchorPoint: "Anchor-10" 133.44 1354.15 basechar 0
AnchorPoint: "Anchor-7" 133.44 -120.31 basechar 0
LayerCount: 2
Fore
SplineSet
266.620117188 0 m 2,0,-1
 -4 0 l 2,1,2
 -51.6240234375 0 -51.6240234375 0 -51.6240234375 74 c 2,3,-1
 -51.6240234375 108 l 2,4,5
 -52.0023412704 185.479492188 -52.0023412704 185.479492188 -3.6240234375 185.479492188 c 2,6,-1
 267.375976562 185.479492188 l 2,7,8
 315.375976562 184.996214561 315.375976562 184.996214561 315.375976562 108 c 2,9,-1
 315.375976562 74 l 2,10,11
 315 0 315 0 266.620117188 0 c 2,0,-1
EndSplineSet
EndChar

StartChar: uni0643
Encoding: 1603 1603 38
Width: 1876
VWidth: 2311
GlyphClass: 2
Flags: W
AnchorPoint: "Anchor-10" 934.52 1470.01 basechar 0
AnchorPoint: "Anchor-7" 798.06 -201.16 basechar 0
LayerCount: 2
Fore
SplineSet
732.576171875 784.887695312 m 2,0,1
 800.572265625 775.920898438 800.572265625 775.920898438 859.859375 776.087890625 c 0,2,3
 926.440429688 775.919921875 926.440429688 775.919921875 966.28125 791.7421875 c 0,4,5
 1044.09960938 822.559570312 1044.09960938 822.559570312 1043.51757812 869.092773438 c 0,6,7
 1043.04003906 892.51953125 1043.04003906 892.51953125 1023.1484375 907.950195312 c 0,8,9
 1002.75976562 923.259765625 1002.75976562 923.259765625 955.814453125 931.329101562 c 0,10,11
 886.16015625 942.33984375 886.16015625 942.33984375 850.266601562 981.633789062 c 0,12,13
 814.080078125 1021.83984375 814.080078125 1021.83984375 815.541015625 1076.2421875 c 0,14,15
 818.3203125 1178.71972656 818.3203125 1178.71972656 907.43359375 1224.10742188 c 0,16,17
 990.977539062 1266.63769531 990.977539062 1266.63769531 1112.80957031 1274.359375 c 2,18,-1
 1129.71582031 1275.43066406 l 1,19,-1
 1129.71582031 1182.32324219 l 1,20,-1
 1114.98535156 1181.23632812 l 2,21,22
 1039.86035156 1175.54003906 1039.86035156 1175.54003906 1002.64746094 1161.69726562 c 0,23,24
 911.599609375 1127.83984375 911.599609375 1127.83984375 911.950195312 1079.66308594 c 0,25,26
 911.599609375 1037.74023438 911.599609375 1037.74023438 954.403320312 1023.06542969 c 0,27,28
 978.379882812 1014.41992188 978.379882812 1014.41992188 1024.33691406 1007.75097656 c 0,29,30
 1139.5 990.040039062 1139.5 990.040039062 1139.55273438 876.780273438 c 0,31,32
 1139.5 779.099609375 1139.5 779.099609375 1027.10253906 715.190429688 c 0,33,34
 919.334960938 653.141601562 919.334960938 653.141601562 727.874023438 685.163085938 c 2,35,-1
 714.59765625 687.383789062 l 1,36,-1
 714.59765625 787.258789062 l 1,37,-1
 732.576171875 784.887695312 l 2,0,1
1597.86132812 465.981445312 m 2,38,-1
 1560.67285156 1418.8203125 l 1,39,-1
 1737.65820312 1487.03125 l 1,40,-1
 1737.65820312 434.375976562 l 2,41,42
 1738 411 1738 411 1734.84082031 374.500976562 c 0,43,44
 1719 146 1719 146 1409.84472656 49.197265625 c 0,45,46
 1258 2 1258 2 913.120117188 1.0595703125 c 0,47,48
 567 0 567 0 398.3828125 70.611328125 c 0,49,50
 125 187 125 187 101.770507812 462.961914062 c 0,51,52
 90 606 90 606 131.094726562 751.975585938 c 1,53,-1
 273.330078125 714.446289062 l 1,54,55
 250 567 250 567 252.846679688 507.09375 c 0,56,57
 267 227 267 227 640.66015625 195.389648438 c 0,58,59
 809 181 809 181 1195.43359375 197.786132812 c 0,60,61
 1608 215 1608 215 1597.86132812 465.981445312 c 2,38,-1
EndSplineSet
Substitution2: "'fina' Terminal Forms in Arabic lookup 9 subtable" uniFEDA
Substitution2: "'medi' Medial Forms in Arabic lookup 11 subtable" uniFEDC
Substitution2: "'init' Initial Forms in Arabic lookup 13 subtable" uniFEDB
EndChar

StartChar: uni0644
Encoding: 1604 1604 39
Width: 1369
VWidth: 2311
GlyphClass: 2
Flags: W
AnchorPoint: "Anchor-7" 638.95 -728.09 basechar 0
AnchorPoint: "Anchor-10" 624.91 1115.85 basechar 0
LayerCount: 2
Fore
SplineSet
663.024414062 -314.501953125 m 0,0,1
 1091.48083952 -315.000559566 1091.48083952 -315.000559566 1082.83203125 142.38671875 c 2,2,-1
 1058.77539062 1414.60839844 l 1,3,-1
 1231.49707031 1486.171875 l 1,4,-1
 1231.49707031 406.279296875 l 2,5,6
 1231 404 1231 404 1228.54003906 101.610351562 c 1,7,8
 1233 -487 1233 -487 660.364257812 -487.545898438 c 0,9,10
 424 -488 424 -488 279 -376.520507812 c 0,11,12
 89 -230 89 -230 89.55859375 48.3544921875 c 0,13,14
 90 232 90 232 192.405273438 463.759765625 c 1,15,-1
 341.139648438 409.267578125 l 1,16,17
 261 214 261 214 260.893554688 65.2705078125 c 0,18,19
 261 -88 261 -88 351 -198 c 0,20,21
 446 -314 446 -314 663.024414062 -314.501953125 c 0,0,1
EndSplineSet
Substitution2: "'fina' Terminal Forms in Arabic lookup 9 subtable" uniFEDE
Substitution2: "'medi' Medial Forms in Arabic lookup 11 subtable" uniFEE0
Substitution2: "'init' Initial Forms in Arabic lookup 13 subtable" uniFEDF
EndChar

StartChar: uni0645
Encoding: 1605 1605 40
Width: 1180
VWidth: 2311
GlyphClass: 2
Flags: W
AnchorPoint: "Anchor-10" 593.79 1029.87 basechar 0
AnchorPoint: "Anchor-7" 692.148 -222.569 basechar 0
LayerCount: 2
Fore
SplineSet
481.247070312 207.497070312 m 2,0,1
 481.224609375 197.98828125 481.224609375 197.98828125 584.241210938 192.520507812 c 0,2,3
 687 188 687 188 724.532226562 187.5390625 c 0,4,5
 860 188 860 188 891.1875 207.874023438 c 0,6,7
 912 222 912 222 928.841796875 258.05078125 c 0,8,9
 993.344726562 395.602539062 993.344726562 395.602539062 702.887695312 515.171875 c 0,10,11
 631 545 631 545 573 521.826171875 c 0,12,13
 523 502 523 502 503.182617188 439.3203125 c 0,14,15
 488 391 488 391 481.388671875 267.76953125 c 1,16,-1
 481.247070312 207.497070312 l 2,0,1
826 7.34683640244 m 4,17,18
 778.619392949 5.73593366829 778.619392949 5.73593366829 719.388671875 7.3330078125 c 0,19,20
 535 13 535 13 413.092773438 13.240234375 c 0,21,22
 222.89123466 12.9998625452 222.89123466 12.9998625452 236.454101562 -265.125 c 2,23,-1
 259.916015625 -746.243164062 l 1,24,-1
 95.400390625 -839.765625 l 1,25,-1
 95.400390625 -216.3203125 l 2,26,27
 95 -17 95 -17 175.5078125 84.4716796875 c 0,28,29
 227 151 227 151 325.969726562 167.750976562 c 1,30,31
 309.889842205 509.340110477 309.889842205 509.340110477 433.573242188 625.119140625 c 0,32,33
 536 721 536 721 636 720.322265625 c 0,34,35
 702 720 702 720 772.418945312 686.024414062 c 0,36,37
 1153 505 1153 505 1088.92773438 270.481445312 c 0,38,39
 1059.67989714 162.602826099 1059.67989714 162.602826099 1021.48887122 100 c 0,40,41
 967.908930858 12.1716265212 967.908930858 12.1716265212 826 7.34683640244 c 4,17,18
EndSplineSet
Substitution2: "'init' Initial Forms in Arabic lookup 13 subtable" uniFEE3
Substitution2: "'medi' Medial Forms in Arabic lookup 11 subtable" uniFEE4
Substitution2: "'fina' Terminal Forms in Arabic lookup 9 subtable" uniFEE2
EndChar

StartChar: uni0647
Encoding: 1607 1607 42
Width: 915
VWidth: 2311
GlyphClass: 2
Flags: W
AnchorPoint: "Anchor-10" 428.3 1166.62 basechar 0
AnchorPoint: "Anchor-7" 428.016 -217.273 basechar 0
LayerCount: 2
Fore
SplineSet
449.063476562 650.86328125 m 1,0,1
 258 477 258 477 259.057617188 321.1796875 c 0,2,3
 260 181 260 181 457.599609375 180.59375 c 4,4,5
 661 181 661 181 662.4921875 311.639648438 c 0,6,7
 664 469 664 469 449.063476562 650.86328125 c 1,0,1
458.944335938 3.7421875 m 0,8,9
 298 4 298 4 202 79 c 0,10,11
 100 158 100 158 99.1865234375 316.799804688 c 0,12,13
 97 512 97 512 329.345703125 761.205078125 c 1,14,-1
 292.557617188 792.41796875 l 1,15,-1
 393.400390625 932.799804688 l 1,16,17
 819 595 819 595 822.06640625 316.799804688 c 0,18,19
 824 158 824 158 706 68 c 0,20,21
 621 3 621 3 458.944335938 3.7421875 c 0,8,9
EndSplineSet
Substitution2: "'fina' Terminal Forms in Arabic lookup 9 subtable" uniFEEA
Substitution2: "'medi' Medial Forms in Arabic lookup 11 subtable" uniFEEC
Substitution2: "'init' Initial Forms in Arabic lookup 13 subtable" uniFEEB
EndChar

StartChar: uni0648
Encoding: 1608 1608 43
Width: 891
VWidth: 2311
GlyphClass: 2
Flags: W
AnchorPoint: "Anchor-7" 336.38 -688.85 basechar 0
AnchorPoint: "Anchor-10" 434.959 1021.28 basechar 0
LayerCount: 2
Fore
SplineSet
441.108398438 547.790039062 m 0,0,1
 306 544 306 544 260.57421875 364.853515625 c 0,2,3
 208 160 208 160 438.83984375 160.7578125 c 0,4,5
 560 161 560 161 630.270507812 214.696289062 c 1,6,7
 630 272 630 272 626 309 c 0,8,9
 598 553 598 553 441.108398438 547.790039062 c 0,0,1
727.16015625 533.513671875 m 0,10,11
 791 402 791 402 790.135742188 182.3203125 c 0,12,13
 789 -132 789 -132 662.885742188 -295.151367188 c 0,14,15
 477.869462913 -534.168637151 477.869462913 -534.168637151 102.82421875 -537.419921875 c 2,16,-1
 100.909179688 -537.436523438 l 1,17,-1
 45.548828125 -397.798828125 l 5,18,19
 569 -367 569 -367 622.213867188 39.9794921875 c 1,20,21
 532 -9 532 -9 414.49609375 -8.74609375 c 0,22,23
 319 -8 319 -8 254.400390625 21.7412109375 c 0,24,25
 97 94 97 94 98.8798828125 275.599609375 c 0,26,27
 100 392 100 392 149.642578125 501.83984375 c 0,28,29
 247 719 247 719 443 720.208984375 c 0,30,31
 637 721 637 721 727.16015625 533.513671875 c 0,10,11
EndSplineSet
Substitution2: "'fina' Terminal Forms in Arabic lookup 9 subtable" uniFEEE
EndChar

StartChar: uni0649
Encoding: 1609 1609 44
Width: 1470
VWidth: 2311
GlyphClass: 2
Flags: W
AnchorPoint: "Anchor-10" 628.105 762.314 basechar 0
AnchorPoint: "Anchor-7" 636.429 -707.4 basechar 0
LayerCount: 2
Fore
SplineSet
1044.74414062 149.737304688 m 2,0,-1
 1100.40234375 150.900390625 l 1,1,2
 1207 151 1207 151 1268.38964844 125.749023438 c 0,3,4
 1373 83 1373 83 1373.4375 -53.2724609375 c 0,5,6
 1374 -183 1374 -183 1294.17285156 -283 c 0,7,8
 1118 -504 1118 -504 707.80859375 -504.716796875 c 0,9,10
 513 -505 513 -505 383.521484375 -448.900390625 c 0,11,12
 99 -324 99 -324 97.111328125 31 c 0,13,14
 96 231 96 231 222.884765625 501.415039062 c 1,15,-1
 360 441 l 1,16,17
 267 230 267 230 262.9765625 53 c 0,18,19
 254 -332 254 -332 716.275390625 -328.954101562 c 0,20,21
 1020 -327 1020 -327 1164 -188.465820312 c 0,22,23
 1219 -136 1219 -136 1220.52539062 -93.3251953125 c 0,24,25
 1223.98250091 -24.34914081 1223.98250091 -24.34914081 1138.52734375 -23.970703125 c 2,26,-1
 1028.04785156 -23.4814453125 l 2,27,28
 773 -22 773 -22 772.156637392 179 c 0,29,30
 771 313 771 313 874.140206939 461 c 0,31,32
 924 532 924 532 987.522460938 583.444335938 c 0,33,34
 1132.20476214 699.163772339 1132.20476214 699.163772339 1311.3515625 702.516601562 c 2,35,36
 1369.27050781 703.600585938 l 1,37,-1
 1309.35449219 512.115234375 l 1,38,-1
 1295.15820312 512.124023438 l 6,39,40
 1203 512 1203 512 1111 450.568660402 c 0,41,42
 1007 380 1007 380 958.806969568 283 c 0,43,44
 941 247 941 247 935.5 210.5 c 0,45,46
 926 147 926 147 1044.74414062 149.737304688 c 2,0,-1
EndSplineSet
Substitution2: "'fina' Terminal Forms in Arabic lookup 9 subtable" uniFEF0
Substitution2: "'medi' Medial Forms in Arabic lookup 11 subtable" uniFBE9
Substitution2: "'init' Initial Forms in Arabic lookup 13 subtable" uniFBE8
EndChar

StartChar: uni064B
Encoding: 1611 1611 46
Width: 33
VWidth: 2341
GlyphClass: 4
Flags: W
AnchorPoint: "Anchor-10" 640.188 1204.32 mark 0
AnchorPoint: "Anchor-9" 640.188 1204.32 mark 0
AnchorPoint: "Anchor-1" 602.029 1728.03 basemark 0
AnchorPoint: "Anchor-1" 640.188 1204.32 mark 0
LayerCount: 2
Fore
SplineSet
346.831054688 1152.984375 m 1,0,-1
 346.831054688 1262.44628906 l 1,1,-1
 827.326171875 1458.92382812 l 1,2,-1
 827.326171875 1349.46191406 l 1,3,-1
 346.831054688 1152.984375 l 1,0,-1
346.831054688 1413.90722656 m 1,4,-1
 346.831054688 1523.36914062 l 1,5,-1
 827.326171875 1719.84667969 l 1,6,-1
 827.326171875 1610.38476562 l 1,7,-1
 346.831054688 1413.90722656 l 1,4,-1
EndSplineSet
EndChar

StartChar: uni064C
Encoding: 1612 1612 47
Width: 35
VWidth: 2358
GlyphClass: 4
Flags: W
AnchorPoint: "Anchor-10" 705.527 1320.52 mark 0
AnchorPoint: "Anchor-9" 705.527 1320.52 mark 0
AnchorPoint: "Anchor-1" 602.066 1980.89 basemark 0
AnchorPoint: "Anchor-1" 705.527 1320.52 mark 0
LayerCount: 2
Fore
SplineSet
682.84375 1813.47363281 m 0,0,1
 603.991210938 1813.60351562 603.991210938 1813.60351562 603.479492188 1742.66503906 c 0,2,3
 603.037109375 1695.30761719 603.037109375 1695.30761719 662.619140625 1667.67480469 c 0,4,5
 685.081054688 1657.14746094 685.081054688 1657.14746094 728.041992188 1645.49511719 c 1,6,-1
 732.78125 1656.19335938 l 2,7,8
 750.907226562 1697.21582031 750.907226562 1697.21582031 751.56640625 1737.375 c 0,9,10
 749.828125 1813.59960938 749.828125 1813.59960938 682.84375 1813.47363281 c 0,0,1
367.500976562 1606.10058594 m 1,11,12
 369.307617188 1392.88867188 369.307617188 1392.88867188 489.077148438 1392.66699219 c 0,13,14
 554.3828125 1392.88867188 554.3828125 1392.88867188 625.712890625 1462.12792969 c 0,15,16
 667.067382812 1501.75292969 667.067382812 1501.75292969 691.57421875 1550.77636719 c 2,17,-1
 701.35546875 1570.34277344 l 1,18,19
 654.552734375 1579.87402344 654.552734375 1579.87402344 618.30078125 1598.47363281 c 0,20,21
 519.084960938 1648.56152344 519.084960938 1648.56152344 519.084960938 1749.68554688 c 0,22,23
 519.084960938 1805.01757812 519.084960938 1805.01757812 545.796875 1840.31542969 c 0,24,25
 588.727539062 1898.50976562 588.727539062 1898.50976562 666.477539062 1898.50976562 c 128,-1,26
 744.228515625 1898.50976562 744.228515625 1898.50976562 790.021484375 1853.671875 c 128,-1,27
 835.813476562 1808.83300781 835.813476562 1808.83300781 836.31640625 1729.72851562 c 0,28,29
 836.763671875 1691.69921875 836.763671875 1691.69921875 824.166015625 1651.81542969 c 2,30,-1
 817.5859375 1630.984375 l 1,31,-1
 839.405273438 1629.83984375 l 2,32,33
 865.38671875 1628.52734375 865.38671875 1628.52734375 899.9140625 1627.83203125 c 1,34,-1
 899.9140625 1542.97851562 l 1,35,36
 859.87890625 1543.61816406 859.87890625 1543.61816406 846.223632812 1544.98828125 c 2,37,-1
 780.712890625 1551.56152344 l 1,38,39
 710.924804688 1390.89160156 710.924804688 1390.89160156 578.709960938 1327.06347656 c 4,40,41
 539.119140625 1307.98339844 539.119140625 1307.98339844 486.727539062 1307.91796875 c 0,42,43
 372.168945312 1307.98339844 372.168945312 1307.98339844 324.46875 1434.86523438 c 0,44,45
 305.388671875 1485.42773438 305.388671875 1485.42773438 304.3046875 1606.10058594 c 1,46,-1
 367.500976562 1606.10058594 l 1,11,12
875.396484375 1628.73730469 m 2,47,-1
 875.297851562 1628.7421875 l 2,48,49
 875.34765625 1628.74023438 875.34765625 1628.74023438 875.396484375 1628.73730469 c 2,47,-1
EndSplineSet
EndChar

StartChar: uni064D
Encoding: 1613 1613 48
Width: 34
VWidth: 2174
GlyphClass: 4
Flags: W
AnchorPoint: "Anchor-7" 586.47 49.1016 mark 0
AnchorPoint: "Anchor-6" 586.47 49.1016 mark 0
AnchorPoint: "Anchor-0" 629.301 -470.676 basemark 0
AnchorPoint: "Anchor-0" 586.47 49.1016 mark 0
LayerCount: 2
Fore
SplineSet
352.427734375 -514.862304688 m 1,0,-1
 352.427734375 -405.399414062 l 1,1,-1
 832.922851562 -208.922851562 l 1,2,-1
 832.922851562 -318.383789062 l 1,3,-1
 352.427734375 -514.862304688 l 1,0,-1
352.427734375 -253.939453125 m 1,4,-1
 352.427734375 -144.4765625 l 1,5,-1
 832.922851562 52 l 1,6,-1
 832.922851562 -57.4609375 l 1,7,-1
 352.427734375 -253.939453125 l 1,4,-1
EndSplineSet
EndChar

StartChar: uni064E
Encoding: 1614 1614 49
Width: 30
VWidth: 2355
GlyphClass: 4
Flags: W
AnchorPoint: "Anchor-10" 580.963 1453.7 mark 0
AnchorPoint: "Anchor-9" 580.963 1453.7 mark 0
AnchorPoint: "Anchor-1" 568.56 1766.6 basemark 0
AnchorPoint: "Anchor-1" 580.963 1453.7 mark 0
LayerCount: 2
Fore
SplineSet
314.369140625 1427.28417969 m 1,0,-1
 314.369140625 1536.74511719 l 1,1,-1
 794.864257812 1733.22363281 l 1,2,-1
 794.864257812 1623.76171875 l 1,3,-1
 314.369140625 1427.28417969 l 1,0,-1
EndSplineSet
EndChar

StartChar: uni064F
Encoding: 1615 1615 50
Width: 34
VWidth: 2362
GlyphClass: 4
Flags: W
AnchorPoint: "Anchor-10" 647.393 1386.94 mark 0
AnchorPoint: "Anchor-9" 647.393 1386.94 mark 0
AnchorPoint: "Anchor-1" 581.468 1999.59 basemark 0
AnchorPoint: "Anchor-1" 647.393 1386.94 mark 0
LayerCount: 2
Fore
SplineSet
844.969726562 1561.72949219 m 1,0,1
 767.955078125 1562.46972656 767.955078125 1562.46972656 719.048828125 1570.12011719 c 1,2,3
 668.740234375 1499.50585938 668.740234375 1499.50585938 597.549804688 1455.62011719 c 0,4,5
 484.618164062 1385.02539062 484.618164062 1385.02539062 356.78125 1380.25585938 c 1,6,-1
 356.78125 1464.91503906 l 1,7,8
 545.673828125 1493.78125 545.673828125 1493.78125 624.168945312 1595.69238281 c 5,9,10
 528.712890625 1617.14160156 528.712890625 1617.14160156 488.30078125 1675.5859375 c 0,11,12
 461.721679688 1712.24804688 461.721679688 1712.24804688 461.629882812 1759.73925781 c 0,13,14
 461.721679688 1837.22070312 461.721679688 1837.22070312 525.639648438 1884.92089844 c 0,15,16
 569.5234375 1917.35742188 569.5234375 1917.35742188 621.958007812 1916.92480469 c 0,17,18
 688.7734375 1917.35742188 688.7734375 1917.35742188 735.185546875 1871.7109375 c 0,19,20
 781.311523438 1826.7265625 781.311523438 1826.7265625 781.37109375 1748.43164062 c 0,21,22
 781.311523438 1716.30273438 781.311523438 1716.30273438 767.043945312 1670.45214844 c 2,23,-1
 760.622070312 1649.81933594 l 1,24,-1
 782.200195312 1648.54394531 l 2,25,26
 818.517578125 1646.42089844 818.517578125 1646.42089844 844.969726562 1646.44824219 c 1,27,-1
 844.969726562 1561.72949219 l 1,0,1
673.096679688 1664.19824219 m 1,28,-1
 676.37109375 1671.22558594 l 2,29,30
 697.359375 1716.0625 697.359375 1716.0625 697.577148438 1754.171875 c 0,31,32
 697.359375 1792.38378906 697.359375 1792.38378906 672.872070312 1812.62304688 c 0,33,34
 648.705078125 1832.45117188 648.705078125 1832.45117188 620.814453125 1832.17578125 c 0,35,36
 592.419921875 1832.45117188 592.419921875 1832.45117188 571.431640625 1816.31933594 c 0,37,38
 547.58203125 1796.19921875 547.58203125 1796.19921875 546.626953125 1764.71777344 c 0,39,40
 545.743164062 1715.16894531 545.743164062 1715.16894531 607.673828125 1686.37695312 c 0,41,42
 638.211914062 1672.17871094 638.211914062 1672.17871094 673.096679688 1664.19824219 c 1,28,-1
EndSplineSet
EndChar

StartChar: uni0650
Encoding: 1616 1616 51
Width: 35
VWidth: 2177
GlyphClass: 4
Flags: W
AnchorPoint: "Anchor-7" 601.679 -55.8555 mark 0
AnchorPoint: "Anchor-6" 601.679 -55.8555 mark 0
AnchorPoint: "Anchor-0" 647.119 -332.306 basemark 0
AnchorPoint: "Anchor-0" 601.679 -55.8555 mark 0
LayerCount: 2
Fore
SplineSet
363.622070312 -356.975585938 m 1,0,-1
 363.622070312 -247.514648438 l 1,1,-1
 844.116210938 -51.037109375 l 1,2,-1
 844.116210938 -160.499023438 l 1,3,-1
 363.622070312 -356.975585938 l 1,0,-1
EndSplineSet
EndChar

StartChar: uni0651
Encoding: 1617 1617 52
Width: 35
VWidth: 2366
GlyphClass: 4
Flags: W
AnchorPoint: "Anchor-10" 642.017 1494.77 mark 0
AnchorPoint: "Anchor-9" 642.017 1494.77 mark 0
AnchorPoint: "Anchor-1" 612.756 1924.18 basemark 0
AnchorPoint: "Anchor-1" 642.017 1494.77 mark 0
LayerCount: 2
Fore
SplineSet
612.3828125 1606.95117188 m 1,0,1
 587 1472 587 1472 454.504882812 1472.49804688 c 0,2,3
 305 1473 305 1473 305.892578125 1649.95800781 c 0,4,5
 306 1685 306 1685 320.703125 1784.22949219 c 1,6,-1
 392.361328125 1784.22949219 l 1,7,8
 380 1699 380 1699 380.125 1672.00195312 c 0,9,10
 380 1584 380 1584 456.397460938 1584.27441406 c 4,11,12
 562 1584 562 1584 566.733398438 1702.0078125 c 0,13,14
 568 1740 568 1740 567.944335938 1784.68554688 c 0,15,16
 568 1829 568 1829 567.93359375 1837.95605469 c 1,17,-1
 638.77734375 1837.95605469 l 1,18,19
 641 1804 641 1804 640.841796875 1757.85449219 c 0,20,21
 641 1644 641 1644 747.389648438 1643.73535156 c 4,22,23
 828 1644 828 1644 828.71875 1754.34863281 c 0,24,25
 829 1838 829 1838 818.3203125 1897.46582031 c 1,26,-1
 894.27734375 1897.46582031 l 1,27,28
 908 1821 908 1821 907.825195312 1762.10449219 c 0,29,30
 908 1537 908 1537 749 1537.20237991 c 0,31,32
 645 1537 645 1537 612.3828125 1606.95117188 c 1,0,1
EndSplineSet
EndChar

StartChar: uni0652
Encoding: 1618 1618 53
Width: 37
VWidth: 2352
GlyphClass: 4
Flags: W
AnchorPoint: "Anchor-10" 624.018 1287.49 mark 0
AnchorPoint: "Anchor-9" 624.018 1287.49 mark 0
AnchorPoint: "Anchor-1" 609.914 1865.25 basemark 0
AnchorPoint: "Anchor-1" 624.018 1287.49 mark 0
LayerCount: 2
Fore
SplineSet
737.369140625 1544.50097656 m 0,0,1
 737.369140625 1590.94238281 737.369140625 1590.94238281 704.890625 1623.421875 c 128,-1,2
 672.415039062 1655.90136719 672.415039062 1655.90136719 625.3125 1655.90136719 c 0,3,4
 577.55078125 1655.90136719 577.55078125 1655.90136719 545.404296875 1623.75390625 c 128,-1,5
 513.258789062 1591.60839844 513.258789062 1591.60839844 513.258789062 1544.50097656 c 0,6,7
 513.258789062 1496.74023438 513.258789062 1496.74023438 545.404296875 1464.59472656 c 128,-1,8
 577.55078125 1432.44921875 577.55078125 1432.44921875 625.3125 1432.44921875 c 0,9,10
 672.416992188 1432.44921875 672.416992188 1432.44921875 704.890625 1464.92773438 c 128,-1,11
 737.369140625 1497.40527344 737.369140625 1497.40527344 737.369140625 1544.50097656 c 0,0,1
806.126953125 1544.61328125 m 128,-1,13
 806.126953125 1468.76660156 806.126953125 1468.76660156 753.762695312 1416.06542969 c 128,-1,14
 701.431640625 1363.40429688 701.431640625 1363.40429688 625.625976562 1363.40429688 c 0,15,16
 600.290039062 1363.40429688 600.290039062 1363.40429688 577.647460938 1369.24511719 c 128,-1,17
 555.004882812 1375.0859375 555.004882812 1375.0859375 534.986328125 1386.78125 c 128,-1,18
 514.96875 1398.47558594 514.96875 1398.47558594 497.489257812 1416.06542969 c 0,19,20
 471.256835938 1442.46582031 471.256835938 1442.46582031 458.189453125 1474.53320312 c 128,-1,21
 445.123046875 1506.60253906 445.123046875 1506.60253906 445.123046875 1544.61328125 c 0,22,23
 445.123046875 1620.43359375 445.123046875 1620.43359375 497.458984375 1672.77929688 c 128,-1,24
 549.795898438 1725.11523438 549.795898438 1725.11523438 625.625976562 1725.11523438 c 128,-1,25
 701.454101562 1725.11523438 701.454101562 1725.11523438 753.790039062 1672.77929688 c 128,-1,12
 806.126953125 1620.43359375 806.126953125 1620.43359375 806.126953125 1544.61328125 c 128,-1,13
EndSplineSet
EndChar

StartChar: uni0653
Encoding: 1619 1619 54
Width: 0
VWidth: 2317
GlyphClass: 4
Flags: W
AnchorPoint: "Anchor-10" 431.25 1353.11 mark 0
AnchorPoint: "Anchor-9" 431.25 1353.11 mark 0
AnchorPoint: "Anchor-1" 469.41 1706.53 basemark 0
AnchorPoint: "Anchor-1" 431.25 1353.11 mark 0
LayerCount: 2
Fore
SplineSet
169.686523438 1315.50390625 m 1,0,-1
 78.4404296875 1407.08007812 l 5,1,2
 186.113162572 1586.18824023 186.113162572 1586.18824023 331.780273438 1558.66015625 c 6,3,-1
 466.400390625 1533.21972656 l 6,4,5
 543 1519 543 1519 661.440429688 1590.45996094 c 5,6,-1
 726.099609375 1486.12011719 l 1,7,8
 625.91885998 1372.90830565 625.91885998 1372.90830565 456.860351562 1401.3203125 c 2,9,-1
 330.719726562 1422.51953125 l 2,10,11
 229 1440 229 1440 169.686523438 1315.50390625 c 1,0,-1
EndSplineSet
EndChar

StartChar: uni0657
Encoding: 1623 1623 57
Width: 58
VWidth: 2260
GlyphClass: 4
Flags: W
AnchorPoint: "Anchor-10" 580.71 1395.84 mark 0
AnchorPoint: "Anchor-9" 580.71 1395.84 mark 0
AnchorPoint: "Anchor-1" 580.71 2059.35 basemark 0
AnchorPoint: "Anchor-1" 580.71 1395.84 mark 0
LayerCount: 2
Fore
SplineSet
536.166015625 1773.67285156 m 2,0,1
 543.736328125 1771.99414062 543.736328125 1771.99414062 561.73046875 1762.52050781 c 0,2,3
 665.283203125 1708.83007812 665.283203125 1708.83007812 665.283203125 1619.39257812 c 0,4,5
 665.283203125 1536.76660156 665.283203125 1536.76660156 599.809570312 1487.42578125 c 0,6,7
 574.534179688 1468.46972656 574.534179688 1468.46972656 514.359375 1468.46972656 c 0,8,9
 444.887695312 1468.46972656 444.887695312 1468.46972656 407.700195312 1504.73144531 c 0,10,11
 355.270507812 1556.19921875 355.270507812 1556.19921875 355.270507812 1631.64160156 c 0,12,13
 355.270507812 1662.42773438 355.270507812 1662.42773438 369.001953125 1706.55859375 c 2,14,-1
 373.709960938 1721.68945312 l 1,15,-1
 357.885742188 1722.62402344 l 2,16,17
 340.33203125 1723.65429688 340.33203125 1723.65429688 321.776367188 1724.17089844 c 0,18,19
 309.404296875 1724.51367188 309.404296875 1724.51367188 295.043945312 1724.63671875 c 1,20,-1
 295.043945312 1812.10058594 l 1,21,22
 323.884765625 1811.79492188 323.884765625 1811.79492188 350.2109375 1810.15429688 c 0,23,24
 380.6015625 1808.12207031 380.6015625 1808.12207031 408.919921875 1805.08886719 c 2,25,-1
 416.173828125 1804.31542969 l 1,26,-1
 420.375976562 1810.27734375 l 2,27,28
 462.787109375 1870.44726562 462.787109375 1870.44726562 531.065429688 1912.00292969 c 0,29,30
 723.37890625 2030.26074219 723.37890625 2030.26074219 866.376953125 2035.49804688 c 1,31,-1
 866.376953125 1948.06347656 l 1,32,33
 713.477539062 1943.63769531 713.477539062 1943.63769531 574.087890625 1834.33789062 c 0,34,35
 549.896484375 1815.40136719 549.896484375 1815.40136719 529.8671875 1794.32714844 c 2,36,-1
 514.770507812 1778.43359375 l 1,37,-1
 536.166015625 1773.67285156 l 2,0,1
463.458984375 1706.99804688 m 1,38,-1
 452.942382812 1682.4609375 l 2,39,40
 442.752929688 1658.6875 442.752929688 1658.6875 442.752929688 1631.64160156 c 0,41,42
 442.752929688 1591.08691406 442.752929688 1591.08691406 464.623046875 1573.07617188 c 0,43,44
 485.412109375 1555.95117188 485.412109375 1555.95117188 510.276367188 1555.95117188 c 0,45,46
 537.396484375 1555.95117188 537.396484375 1555.95117188 552.579101562 1567.72363281 c 0,47,48
 575.758789062 1585.171875 575.758789062 1585.171875 575.758789062 1619.39257812 c 0,49,50
 575.758789062 1665.55664062 575.758789062 1665.55664062 522.028320312 1687.04980469 c 0,51,52
 501.1484375 1695.40625 501.1484375 1695.40625 474.114257812 1703.71679688 c 2,53,-1
 463.458984375 1706.99804688 l 1,38,-1
EndSplineSet
EndChar

StartChar: uni065A
Encoding: 1626 1626 58
Width: 1160
VWidth: 2317
GlyphClass: 4
Flags: W
AnchorPoint: "Anchor-10" 580.71 1356.27 mark 0
AnchorPoint: "Anchor-9" 580.71 1356.27 mark 0
AnchorPoint: "Anchor-1" 578.442 1866.66 basemark 0
AnchorPoint: "Anchor-1" 580.71 1356.27 mark 0
LayerCount: 2
Fore
SplineSet
504.59375 1440.37011719 m 1,0,-1
 299.91015625 1782.55957031 l 1,1,-1
 425.889648438 1782.55957031 l 1,2,-1
 580.709960938 1550.32421875 l 1,3,-1
 735.529296875 1782.55957031 l 1,4,-1
 861.510742188 1782.55957031 l 1,5,-1
 656.825195312 1440.37011719 l 1,6,-1
 504.59375 1440.37011719 l 1,0,-1
EndSplineSet
EndChar

StartChar: afii57392
Encoding: 1632 1632 59
Width: 866
VWidth: 2311
GlyphClass: 2
Flags: W
LayerCount: 2
Fore
SplineSet
332.130859375 550.768554688 m 128,-1,1
 332.130859375 508.778320312 332.130859375 508.778320312 361.775390625 478.962890625 c 128,-1,2
 391.40234375 449.162109375 391.40234375 449.162109375 433.114257812 449.162109375 c 128,-1,3
 474.82421875 449.162109375 474.82421875 449.162109375 504.453125 478.962890625 c 128,-1,4
 534.096679688 508.776367188 534.096679688 508.776367188 534.096679688 550.768554688 c 128,-1,5
 534.096679688 592.758789062 534.096679688 592.758789062 504.454101562 622.576171875 c 128,-1,6
 474.828125 652.377929688 474.828125 652.377929688 433.114257812 652.377929688 c 128,-1,7
 391.40234375 652.377929688 391.40234375 652.377929688 361.774414062 622.576171875 c 128,-1,0
 332.130859375 592.759765625 332.130859375 592.759765625 332.130859375 550.768554688 c 128,-1,1
170.469726562 553.634765625 m 128,-1,9
 170.469726562 662.8046875 170.469726562 662.8046875 247.5390625 740.32421875 c 128,-1,10
 324.56640625 817.801757812 324.56640625 817.801757812 433.010742188 817.801757812 c 128,-1,11
 541.459960938 817.801757812 541.459960938 817.801757812 618.483398438 740.32421875 c 128,-1,12
 695.55078125 662.802734375 695.55078125 662.802734375 695.55078125 553.634765625 c 128,-1,13
 695.55078125 444.459960938 695.55078125 444.459960938 618.482421875 366.948242188 c 128,-1,14
 541.450195312 289.471679688 541.450195312 289.471679688 433.010742188 289.471679688 c 128,-1,15
 324.565429688 289.471679688 324.565429688 289.471679688 247.540039062 366.948242188 c 128,-1,8
 170.469726562 444.46484375 170.469726562 444.46484375 170.469726562 553.634765625 c 128,-1,9
EndSplineSet
EndChar

StartChar: afii57393
Encoding: 1633 1633 60
Width: 746
VWidth: 2311
GlyphClass: 2
Flags: W
LayerCount: 2
Fore
SplineSet
468.147460938 738 m 4,0,1
 510.023242789 433.157278737 510.023242789 433.157278737 510.645507812 9.009765625 c 1,2,-1
 348.249023438 9.009765625 l 1,3,-1
 348.244140625 12.1845703125 l 2,4,5
 348 421 348 421 296.129882812 727.580078125 c 0,6,7
 233 1103 233 1103 114.756835938 1358.546875 c 1,8,-1
 269.240234375 1433.38085938 l 1,9,10
 423 1075 423 1075 468.147460938 738 c 4,0,1
EndSplineSet
EndChar

StartChar: afii57394
Encoding: 1634 1634 61
Width: 1106
VWidth: 2170
GlyphClass: 2
Flags: W
LayerCount: 2
Fore
SplineSet
269.240234375 1433.38085938 m 1,0,1
 367 1161.69433594 l 2,2,3
 410 1043 410 1043 598.440429688 1042.80761719 c 4,4,5
 736 1043 736 1043 804.709960938 1200.48730469 c 0,6,7
 834 1267 834 1267 856.360351562 1432.25097656 c 1,8,-1
 999.112304688 1392.66113281 l 1,9,10
 985 1204 985 1204 928.73828125 1083.3203125 c 0,11,12
 826 861 826 861 599.959960938 861.840820312 c 0,13,14
 519 862 519 862 441.205078125 887.64453125 c 1,15,16
 510 505 510 505 510.645507812 9.009765625 c 1,17,-1
 348.249023438 9.009765625 l 1,18,-1
 348.244140625 12.1845703125 l 2,19,20
 348 421 348 421 296.129882812 727.580078125 c 0,21,22
 233 1103 233 1103 114.756835938 1358.546875 c 1,23,-1
 269.240234375 1433.38085938 l 1,0,1
EndSplineSet
EndChar

StartChar: afii57395
Encoding: 1635 1635 62
Width: 1305
VWidth: 2170
GlyphClass: 2
Flags: W
LayerCount: 2
Fore
SplineSet
441.205078125 887.64453125 m 1,0,1
 509 530 509 530 510.645507812 9.009765625 c 1,2,-1
 348.249023438 9.009765625 l 1,3,-1
 348.244140625 12.1845703125 l 2,4,5
 348.004073568 419.09535151 348.004073568 419.09535151 296.129882812 727.580078125 c 0,6,7
 233 1103 233 1103 114.756835938 1358.546875 c 1,8,-1
 269.240234375 1433.38085938 l 1,9,10
 369.166992188 1155 l 2,11,12
 411 1038 411 1038 538.940429688 1037.85253906 c 0,13,14
 592 1038 592 1038 623 1070 c 0,15,16
 675.53515625 1125.50884434 675.53515625 1125.50884434 675.53515625 1381.0546875 c 2,17,-1
 675.53515625 1384.25878906 l 1,18,-1
 804.923828125 1383.2890625 l 1,19,20
 815 1199 815 1199 821.942382812 1138.99023438 c 0,21,22
 834 1039 834 1039 951.336914062 1039.22851562 c 0,23,24
 1085 1040 1085 1040 1056.05664062 1423.9609375 c 1,25,-1
 1198.22070312 1421.83789062 l 1,26,27
 1236 866 1236 866 949.9609375 868.609375 c 0,28,29
 815 870 815 870 745.743164062 969.53515625 c 1,30,31
 683 867 683 867 551.404296875 866.181640625 c 0,32,33
 498 866 498 866 441.205078125 887.64453125 c 1,0,1
EndSplineSet
EndChar

StartChar: afii57396
Encoding: 1636 1636 63
Width: 990
VWidth: 2442
GlyphClass: 2
Flags: W
LayerCount: 2
Fore
SplineSet
726.124023438 770.22265625 m 5,0,1
 272 569 272 569 272.419921875 362.51953125 c 0,2,3
 272.000499007 180.216893783 272.000499007 180.216893783 577.689453125 181.259765625 c 2,4,-1
 891.421875 182.330078125 l 1,5,-1
 893.618164062 -0.0029296875 l 1,6,-1
 537.630859375 0.3857421875 l 2,7,8
 97 1 97 1 96.4599609375 324.360351562 c 0,9,10
 96 574 96 574 433.989257812 801.817382812 c 5,11,12
 174 863 174 863 174.232421875 1101.04101562 c 4,13,14
 174 1426 174 1426 690.456054688 1462.90625 c 5,15,-1
 690.456054688 1274.09570312 l 5,16,17
 365 1256 365 1256 364.826171875 1091.52050781 c 4,18,19
 365 935 365 935 723.916015625 926.705078125 c 5,20,-1
 726.124023438 770.22265625 l 5,0,1
EndSplineSet
EndChar

StartChar: afii57397
Encoding: 1637 1637 64
Width: 1234
VWidth: 2311
GlyphClass: 2
Flags: W
LayerCount: 2
Fore
SplineSet
634.984375 193.802734375 m 4,0,1
 962 193.879882812 962 193.879882812 957.334960938 498.01953125 c 4,2,3
 954 773.879882812 954 773.879882812 599.471679688 1103.68261719 c 5,4,5
 279 768.879882812 279 768.879882812 279.563476562 516.534179688 c 4,6,7
 280 193.879882812 280 193.879882812 634.984375 193.802734375 c 4,0,1
394.040039062 1261.30371094 m 5,8,-1
 519.99609375 1425.38671875 l 5,9,10
 1141 949.879882812 1141 949.879882812 1141.5 494.379882812 c 4,11,12
 1142 14.8798828125 1142 14.8798828125 634.047851562 14.126953125 c 4,13,14
 106 13.8798828125 106 13.8798828125 96.6201171875 491.879882812 c 4,15,16
 90 826.879882812 90 826.879882812 456.96875 1202.74414062 c 5,17,-1
 394.040039062 1261.30371094 l 5,8,-1
EndSplineSet
EndChar

StartChar: afii57398
Encoding: 1638 1638 65
Width: 1205
VWidth: 2311
GlyphClass: 2
Flags: W
LayerCount: 2
Fore
SplineSet
95.34765625 1426.77050781 m 5,0,1
 482 1325 482 1325 926.709960938 1427.44335938 c 5,2,-1
 926.728515625 1423.47070312 l 6,3,4
 928 1099 928 1099 964.515625 754.350585938 c 4,5,6
 997 442 997 442 1108.06542969 9.009765625 c 1,7,-1
 918.5625 9.009765625 l 1,8,9
 822 383 822 383 791.766601562 703.8671875 c 4,10,11
 759 1057 759 1057 756.29296875 1226.85253906 c 5,12,13
 629 1190 629 1190 454.084960938 1189.88476562 c 4,14,15
 279 1190 279 1190 95.34765625 1242.58789062 c 5,16,-1
 95.34765625 1426.77050781 l 5,0,1
EndSplineSet
EndChar

StartChar: afii57399
Encoding: 1639 1639 66
Width: 1220
VWidth: 2311
GlyphClass: 2
Flags: W
LayerCount: 2
Fore
SplineSet
525.734375 9.009765625 m 1,0,1
 446 660 446 660 105.444335938 1346.06152344 c 1,2,-1
 266.16015625 1432.78320312 l 1,3,4
 509 934 509 934 615.330078125 356.770507812 c 1,5,6
 724 926 724 926 953.899414062 1432.78417969 c 1,7,-1
 1114.46875 1346.0546875 l 1,8,9
 796 659 796 659 695.03515625 9.009765625 c 5,10,-1
 525.734375 9.009765625 l 1,0,1
EndSplineSet
EndChar

StartChar: afii57400
Encoding: 1640 1640 67
Width: 1220
VWidth: 2311
GlyphClass: 2
Flags: W
LayerCount: 2
Fore
SplineSet
525.734375 1432.78417969 m 1,0,1
 695.03515625 1432.78417969 l 5,2,3
 795 783 795 783 1114.46875 95.7392578125 c 1,4,-1
 953.899414062 9.009765625 l 1,5,6
 724 516 724 516 615.330078125 1085.0234375 c 1,7,8
 509 508 509 508 266.16015625 9.0107421875 c 1,9,-1
 105.444335938 95.732421875 l 1,10,11
 446 782 446 782 525.734375 1432.78417969 c 1,0,1
EndSplineSet
EndChar

StartChar: afii57401
Encoding: 1641 1641 68
Width: 1209
VWidth: 2311
GlyphClass: 2
Flags: W
LayerCount: 2
Fore
SplineSet
880 0 m 5,0,1
 816 195 816 195 778.818359375 688.16796875 c 1,2,3
 460 665 460 665 284.080078125 757.173828125 c 0,4,5
 104 851 104 851 103.879882812 1059.76953125 c 0,6,7
 104 1226 104 1226 219.778320312 1340.95703125 c 0,8,9
 334 1456 334 1456 498.200195312 1456.48046875 c 0,10,11
 895 1459 895 1459 921.024414062 1025.50292969 c 0,12,13
 936 781 936 781 953.8984375 558.62890625 c 0,14,15
 976 274 976 274 1036.13476562 49.009765625 c 1,16,-1
 880 0 l 5,0,1
760.58203125 861.556640625 m 1,17,-1
 755.282226562 961.61328125 l 2,18,19
 738 1280 738 1280 508.501953125 1278.07519531 c 0,20,21
 416 1277 416 1277 351.919921875 1226.37304688 c 0,22,23
 282 1171 282 1171 282.095703125 1066.44628906 c 0,24,25
 282 945 282 945 400.9609375 888.421875 c 0,26,27
 511 836 511 836 760.58203125 861.556640625 c 1,17,-1
EndSplineSet
EndChar

StartChar: afii57381
Encoding: 1642 1642 69
Width: 1253
VWidth: 2317
GlyphClass: 2
Flags: W
LayerCount: 2
Fore
SplineSet
269.572265625 1297.6875 m 128,-1,1
 269.572265625 1346.89355469 269.572265625 1346.89355469 305.357421875 1382.6796875 c 128,-1,2
 341.142578125 1418.46484375 341.142578125 1418.46484375 389.229492188 1417.34667969 c 0,3,4
 437.317382812 1418.46484375 437.317382812 1418.46484375 473.102539062 1382.6796875 c 128,-1,5
 508.887695312 1346.89355469 508.887695312 1346.89355469 508.887695312 1297.6875 c 128,-1,6
 508.887695312 1248.48242188 508.887695312 1248.48242188 473.102539062 1212.69726562 c 128,-1,7
 437.317382812 1176.91210938 437.317382812 1176.91210938 389.229492188 1178.03027344 c 0,8,9
 341.142578125 1176.91210938 341.142578125 1176.91210938 305.357421875 1212.69726562 c 128,-1,0
 269.572265625 1248.48242188 269.572265625 1248.48242188 269.572265625 1297.6875 c 128,-1,1
749.572265625 180.6875 m 128,-1,11
 749.572265625 229.893554688 749.572265625 229.893554688 785.357421875 265.6796875 c 128,-1,12
 821.142578125 301.46484375 821.142578125 301.46484375 869.229492188 300.346679688 c 0,13,14
 917.317382812 301.46484375 917.317382812 301.46484375 953.102539062 265.6796875 c 128,-1,15
 988.887695312 229.893554688 988.887695312 229.893554688 988.887695312 180.6875 c 128,-1,16
 988.887695312 131.482421875 988.887695312 131.482421875 953.102539062 95.697265625 c 128,-1,17
 917.317382812 59.912109375 917.317382812 59.912109375 869.229492188 61.0302734375 c 0,18,19
 821.142578125 59.912109375 821.142578125 59.912109375 785.357421875 95.697265625 c 128,-1,10
 749.572265625 131.482421875 749.572265625 131.482421875 749.572265625 180.6875 c 128,-1,11
925.49609375 1463.36816406 m 1,20,-1
 1049.45117188 1399.5078125 l 1,21,-1
 323.564453125 -1.17578125 l 1,22,-1
 200.326171875 66.548828125 l 1,23,-1
 925.49609375 1463.36816406 l 1,20,-1
EndSplineSet
EndChar

StartChar: uni066B
Encoding: 1643 1643 70
Width: 760
VWidth: 2317
GlyphClass: 2
Flags: W
LayerCount: 2
Fore
SplineSet
432.1953125 523.545898438 m 5,0,-1
 565.171875 461.045898438 l 5,1,-1
 173.008789062 -245.129882812 l 1,2,-1
 44.3896484375 -179.41796875 l 1,3,-1
 432.1953125 523.545898438 l 5,0,-1
EndSplineSet
EndChar

StartChar: uni066C
Encoding: 1644 1644 71
Width: 627
VWidth: 2442
GlyphClass: 2
Flags: W
LayerCount: 2
Fore
SplineSet
316.940429688 257.719726562 m 0,0,1
 458 255 458 255 467.631835938 135.653320312 c 0,2,3
 476 26 476 26 417 -86 c 0,4,5
 338 -235 338 -235 180.200195312 -350.860351562 c 1,6,-1
 127.200195312 -302.099609375 l 1,7,8
 295 -150 295 -150 348.546875 -0.3564453125 c 1,9,10
 316 -1 316 -1 305.188476562 -0.0341796875 c 0,11,12
 157 8 157 8 179.209960938 149.53515625 c 4,13,14
 197 261 197 261 316.940429688 257.719726562 c 0,0,1
EndSplineSet
EndChar

StartChar: uni066E
Encoding: 1646 1646 72
Width: 1832
VWidth: 2311
GlyphClass: 2
Flags: W
AnchorPoint: "Anchor-10" 806.894 1117.77 basechar 0
AnchorPoint: "Anchor-7" 563.093 -218.36 basechar 0
LayerCount: 2
Fore
SplineSet
921 185.604492188 m 4,0,1
 1058 186 1058 186 1127.91796875 191.845703125 c 0,2,3
 1557.30530324 232.122438061 1557.30530324 232.122438061 1571.51953125 335.830078125 c 0,4,5
 1581 405 1581 405 1567.20996094 537.903320312 c 0,6,7
 1554 670 1554 670 1527.95898438 751.672851562 c 1,8,-1
 1685.48535156 790.583007812 l 1,9,10
 1735 588 1735 588 1734.54313689 442 c 0,11,12
 1734 298 1734 298 1698.8515625 222.056640625 c 0,13,14
 1595.60513387 0 1595.60513387 0 907.125976562 0 c 16,15,16
 567 0 567 0 398.397460938 70.6044921875 c 0,17,18
 125 184 125 184 99.65234375 467.181640625 c 0,19,20
 88 600 88 600 131.100585938 751.973632812 c 1,21,-1
 273.30859375 714.452148438 l 1,22,23
 252 573 252 573 254.96875 507.0546875 c 0,24,25
 267 248 267 248 593.8359375 200.705078125 c 0,26,27
 704.166296896 184.978510993 704.166296896 184.978510993 921 185.604492188 c 4,0,1
EndSplineSet
Substitution2: "'init' Initial Forms in Arabic lookup 13 subtable" uni066E.init
Substitution2: "'medi' Medial Forms in Arabic lookup 11 subtable" uni066E.medi
Substitution2: "'fina' Terminal Forms in Arabic lookup 9 subtable" uni066E.fina
EndChar

StartChar: uni066F
Encoding: 1647 1647 73
Width: 1427
VWidth: 2311
GlyphClass: 2
Flags: W
AnchorPoint: "Anchor-10" 152.36 1081.41 basechar 0
AnchorPoint: "Anchor-7" 283.8 -666 basechar 0
LayerCount: 2
Fore
SplineSet
690.495117188 -463.552734375 m 4,0,1
 431 -464 431 -464 277.130859375 -346.52734375 c 4,2,3
 99 -210 99 -210 99.689453125 72.34765625 c 4,4,5
 100 279 100 279 192.536132812 487.751953125 c 5,6,-1
 341.270507812 433.259765625 l 5,7,8
 261 238 261 238 261.024414062 89.263671875 c 4,9,10
 261 -291 261 -291 693.155273438 -290.509765625 c 4,11,12
 1148 -290 1148 -290 1172.46582031 89.59765625 c 5,13,14
 1073 38 1073 38 959.895507812 38.23828125 c 4,15,16
 802 38 802 38 720.36328125 150.112304688 c 4,17,18
 667 224 667 224 667.647460938 329.923828125 c 4,19,20
 669 462 669 462 722 567 c 4,21,22
 815 753 815 753 995.559570312 752.48046875 c 4,23,24
 1162 752 1162 752 1248.60644531 606.740234375 c 4,25,26
 1329 472 1329 472 1329.2421875 213.044921875 c 4,27,28
 1329 -463 1329 -463 690.495117188 -463.552734375 c 4,0,1
827.676757812 408.54296875 m 4,29,30
 818 369 818 369 817.870117188 337.8203125 c 4,31,32
 818 210 818 210 978.692382812 210.361328125 c 4,33,34
 1093 210 1093 210 1172.56152344 267.646484375 c 5,35,36
 1173 329 1173 329 1163.46777344 390.720703125 c 4,37,38
 1137 581 1137 581 999.920898438 580.623046875 c 4,39,40
 870 581 870 581 827.676757812 408.54296875 c 4,29,30
EndSplineSet
Substitution2: "'init' Initial Forms in Arabic lookup 13 subtable" uni066F.init
Substitution2: "'medi' Medial Forms in Arabic lookup 11 subtable" uni066F.medi
Substitution2: "'fina' Terminal Forms in Arabic lookup 9 subtable" uni066F.fina
EndChar

StartChar: uni0670
Encoding: 1648 1648 74
Width: 6
VWidth: 2317
GlyphClass: 4
Flags: W
AnchorPoint: "Anchor-10" 583.891 1359.45 mark 0
AnchorPoint: "Anchor-9" 583.891 1359.45 mark 0
AnchorPoint: "Anchor-1" 583.891 1936.62 basemark 0
AnchorPoint: "Anchor-1" 583.891 1359.45 mark 0
LayerCount: 2
Fore
SplineSet
557.712890625 1407.47851562 m 1,0,-1
 532.012695312 1829.93164062 l 5,1,-1
 635.671875 1890.97460938 l 5,2,-1
 635.671875 1407.47851562 l 1,3,-1
 557.712890625 1407.47851562 l 1,0,-1
EndSplineSet
EndChar

StartChar: uni0674
Encoding: 1652 1652 75
Width: 683
VWidth: 2317
GlyphClass: 2
Flags: W
LayerCount: 2
Fore
SplineSet
305.339295456 2010.55235102 m 0,0,1
 416.799176791 2033.27771107 416.799176791 2033.27771107 511.840252328 1977.29096655 c 2,2,-1
 516.764648438 1974.39010599 l 1,3,-1
 516.764648438 1968.67480469 l 1,4,-1
 516.764648438 1856.87304688 l 1,5,-1
 516.764648438 1840.69447866 l 1,6,-1
 502.293388535 1847.928337 l 1,7,-1
 482.350345011 1857.8974173 l 2,8,9
 420.080204221 1889.03061372 420.080204221 1889.03061372 357.650924977 1882.23739902 c 0,10,11
 338.574761273 1880.17902906 338.574761273 1880.17902906 323.421287744 1875.79640903 c 128,-1,12
 308.267814215 1871.41378901 308.267814215 1871.41378901 296.987408497 1864.80600856 c 128,-1,13
 285.70700278 1858.1982281 285.70700278 1858.1982281 277.946018319 1849.1788115 c 128,-1,14
 270.185033857 1840.1593949 270.185033857 1840.1593949 265.867197686 1829.03200953 c 128,-1,15
 261.549361514 1817.90462415 261.549361514 1817.90462415 260.347677679 1804.27821654 c 0,16,17
 253.937092418 1730.05228763 253.937092418 1730.05228763 360.04609701 1697.90827445 c 0,18,19
 392.355063962 1688.11937877 392.355063962 1688.11937877 528.329925001 1719.5641643 c 2,20,-1
 540.583007812 1722.39774366 l 1,21,-1
 540.583007812 1709.82128906 l 1,22,-1
 540.583007812 1594.234375 l 1,23,-1
 540.583007812 1586.23054214 l 1,24,-1
 532.773570162 1584.47725265 l 1,25,-1
 143.743296725 1497.13643234 l 1,26,-1
 131.552734375 1494.39954067 l 1,27,-1
 131.552734375 1506.89355469 l 1,28,-1
 131.552734375 1620.31738281 l 1,29,-1
 131.552734375 1628.27264164 l 1,30,-1
 139.304297595 1630.06133129 l 1,31,-1
 209.370079721 1646.22915913 l 1,32,33
 133.8203125 1703.6708356 133.8203125 1703.6708356 133.8203125 1796.35742188 c 0,34,35
 133.8203125 1899.44171882 133.8203125 1899.44171882 205.866084116 1962.98390198 c 0,36,37
 219.504569551 1974.87928228 219.504569551 1974.87928228 235.170438559 1984.14728866 c 128,-1,38
 250.836307567 1993.41529504 250.836307567 1993.41529504 268.363158534 2000.00141833 c 128,-1,39
 285.890009501 2006.58754162 285.890009501 2006.58754162 305.339295456 2010.55235102 c 0,0,1
EndSplineSet
EndChar

StartChar: uni06A1
Encoding: 1697 1697 79
Width: 1857
VWidth: 2311
GlyphClass: 2
Flags: W
AnchorPoint: "Anchor-10" 534.823 1301.98 basechar 0
AnchorPoint: "Anchor-7" 648.243 -158.873 basechar 0
LayerCount: 2
Fore
SplineSet
921 185.604492188 m 0,0,1
 1274 186 1274 186 1404.79882812 225.830078125 c 0,2,3
 1573 277 1573 277 1597 422 c 1,4,5
 1528 373 1528 373 1380.18457031 373.475585938 c 0,6,7
 1221 374 1221 374 1140.65234375 485.349609375 c 0,8,9
 1088 558 1088 558 1088.93652344 665.161132812 c 0,10,11
 1090 797 1090 797 1143.2890625 902.237304688 c 0,12,13
 1236 1088 1236 1088 1416.84863281 1087.71777344 c 0,14,15
 1586 1088 1586 1088 1670.37890625 943.948242188 c 0,16,17
 1762 789 1762 789 1760.29492188 554.135742188 c 8,18,19
 1759 420 1759 420 1733.57226562 334.930664062 c 0,20,21
 1670 123 1670 123 1447.95996094 51.9404296875 c 0,22,23
 1287 0 1287 0 907.125976562 0 c 16,24,25
 567 0 567 0 398.397460938 70.6044921875 c 0,26,27
 125 184 125 184 99.65234375 467.181640625 c 0,28,29
 88 600 88 600 131.100585938 751.973632812 c 1,30,-1
 273.30859375 714.452148438 l 1,31,32
 252 573 252 573 254.96875 507.0546875 c 0,33,34
 267 248 267 248 593.8359375 200.705078125 c 0,35,36
 697 186 697 186 921 185.604492188 c 0,0,1
1398.98144531 545.598632812 m 0,37,38
 1522 545 1522 545 1600.45410156 602.854492188 c 1,39,40
 1607 629 1607 629 1589.24023438 725.928710938 c 0,41,42
 1553.79645415 915.734881816 1553.79645415 915.734881816 1426 915.94657203 c 4,43,44
 1288.66165059 916.17406805 1288.66165059 916.17406805 1247.96582031 743.780273438 c 0,45,46
 1239 705 1239 705 1238.15917969 673.057617188 c 0,47,48
 1239 547 1239 547 1398.98144531 545.598632812 c 0,37,38
EndSplineSet
Substitution2: "'init' Initial Forms in Arabic lookup 13 subtable" uni06A1.init
Substitution2: "'medi' Medial Forms in Arabic lookup 11 subtable" uni06A1.medi
Substitution2: "'fina' Terminal Forms in Arabic lookup 9 subtable" uni06A1.fina
EndChar

StartChar: uni06A9
Encoding: 1705 1705 80
Width: 1967
VWidth: 2311
GlyphClass: 2
Flags: W
AnchorPoint: "Anchor-7" 798.06 -201.16 basechar 0
AnchorPoint: "Anchor-10" 980.9 1349.66 basechar 0
LayerCount: 2
Fore
SplineSet
1915.66796875 1527.515625 m 1,0,-1
 1912.91796875 1342.93359375 l 1,1,-1
 1255.90722656 1005.1015625 l 1,2,-1
 1604.15332031 620.109375 l 2,3,4
 1744 465 1744 465 1698.16015625 275.899414062 c 0,5,6
 1631 0 1631 0 1209.45996094 0 c 2,7,-1
 907.125976562 0 l 0,8,9
 567 0 567 0 398.397460938 70.6044921875 c 0,10,11
 125 184 125 184 99.65234375 467.181640625 c 0,12,13
 88 600 88 600 131.100585938 751.973632812 c 1,14,-1
 273.30859375 714.452148438 l 1,15,16
 252 573 252 573 254.96875 507.0546875 c 0,17,18
 267.053983766 246.837631369 267.053983766 246.837631369 593.8359375 200.705078125 c 0,19,20
 702.403589751 185.667072131 702.403589751 185.667072131 861 185.604492188 c 2,21,-1
 1115.91503906 185.50390625 l 1,22,-1
 1294.26171875 185.637695312 l 2,23,24
 1518 186 1518 186 1549.78613281 329.215820312 c 0,25,26
 1566.95673348 409.796951492 1566.95673348 409.796951492 1485.87695312 500.44921875 c 2,27,-1
 1105.68261719 925.530273438 l 1,28,29
 1101 1008 1101 1008 1117.52441406 1078.53027344 c 0,30,31
 1128.91335569 1128.61893758 1128.91335569 1128.61893758 1177.68261719 1153.34570312 c 2,32,-1
 1915.66796875 1527.515625 l 1,0,-1
EndSplineSet
Substitution2: "'init' Initial Forms in Arabic lookup 13 subtable" uniFB90
Substitution2: "'medi' Medial Forms in Arabic lookup 11 subtable" uniFB91
Substitution2: "'fina' Terminal Forms in Arabic lookup 9 subtable" uniFB8F
EndChar

StartChar: afii57514
Encoding: 1722 1722 82
Width: 1403
VWidth: 2317
GlyphClass: 2
Flags: W
AnchorPoint: "Anchor-10" 632.479 978.46 basechar 0
AnchorPoint: "Anchor-7" 575.075 -555.182 basechar 0
LayerCount: 2
Fore
SplineSet
1244 -183.108398438 m 4,0,1
 1107 -447 1107 -447 690.364257812 -447.545898438 c 4,2,3
 431 -448 431 -448 277 -330.520507812 c 4,4,5
 99 -194 99 -194 99.55859375 88.3544921875 c 4,6,7
 100 295 100 295 192.405273438 503.759765625 c 5,8,-1
 341.139648438 449.267578125 l 5,9,10
 261 254 261 254 260.893554688 105.270507812 c 4,11,12
 261 -275 261 -275 693.024414062 -274.501953125 c 4,13,14
 1154 -274 1154 -274 1153.8515625 123.12109375 c 4,15,16
 1154 264 1154 264 1047.46191406 480.682617188 c 5,17,-1
 1184.29101562 600.477539062 l 5,18,19
 1237 496 1237 496 1267.74511719 398 c 4,20,21
 1311 260 1311 260 1311.51953125 129 c 4,22,23
 1312 -51 1312 -51 1244 -183.108398438 c 4,0,1
EndSplineSet
Substitution2: "'init' Initial Forms in Arabic lookup 13 subtable" uni06BA.init
Substitution2: "'medi' Medial Forms in Arabic lookup 11 subtable" uni06BA.medi
Substitution2: "'fina' Terminal Forms in Arabic lookup 9 subtable" uniFB9F
EndChar

StartChar: uni06F4
Encoding: 1780 1780 89
Width: 1108
VWidth: 2311
GlyphClass: 2
Flags: W
LayerCount: 2
Fore
SplineSet
388 1109 m 17,0,1
 388 1212 388 1212 471 1310 c 0,2,3
 574 1431 574 1431 771 1430.26074219 c 0,4,5
 879 1430 879 1430 937.790039062 1391.28222656 c 1,6,-1
 937.790039062 1239.00390625 l 1,7,8
 840 1259 840 1259 792.280273438 1259.1953125 c 0,9,10
 688 1259 688 1259 614 1217 c 0,11,12
 523 1166 523 1166 512.6328125 1062.59570312 c 0,13,14
 497 909 497 909 762.693359375 907.32421875 c 0,15,16
 867 907 867 907 999.28125 954.310546875 c 1,17,-1
 1001.60058594 793.407226562 l 1,18,19
 866 756 866 756 754.439453125 756.51953125 c 0,20,21
 568 757 568 757 448 853 c 1,22,23
 509 529 509 529 510.645507812 9.009765625 c 1,24,-1
 348.249023438 9.009765625 l 1,25,-1
 348.244140625 12.1845703125 l 2,26,27
 348 424 348 424 296.129882812 727.580078125 c 0,28,29
 233 1103 233 1103 114.756835938 1358.546875 c 1,30,-1
 269.240234375 1433.38085938 l 1,31,-1
 388 1109 l 17,0,1
EndSplineSet
EndChar

StartChar: uni06F5
Encoding: 1781 1781 90
Width: 1294
VWidth: 2170
GlyphClass: 2
Flags: W
LayerCount: 2
Fore
SplineSet
885.852539062 187.615234375 m 0,0,1
 1030 186 1030 186 1029.67285156 381.01171875 c 0,2,3
 1029 689 1029 689 628.35546875 1110.640625 c 5,4,5
 263 688 263 688 263.752929688 380.796875 c 0,6,7
 264 188 264 188 431.607421875 187.798828125 c 0,8,9
 572.091710154 186.999478173 572.091710154 186.999478173 586 379.500976562 c 2,10,-1
 590.440429688 440.959960938 l 1,11,-1
 715.360351562 440.959960938 l 1,12,-1
 721.990234375 379.33203125 l 2,13,14
 742 190 742 190 885.852539062 187.615234375 c 0,0,1
652.166015625 158.462890625 m 1,15,16
 598 10 598 10 427.211914062 8.8662109375 c 0,17,18
 97 8 97 8 97.4267578125 350.7265625 c 0,19,20
 98 725 98 725 503.392578125 1218.62988281 c 5,21,-1
 454.702148438 1260.90332031 l 5,22,-1
 562.45703125 1410.34863281 l 5,23,24
 1201 879 1201 879 1199.81152344 345.008789062 c 0,25,26
 1199 8 1199 8 902.158203125 9.1103515625 c 0,27,28
 707 10 707 10 652.166015625 158.462890625 c 1,15,16
EndSplineSet
EndChar

StartChar: uni06F6
Encoding: 1782 1782 91
Width: 1008
VWidth: 2311
GlyphClass: 2
Flags: W
LayerCount: 2
Fore
SplineSet
591.301757812 1423.64355469 m 0,0,1
 670 1424 670 1424 769 1392.22949219 c 1,2,-1
 769 1227 l 1,3,4
 549 1293 549 1293 436.442382812 1213.36816406 c 0,5,6
 342 1146 342 1146 342.384765625 1047.33691406 c 0,7,8
 342 948 342 948 416.521484375 892.438476562 c 0,9,10
 555 792 555 792 665.418945312 840.23828125 c 0,11,12
 929 956 929 956 941.430664062 959.706054688 c 1,13,-1
 951.430664062 780.248046875 l 1,14,15
 551 653 551 653 238.534179688 9.009765625 c 1,16,-1
 98 72.6103515625 l 1,17,18
 262 440 262 440 491.700195312 685.040039062 c 5,19,20
 188 751 188 751 175.965820312 1007.48144531 c 0,21,22
 167 1196 167 1196 292.411132812 1316.2421875 c 0,23,24
 404 1423 404 1423 591.301757812 1423.64355469 c 0,0,1
EndSplineSet
EndChar

StartChar: uniFB8F
Encoding: 64399 64399 106
Width: 2117
VWidth: 2311
GlyphClass: 2
Flags: W
AnchorPoint: "Anchor-10" 980.9 1349.66 basechar 0
AnchorPoint: "Anchor-7" 798.06 -201.16 basechar 0
LayerCount: 2
Fore
SplineSet
1915.66796875 1527.515625 m 5,0,-1
 1915.66796875 1343.46386719 l 1,1,-1
 1258.65722656 1005.63183594 l 1,2,-1
 1908.90039062 283.819335938 l 2,3,4
 1993.85021085 189.166897448 1993.85021085 189.166897448 2093.95605469 186.338867188 c 2,5,-1
 2124.37597656 185.479492188 l 2,6,7
 2172.37597656 183.988319878 2172.37597656 183.988319878 2172.37597656 108 c 2,8,-1
 2172.37597656 74 l 2,9,10
 2171.99868015 -1.26328465757 2171.99868015 -1.26328465757 2123.62011719 0 c 2,11,-1
 2083.04296875 1.0595703125 l 2,12,13
 1901 6 1901 6 1694.72167969 273.060546875 c 1,14,15
 1663.03659605 1.31386550315 1663.03659605 1.31386550315 1212.20996094 0.5302734375 c 2,16,-1
 907.125976562 0 l 2,17,18
 566.562508035 -0.989647663129 566.562508035 -0.989647663129 398.397460938 70.6044921875 c 0,19,20
 125 187 125 187 99.65234375 467.181640625 c 0,21,22
 88 600 88 600 131.100585938 751.973632812 c 1,23,-1
 273.30859375 714.452148438 l 1,24,25
 252 573 252 573 254.96875 507.0546875 c 0,26,27
 267.146190215 250.925164113 267.146190215 250.925164113 593.8359375 200.705078125 c 0,28,29
 701.573573098 184.615665603 701.573573098 184.615665603 852.743164062 185.009765625 c 2,30,-1
 1297.00878906 186.16796875 l 2,31,32
 1520 187 1520 187 1552.53515625 329.743164062 c 0,33,34
 1570.93707045 409.726478789 1570.93707045 409.726478789 1488.62695312 500.979492188 c 2,35,-1
 1105.68261719 925.530273438 l 5,36,37
 1101 1008 1101 1008 1117.52441406 1078.53027344 c 4,38,39
 1128.91335569 1128.61893758 1128.91335569 1128.61893758 1177.68261719 1153.34570312 c 6,40,-1
 1915.66796875 1527.515625 l 5,0,-1
EndSplineSet
EndChar

StartChar: uniFB9F
Encoding: 64415 64415 114
Width: 1467
VWidth: 2311
GlyphClass: 2
Flags: W
AnchorPoint: "Anchor-10" 393.357 757.317 basechar 0
AnchorPoint: "Anchor-7" 293.314 -739.99 basechar 0
LayerCount: 2
Fore
SplineSet
1287.19433594 286.931640625 m 0,0,1
 1332.87924459 187.263445276 1332.87924459 187.263445276 1440.83691406 185.90234375 c 2,2,-1
 1474.37597656 185.479492188 l 2,3,4
 1522.37597656 184.996214561 1522.37597656 184.996214561 1522.37597656 108 c 2,5,-1
 1522.37597656 74 l 2,6,7
 1522.00093612 -0.813261451853 1522.00093612 -0.813261451853 1473.62011719 0 c 2,8,-1
 1442.07421875 0.5302734375 l 2,9,10
 1337 2 1337 2 1300.55371094 51.03515625 c 1,11,12
 1298 -516 1298 -516 690.364257812 -517.545898438 c 4,13,14
 431 -518 431 -518 277 -400.520507812 c 4,15,16
 99 -264 99 -264 99.55859375 18.3544921875 c 4,17,18
 100 225 100 225 192.405273438 433.759765625 c 5,19,-1
 341.139648438 379.267578125 l 5,20,21
 261 184 261 184 260.893554688 35.2705078125 c 4,22,23
 261 -345 261 -345 693.024414062 -344.501953125 c 4,24,25
 1154 -344 1154 -344 1153.8515625 53.12109375 c 0,26,27
 1154 194 1154 194 1047.46191406 410.682617188 c 1,28,-1
 1184.29101562 530.477539062 l 1,29,30
 1211 454 1211 454 1287.19433594 286.931640625 c 0,0,1
EndSplineSet
EndChar

StartChar: uniFBE8
Encoding: 64488 64488 117
Width: 640
VWidth: 2317
GlyphClass: 2
Flags: W
AnchorPoint: "Anchor-10" 293.546 1080.67 basechar 0
AnchorPoint: "Anchor-7" 327.466 -116.07 basechar 0
LayerCount: 2
Fore
SplineSet
440.529296875 80.3642578125 m 4,0,1
 347 0 347 0 85.48828125 0 c 2,2,-1
 -2 0 l 2,3,4
 -51.6240234375 0 -51.6240234375 0 -51.6240234375 74 c 2,5,-1
 -51.6240234375 108 l 2,6,7
 -52.0023412704 185.479492188 -52.0023412704 185.479492188 -4 185.479492188 c 2,8,-1
 89.091796875 185.479492188 l 2,9,10
 182 185 182 185 209.141601562 189.481445312 c 0,11,12
 325 205 325 205 355.022460938 276.791992188 c 4,13,14
 376 327 376 327 376.485830733 413.692970411 c 4,15,16
 376 568 376 568 336.603515625 727.670898438 c 5,17,-1
 487.750976562 761.78125 l 5,18,19
 541 608 541 608 541.465820312 426.180664062 c 4,20,21
 541 168 541 168 440.529296875 80.3642578125 c 4,0,1
EndSplineSet
EndChar

StartChar: uniFBE9
Encoding: 64489 64489 118
Width: 744
VWidth: 2311
GlyphClass: 2
Flags: W
AnchorPoint: "Anchor-10" 317.926 1025.55 basechar 0
AnchorPoint: "Anchor-7" 285.065 -264.47 basechar 0
LayerCount: 2
Fore
SplineSet
749.620117188 0 m 2,0,1
 706.977539062 0 l 2,2,3
 551 0 551 0 431.1953125 130.317382812 c 1,4,5
 314 0 314 0 129.21484375 0 c 2,6,-1
 -6 0 l 6,7,8
 -51.6240234375 0 -51.6240234375 0 -51.6240234375 74 c 2,9,-1
 -51.6240234375 108 l 2,10,11
 -52.0023412704 185.479492187 -52.0023412704 185.479492187 -5.6240234375 185.479492188 c 6,12,-1
 132.551757812 185.479492188 l 2,13,14
 346.372288994 184.999163686 346.372288994 184.999163686 350.291015625 366.598632812 c 2,15,-1
 355.14453125 591.517578125 l 1,16,-1
 508.528320312 618.0234375 l 1,17,-1
 517.69921875 366.637695312 l 2,18,19
 523.983367024 185.479492188 523.983367024 185.479492188 709.999023438 185.479492188 c 2,20,-1
 750.375976562 185.479492188 l 2,21,22
 798.375976562 184.996214561 798.375976562 184.996214561 798.375976562 108 c 2,23,-1
 798.375976562 74 l 2,24,25
 798 0 798 0 749.620117188 0 c 2,0,1
EndSplineSet
EndChar

StartChar: uniFE73
Encoding: 65139 65139 126
Width: 613
VWidth: 2317
GlyphClass: 2
Flags: W
AnchorPoint: "Anchor-10" 226.617 1348.45 basechar 0
AnchorPoint: "Anchor-7" 226.617 -126.01 basechar 0
LayerCount: 2
Fore
SplineSet
320.364257812 363.96484375 m 2,0,1
 320.364257812 185.502929688 320.364257812 185.502929688 548.73046875 185.502929688 c 6,2,-1
 623.1953125 185.502929688 l 1,3,-1
 623.1953125 0.009765625 l 1,4,-1
 536.349609375 0.009765625 l 2,5,6
 132.870117188 -3.14463386437e-06 132.870117188 -3.14463386437e-06 132.870117188 350.354492188 c 2,7,-1
 132.870117188 388.524414062 l 1,8,-1
 320.364257812 388.524414062 l 1,9,-1
 320.364257812 363.96484375 l 2,0,1
EndSplineSet
EndChar

StartChar: uniFE8E
Encoding: 65166 65166 152
Width: 557
VWidth: 2311
GlyphClass: 2
Flags: W
AnchorPoint: "Anchor-10" 216.907 1553.98 basechar 0
AnchorPoint: "Anchor-7" 264.947 -215.71 basechar 0
LayerCount: 2
Fore
SplineSet
564.375976562 185.479492188 m 6,0,1
 612.375976562 185.479492188 612.375976562 185.479492188 612.375976562 108 c 6,2,-1
 612.375976562 74 l 6,3,4
 612 0 612 0 563.620117188 0 c 6,5,-1
 523.619140625 0 l 6,6,7
 320 0 320 0 233.518554688 132.852539062 c 4,8,9
 172.947448561 227.081753185 172.947448561 227.081753185 166.962890625 431.23828125 c 6,10,-1
 138.262695312 1410.31347656 l 5,11,-1
 310.995117188 1486.28515625 l 5,12,-1
 310.568359375 444.966796875 l 6,13,14
 310.001048303 185.479492188 310.001048303 185.479492188 523.459960938 185.479492188 c 6,15,-1
 564.375976562 185.479492188 l 6,0,1
EndSplineSet
EndChar

StartChar: uniFEA2
Encoding: 65186 65186 172
Width: 1333
VWidth: 2311
GlyphClass: 2
Flags: W
AnchorPoint: "Anchor-7" 584.525 -813.648 basechar 0
AnchorPoint: "Anchor-10" 549.59 1217.96 basechar 0
LayerCount: 2
Fore
SplineSet
864 421 m 1,0,1
 714 392 714 392 590.947265625 321.604492188 c 0,2,3
 265 134 265 134 265.084960938 -140.095703125 c 0,4,5
 265 -355 265 -355 460 -433.023353568 c 0,6,7
 576 -479 576 -479 776.735351562 -479.671875 c 0,8,9
 974 -480 974 -480 1151.05761719 -429.659179688 c 1,10,-1
 1195.06640625 -585.071289062 l 5,11,12
 987 -649 987 -649 778.907226562 -648.865234375 c 0,13,14
 520 -649 520 -649 339 -555 c 0,15,16
 97 -429 97 -429 96.4599609375 -143.330078125 c 0,17,18
 96 46 96 46 198.533203125 199.254882812 c 0,19,20
 353 431 353 431 685.275390625 528.139648438 c 0,21,22
 781 556 781 556 869.93359375 563.4765625 c 1,23,24
 801 581 801 581 671.255859375 642.354492188 c 0,25,26
 541 704 541 704 506.147460938 703.815429688 c 0,27,28
 371 704 371 704 234.82421875 528.734375 c 1,29,-1
 119.701171875 624.7109375 l 1,30,31
 292 878 292 878 489.719726562 874.5 c 0,32,33
 522 874 522 874 560.990234375 863.8046875 c 0,34,35
 600 853 600 853 757.486328125 776.234375 c 0,36,37
 915 700 915 700 995.791015625 671.354492188 c 0,38,39
 1077 643 1077 643 1169.60253906 630.88671875 c 1,40,-1
 1145.46582031 454.939453125 l 1,41,42
 1070 447 1070 447 995 439.564453125 c 1,43,44
 999.000351806 180.977258894 999.000351806 180.977258894 1292.09765625 184.842773438 c 2,45,-1
 1340.37597656 185.479492188 l 2,46,47
 1388.37597656 186.004109244 1388.37597656 186.004109244 1388.37597656 108 c 2,48,-1
 1388.37597656 74 l 2,49,50
 1387.99793063 0.598209019959 1387.99793063 0.598209019959 1339.62011719 0 c 2,51,-1
 1296.73632812 -0.5302734375 l 2,52,53
 879 -6 879 -6 864 421 c 1,0,1
EndSplineSet
EndChar

StartChar: uniFEA3
Encoding: 65187 65187 173
Width: 1361
VWidth: 2311
GlyphClass: 2
Flags: W
AnchorPoint: "Anchor-10" 638.26 1079.07 basechar 0
AnchorPoint: "Anchor-7" 599.96 -217.83 basechar 0
LayerCount: 2
Fore
SplineSet
1265.13085938 524.958007812 m 5,0,-1
 1240.79785156 378.294921875 l 5,1,2
 1192 368 1192 368 628.430664062 95.1689453125 c 4,3,4
 432 0 432 0 49.0302734375 0 c 2,5,-1
 -4 0 l 2,6,7
 -51.6240234375 0 -51.6240234375 0 -51.6240234375 74 c 2,8,-1
 -51.6240234375 108 l 2,9,10
 -52.0023412704 185.479492188 -52.0023412704 185.479492188 -4 185.479492188 c 2,11,-1
 39.85546875 185.479492188 l 2,12,13
 356.626851425 185.005052088 356.626851425 185.005052088 501.943359375 237.760742188 c 4,14,15
 745 326 745 326 945.965820312 423.328125 c 5,16,17
 864 432 864 432 684.346679688 510.837890625 c 4,18,19
 487 598 487 598 434.266601562 604.65234375 c 0,20,21
 424 606 424 606 412.642578125 606.204101562 c 0,22,23
 302 606 302 606 179.857421875 445.389648438 c 1,24,-1
 64.6552734375 534.006835938 l 1,25,26
 165 675 165 675 224.036132812 718.075195312 c 0,27,28
 313 782 313 782 419.518554688 781.916015625 c 0,29,30
 508 782 508 782 644 722.1328125 c 4,31,32
 685 704 685 704 890.130859375 606.637695312 c 4,33,34
 1085 514 1085 514 1265.13085938 524.958007812 c 5,0,-1
EndSplineSet
EndChar

StartChar: uniFEA4
Encoding: 65188 65188 174
Width: 1393
VWidth: 2311
GlyphClass: 2
Flags: W
AnchorPoint: "Anchor-7" 599.96 -217.83 basechar 0
AnchorPoint: "Anchor-10" 639.26 1079.07 basechar 0
LayerCount: 2
Fore
SplineSet
890.130859375 606.637695312 m 4,0,1
 1088 514 1088 514 1265.13085938 524.958007812 c 5,2,-1
 1240.80566406 378.338867188 l 5,3,4
 1153 357 1153 357 1000.92382812 279.545898438 c 5,5,6
 1016.02800027 188.83183336 1016.02800027 188.83183336 1291.09960938 186.432617188 c 6,7,-1
 1400.37597656 185.479492188 l 6,8,9
 1448.37597656 184.996214561 1448.37597656 184.996214561 1448.37597656 108 c 6,10,-1
 1448.37597656 74 l 6,11,12
 1448 0 1448 0 1399.62011719 0 c 6,13,-1
 1268.41503906 0 l 6,14,15
 923 0 923 0 855.592773438 212.096679688 c 5,16,17
 744 151 744 151 628.430664062 95.1689453125 c 4,18,19
 432 0 432 0 49.0302734375 0 c 2,20,-1
 -4 0 l 2,21,22
 -51.6240234375 0 -51.6240234375 0 -51.6240234375 74 c 2,23,-1
 -51.6240234375 108 l 2,24,25
 -52.0023412704 185.479492188 -52.0023412704 185.479492188 -4 185.479492188 c 2,26,-1
 39.85546875 185.479492188 l 2,27,28
 363 185 363 185 501.943359375 237.760742188 c 4,29,30
 763 335 763 335 945.965820312 423.328125 c 5,31,32
 864 432 864 432 684.346679688 510.837890625 c 4,33,34
 487 598 487 598 434.266601562 604.65234375 c 0,35,36
 424 606 424 606 412.642578125 606.204101562 c 0,37,38
 302 606 302 606 179.857421875 445.389648438 c 1,39,-1
 64.6552734375 534.006835938 l 1,40,41
 165 675 165 675 224.036132812 718.075195312 c 0,42,43
 313 782 313 782 419.518554688 781.916015625 c 0,44,45
 516.706939691 782.00333034 516.706939691 782.00333034 644 722.1328125 c 4,46,47
 766 665 766 665 890.130859375 606.637695312 c 4,0,1
EndSplineSet
EndChar

StartChar: uniFEAA
Encoding: 65194 65194 180
Width: 1162
VWidth: 2311
GlyphClass: 2
Flags: W
AnchorPoint: "Anchor-10" 515.149 1289.65 basechar 0
AnchorPoint: "Anchor-7" 475.41 -246.98 basechar 0
LayerCount: 2
Fore
SplineSet
1169.37597656 185.479492188 m 2,0,1
 1217.37597656 184.000991638 1217.37597656 184.000991638 1217.37597656 108 c 2,2,-1
 1217.37597656 74 l 2,3,4
 1217 0 1217 0 1168.62011719 0 c 2,5,-1
 1137.85644531 0 l 2,6,7
 977 0 977 0 873.306640625 136.989257812 c 1,8,9
 751 -22 751 -22 405.526367188 -21.7431640625 c 0,10,11
 258 -22 258 -22 95.5849609375 34.3486328125 c 1,12,-1
 95.5849609375 222.038085938 l 1,13,14
 226 166 226 166 396.702148438 166.22265625 c 0,15,16
 640 166 640 166 722.692382812 248.98828125 c 0,17,18
 744 270 744 270 743.815429688 297.967773438 c 0,19,20
 743.997948049 325.688353145 743.997948049 325.688353145 727.919921875 358.47265625 c 2,21,-1
 480 864 l 1,22,-1
 628.970703125 959.772460938 l 5,23,-1
 890.375 399.999023438 l 6,24,25
 987.968601339 191.067219354 987.968601339 191.067219354 1141.03222656 186.352539062 c 2,26,-1
 1169.37597656 185.479492188 l 2,0,1
EndSplineSet
EndChar

StartChar: uniFEAE
Encoding: 65198 65198 184
Width: 966
VWidth: 2317
GlyphClass: 2
Flags: W
AnchorPoint: "Anchor-10" 501.618 933.71 basechar 0
AnchorPoint: "Anchor-7" 316.38 -688.85 basechar 0
LayerCount: 2
Fore
SplineSet
539.689453125 455.208984375 m 5,0,-1
 690.200195312 541.986328125 l 5,1,2
 717 426 717 426 758.278320312 262.284179688 c 4,3,4
 777.877929688 185.479492188 777.877929688 185.479492188 932.770507812 185.479492188 c 6,5,-1
 973.375976562 185.479492188 l 6,6,7
 1021.37597656 184.99609375 1021.37597656 184.99609375 1021.37597656 108 c 6,8,-1
 1021.37597656 74 l 6,9,10
 1021 -0.013671875 1021 -0.013671875 972.620117188 0 c 6,11,-1
 937.991210938 0.009765625 l 6,12,13
 811 0 811 0 763.02734375 50.390625 c 5,14,15
 683.953125 -532.346679688 683.953125 -532.346679688 83.630859375 -534.03125 c 6,16,-1
 81.1943359375 -534.038085938 l 5,17,-1
 26.484375 -398.100585938 l 5,18,19
 564 -360 564 -360 605.069335938 74.23828125 c 4,20,21
 614.35546875 176.950195312 614.35546875 176.950195312 539.689453125 455.208984375 c 5,0,-1
EndSplineSet
PairPos2: "'kern' Horizontal Kerning lookup 15-1" uni06CA dx=-85 dy=0 dh=-85 dv=0 dx=0 dy=0 dh=0 dv=0
PairPos2: "'kern' Horizontal Kerning lookup 15-1" uniFB90 dx=-307 dy=0 dh=-307 dv=0 dx=0 dy=0 dh=0 dv=0
PairPos2: "'kern' Horizontal Kerning lookup 15-1" uniFB8E dx=-307 dy=0 dh=-307 dv=0 dx=0 dy=0 dh=0 dv=0
PairPos2: "'kern' Horizontal Kerning lookup 15-1" uni06A9 dx=-307 dy=0 dh=-307 dv=0 dx=0 dy=0 dh=0 dv=0
PairPos2: "'kern' Horizontal Kerning lookup 15-1" uni064A dx=-106 dy=0 dh=-106 dv=0 dx=0 dy=0 dh=0 dv=0
PairPos2: "'kern' Horizontal Kerning lookup 15-1" afii57414 dx=-106 dy=0 dh=-106 dv=0 dx=0 dy=0 dh=0 dv=0
PairPos2: "'kern' Horizontal Kerning lookup 15-1" uniFBE8 dx=-212 dy=0 dh=-212 dv=0 dx=0 dy=0 dh=0 dv=0
PairPos2: "'kern' Horizontal Kerning lookup 15-1" uni0649 dx=-85 dy=0 dh=-85 dv=0 dx=0 dy=0 dh=0 dv=0
PairPos2: "'kern' Horizontal Kerning lookup 15-1" uni0648 dx=-85 dy=0 dh=-85 dv=0 dx=0 dy=0 dh=0 dv=0
PairPos2: "'kern' Horizontal Kerning lookup 15-1" afii57412 dx=-85 dy=0 dh=-85 dv=0 dx=0 dy=0 dh=0 dv=0
PairPos2: "'kern' Horizontal Kerning lookup 15-1" uniFEEB dx=-212 dy=0 dh=-212 dv=0 dx=0 dy=0 dh=0 dv=0
PairPos2: "'kern' Horizontal Kerning lookup 15-1" uni0647 dx=-212 dy=0 dh=-212 dv=0 dx=0 dy=0 dh=0 dv=0
PairPos2: "'kern' Horizontal Kerning lookup 15-1" uniFEE7 dx=-212 dy=0 dh=-212 dv=0 dx=0 dy=0 dh=0 dv=0
PairPos2: "'kern' Horizontal Kerning lookup 15-1" uni0646 dx=-159 dy=0 dh=-159 dv=0 dx=0 dy=0 dh=0 dv=0
PairPos2: "'kern' Horizontal Kerning lookup 15-1" uniFEE3 dx=-212 dy=0 dh=-212 dv=0 dx=0 dy=0 dh=0 dv=0
PairPos2: "'kern' Horizontal Kerning lookup 15-1" uni0645 dx=-212 dy=0 dh=-212 dv=0 dx=0 dy=0 dh=0 dv=0
PairPos2: "'kern' Horizontal Kerning lookup 15-1" uniFEFB dx=-212 dy=0 dh=-212 dv=0 dx=0 dy=0 dh=0 dv=0
PairPos2: "'kern' Horizontal Kerning lookup 15-1" uniFEDF dx=-212 dy=0 dh=-212 dv=0 dx=0 dy=0 dh=0 dv=0
PairPos2: "'kern' Horizontal Kerning lookup 15-1" uni0644 dx=-159 dy=0 dh=-159 dv=0 dx=0 dy=0 dh=0 dv=0
PairPos2: "'kern' Horizontal Kerning lookup 15-1" uniFEDB dx=-307 dy=0 dh=-307 dv=0 dx=0 dy=0 dh=0 dv=0
PairPos2: "'kern' Horizontal Kerning lookup 15-1" uni0643 dx=-212 dy=0 dh=-212 dv=0 dx=0 dy=0 dh=0 dv=0
PairPos2: "'kern' Horizontal Kerning lookup 15-1" uniFED7 dx=-212 dy=0 dh=-212 dv=0 dx=0 dy=0 dh=0 dv=0
PairPos2: "'kern' Horizontal Kerning lookup 15-1" uni0642 dx=-159 dy=0 dh=-159 dv=0 dx=0 dy=0 dh=0 dv=0
PairPos2: "'kern' Horizontal Kerning lookup 15-1" uniFED3 dx=-212 dy=0 dh=-212 dv=0 dx=0 dy=0 dh=0 dv=0
PairPos2: "'kern' Horizontal Kerning lookup 15-1" uni0641 dx=-212 dy=0 dh=-212 dv=0 dx=0 dy=0 dh=0 dv=0
PairPos2: "'kern' Horizontal Kerning lookup 15-1" uniFECF dx=-212 dy=0 dh=-212 dv=0 dx=0 dy=0 dh=0 dv=0
PairPos2: "'kern' Horizontal Kerning lookup 15-1" uniFECB dx=-212 dy=0 dh=-212 dv=0 dx=0 dy=0 dh=0 dv=0
PairPos2: "'kern' Horizontal Kerning lookup 15-1" uniFEC7 dx=-212 dy=0 dh=-212 dv=0 dx=0 dy=0 dh=0 dv=0
PairPos2: "'kern' Horizontal Kerning lookup 15-1" uni0638 dx=-212 dy=0 dh=-212 dv=0 dx=0 dy=0 dh=0 dv=0
PairPos2: "'kern' Horizontal Kerning lookup 15-1" uniFEC3 dx=-212 dy=0 dh=-212 dv=0 dx=0 dy=0 dh=0 dv=0
PairPos2: "'kern' Horizontal Kerning lookup 15-1" uni0637 dx=-212 dy=0 dh=-212 dv=0 dx=0 dy=0 dh=0 dv=0
PairPos2: "'kern' Horizontal Kerning lookup 15-1" uniFEBF dx=-212 dy=0 dh=-212 dv=0 dx=0 dy=0 dh=0 dv=0
PairPos2: "'kern' Horizontal Kerning lookup 15-1" uni0636 dx=-212 dy=0 dh=-212 dv=0 dx=0 dy=0 dh=0 dv=0
PairPos2: "'kern' Horizontal Kerning lookup 15-1" uniFEBB dx=-212 dy=0 dh=-212 dv=0 dx=0 dy=0 dh=0 dv=0
PairPos2: "'kern' Horizontal Kerning lookup 15-1" uni0635 dx=-212 dy=0 dh=-212 dv=0 dx=0 dy=0 dh=0 dv=0
PairPos2: "'kern' Horizontal Kerning lookup 15-1" uniFEB7 dx=-212 dy=0 dh=-212 dv=0 dx=0 dy=0 dh=0 dv=0
PairPos2: "'kern' Horizontal Kerning lookup 15-1" uni0634 dx=-212 dy=0 dh=-212 dv=0 dx=0 dy=0 dh=0 dv=0
PairPos2: "'kern' Horizontal Kerning lookup 15-1" uniFEB3 dx=-212 dy=0 dh=-212 dv=0 dx=0 dy=0 dh=0 dv=0
PairPos2: "'kern' Horizontal Kerning lookup 15-1" uni0633 dx=-212 dy=0 dh=-212 dv=0 dx=0 dy=0 dh=0 dv=0
PairPos2: "'kern' Horizontal Kerning lookup 15-1" uni0632 dx=-85 dy=0 dh=-85 dv=0 dx=0 dy=0 dh=0 dv=0
PairPos2: "'kern' Horizontal Kerning lookup 15-1" uni0631 dx=-85 dy=0 dh=-85 dv=0 dx=0 dy=0 dh=0 dv=0
PairPos2: "'kern' Horizontal Kerning lookup 15-1" uni0630 dx=-212 dy=0 dh=-212 dv=0 dx=0 dy=0 dh=0 dv=0
PairPos2: "'kern' Horizontal Kerning lookup 15-1" uni062F dx=-212 dy=0 dh=-212 dv=0 dx=0 dy=0 dh=0 dv=0
PairPos2: "'kern' Horizontal Kerning lookup 15-1" uniFEA7 dx=-212 dy=0 dh=-212 dv=0 dx=0 dy=0 dh=0 dv=0
PairPos2: "'kern' Horizontal Kerning lookup 15-1" uniFEA3 dx=-212 dy=0 dh=-212 dv=0 dx=0 dy=0 dh=0 dv=0
PairPos2: "'kern' Horizontal Kerning lookup 15-1" uniFE9F dx=-212 dy=0 dh=-212 dv=0 dx=0 dy=0 dh=0 dv=0
PairPos2: "'kern' Horizontal Kerning lookup 15-1" uniFE9B dx=-212 dy=0 dh=-212 dv=0 dx=0 dy=0 dh=0 dv=0
PairPos2: "'kern' Horizontal Kerning lookup 15-1" uni062B dx=-212 dy=0 dh=-212 dv=0 dx=0 dy=0 dh=0 dv=0
PairPos2: "'kern' Horizontal Kerning lookup 15-1" uniFE97 dx=-212 dy=0 dh=-212 dv=0 dx=0 dy=0 dh=0 dv=0
PairPos2: "'kern' Horizontal Kerning lookup 15-1" uni062A dx=-212 dy=0 dh=-212 dv=0 dx=0 dy=0 dh=0 dv=0
PairPos2: "'kern' Horizontal Kerning lookup 15-1" uni0629 dx=-212 dy=0 dh=-212 dv=0 dx=0 dy=0 dh=0 dv=0
PairPos2: "'kern' Horizontal Kerning lookup 15-1" uniFE91 dx=-85 dy=0 dh=-85 dv=0 dx=0 dy=0 dh=0 dv=0
PairPos2: "'kern' Horizontal Kerning lookup 15-1" uni0628 dx=-212 dy=0 dh=-212 dv=0 dx=0 dy=0 dh=0 dv=0
PairPos2: "'kern' Horizontal Kerning lookup 15-1" uni0627 dx=-212 dy=0 dh=-212 dv=0 dx=0 dy=0 dh=0 dv=0
PairPos2: "'kern' Horizontal Kerning lookup 15-1" uni0623 dx=-212 dy=0 dh=-212 dv=0 dx=0 dy=0 dh=0 dv=0
PairPos2: "'kern' Horizontal Kerning lookup 15-1" uni0622 dx=-212 dy=0 dh=-212 dv=0 dx=0 dy=0 dh=0 dv=0
PairPos2: "'kern' Horizontal Kerning lookup 15-1" uni0621 dx=-212 dy=0 dh=-212 dv=0 dx=0 dy=0 dh=0 dv=0
PairPos2: "'kern' Horizontal Kerning lookup 15-1" uniFB94 dx=-307 dy=0 dh=-307 dv=0 dx=0 dy=0 dh=0 dv=0
PairPos2: "'kern' Horizontal Kerning lookup 15-1" uniFB92 dx=-307 dy=0 dh=-307 dv=0 dx=0 dy=0 dh=0 dv=0
PairPos2: "'kern' Horizontal Kerning lookup 15-1" afii57509 dx=-307 dy=0 dh=-307 dv=0 dx=0 dy=0 dh=0 dv=0
PairPos2: "'kern' Horizontal Kerning lookup 15-1" afii57508 dx=-85 dy=0 dh=-85 dv=0 dx=0 dy=0 dh=0 dv=0
PairPos2: "'kern' Horizontal Kerning lookup 15-1" uniFB7C dx=-159 dy=0 dh=-159 dv=0 dx=0 dy=0 dh=0 dv=0
PairPos2: "'kern' Horizontal Kerning lookup 15-1" afii57506 dx=-212 dy=0 dh=-212 dv=0 dx=0 dy=0 dh=0 dv=0
PairPos2: "'kern' Horizontal Kerning lookup 15-1" afii57440 dx=-212 dy=0 dh=-212 dv=0 dx=0 dy=0 dh=0 dv=0
PairPos2: "'kern' Horizontal Kerning lookup 15-1" uniFE8B dx=-212 dy=0 dh=-212 dv=0 dx=0 dy=0 dh=0 dv=0
EndChar

StartChar: uniFEB2
Encoding: 65202 65202 188
Width: 2555
VWidth: 2311
GlyphClass: 2
Flags: W
AnchorPoint: "Anchor-10" 1687.64 1072.47 basechar 0
AnchorPoint: "Anchor-7" 638.95 -728.09 basechar 0
LayerCount: 2
Fore
SplineSet
1710.54980469 148.805664062 m 1,0,1
 1632 -0 1632 -0 1476.14160156 -0.31640625 c 0,2,3
 1385 0 1385 0 1300.55371094 51.03515625 c 1,4,5
 1298 -516 1298 -516 690.364257812 -517.545898438 c 0,6,7
 431 -518 431 -518 277 -400.520507812 c 0,8,9
 99 -264 99 -264 99.55859375 18.3544921875 c 0,10,11
 100 225 100 225 192.405273438 433.759765625 c 1,12,-1
 341.139648438 379.267578125 l 1,13,14
 261 184 261 184 260.893554688 35.2705078125 c 0,15,16
 261 -345 261 -345 693.024414062 -344.501953125 c 0,17,18
 1154 -344 1154 -344 1153.8515625 53.12109375 c 0,19,20
 1154 194 1154 194 1047.46191406 410.682617188 c 1,21,-1
 1184.29101562 530.477539062 l 1,22,23
 1185 529 1185 529 1287.19433594 286.931640625 c 16,24,25
 1332 181 1332 181 1472.12597656 181.26171875 c 0,26,27
 1614.45174733 182.002350794 1614.45174733 182.002350794 1633.12792969 373.455078125 c 2,28,-1
 1651.69335938 563.772460938 l 1,29,-1
 1769.70996094 563.772460938 l 1,30,-1
 1795.14941406 371.734375 l 2,31,32
 1820 183 1820 183 1984.00488281 182.434570312 c 0,33,34
 2136.22748228 181.999349604 2136.22748228 181.999349604 2153.12792969 373.455078125 c 2,35,-1
 2171.69335938 583.772460938 l 1,36,-1
 2289.70996094 583.772460938 l 1,37,-1
 2315.14941406 371.734375 l 2,38,39
 2337.04503832 190.627471168 2337.04503832 190.627471168 2515.20898438 186.962890625 c 2,40,-1
 2561.54785156 186.009765625 l 6,41,42
 2609.54785156 185.009422987 2609.54785156 185.009422987 2609.54785156 108.530273438 c 2,43,-1
 2609.54785156 74.5302734375 l 2,44,45
 2610.00288842 0.5302734375 2610.00288842 0.5302734375 2560.79199219 0.5302734375 c 2,46,-1
 2509.07128906 0.5302734375 l 2,47,48
 2300 1 2300 1 2229.78515625 138.01953125 c 1,49,50
 2155 3 2155 3 1984.52734375 2.6474609375 c 0,51,52
 1783 3 1783 3 1710.54980469 148.805664062 c 1,0,1
EndSplineSet
EndChar

StartChar: uniFEB3
Encoding: 65203 65203 189
Width: 1612
VWidth: 2311
GlyphClass: 2
Flags: W
AnchorPoint: "Anchor-10" 684.23 1013.89 basechar 0
AnchorPoint: "Anchor-7" 705.43 -198.22 basechar 0
LayerCount: 2
Fore
SplineSet
-3.6240234375 185.479492188 m 2,0,-1
 83.38671875 185.477539062 l 2,1,2
 301.745207121 185.00055657 301.745207121 185.00055657 319.513671875 375.888671875 c 2,3,-1
 336.953125 563.2421875 l 1,4,-1
 455.35546875 563.2421875 l 1,5,-1
 480.176757812 376.092773438 l 2,6,7
 506 182 506 182 682.7734375 181.791992188 c 0,8,9
 836.233703423 180.998792042 836.233703423 180.998792042 854.956054688 372.924804688 c 2,10,-1
 873.521484375 563.2421875 l 1,11,-1
 991.538085938 563.2421875 l 1,12,-1
 1017.47363281 371.538085938 l 2,13,14
 1044 176 1044 176 1200.66015625 177.944335938 c 0,15,16
 1292 179 1292 179 1328.04101562 248.939453125 c 4,17,18
 1371 331 1371 331 1345.71679688 491.670898438 c 4,19,20
 1333 572 1333 572 1306.02636719 689.536132812 c 5,21,-1
 1463.20117188 739.905273438 l 5,22,23
 1505 621 1505 621 1515.609375 466.11328125 c 4,24,25
 1545 3 1545 3 1202.52734375 0.5302734375 c 0,26,27
 1016 -1 1016 -1 932.377929688 148.275390625 c 1,28,29
 855 -0 855 -0 678.619140625 0.22265625 c 0,30,31
 474 1 474 1 389.09375 136.830078125 c 1,32,33
 288 0 288 0 80.779296875 0 c 2,34,-1
 -4 0 l 2,35,36
 -51.6240234375 0 -51.6240234375 0 -51.6240234375 74 c 2,37,-1
 -51.6240234375 108 l 2,38,39
 -52 185 -52 185 -3.6240234375 185.479492188 c 2,0,-1
EndSplineSet
EndChar

StartChar: uniFEB4
Encoding: 65204 65204 190
Width: 1776
VWidth: 2306
GlyphClass: 2
Flags: W
AnchorPoint: "Anchor-10" 705.43 1008.59 basechar 0
AnchorPoint: "Anchor-7" 804.01 -219.42 basechar 0
LayerCount: 2
Fore
SplineSet
1536.97753906 371.204101562 m 6,0,1
 1558.70558326 190.100644615 1558.70558326 190.100644615 1737.03710938 186.432617188 c 6,2,-1
 1783.37597656 185.479492188 l 6,3,4
 1831.37597656 183.988319878 1831.37597656 183.988319878 1831.37597656 108 c 6,5,-1
 1831.37597656 74 l 6,6,7
 1831 0 1831 0 1782.62011719 0 c 6,8,-1
 1730.89941406 0 l 6,9,10
 1522 0 1522 0 1451.61328125 137.489257812 c 5,11,12
 1377 2 1377 2 1206.35546875 2.1171875 c 4,13,14
 1005 2 1005 2 932.377929688 148.275390625 c 5,15,16
 846 1 846 1 681.798828125 1.2822265625 c 0,17,18
 473 2 473 2 389.09375 136.830078125 c 1,19,20
 288 0 288 0 80.779296875 0 c 2,21,-1
 -4 0 l 2,22,23
 -51.6240234375 0 -51.6240234375 0 -51.6240234375 74 c 2,24,-1
 -51.6240234375 108 l 2,25,26
 -52.0023465729 185.480578134 -52.0023465729 185.480578134 -3.6240234375 185.479492188 c 2,27,-1
 83.38671875 185.477539062 l 2,28,29
 301.745207121 185.00055657 301.745207121 185.00055657 319.513671875 375.888671875 c 2,30,-1
 336.953125 563.2421875 l 1,31,-1
 455.35546875 563.2421875 l 1,32,-1
 480.176757812 376.092773438 l 2,33,34
 506 182 506 182 682.7734375 181.791992188 c 0,35,36
 836.233703423 180.998792042 836.233703423 180.998792042 854.956054688 372.924804688 c 6,37,-1
 873.521484375 563.2421875 l 5,38,-1
 991.538085938 563.2421875 l 5,39,-1
 1016.97753906 371.204101562 l 6,40,41
 1042 182 1042 182 1205.83300781 181.904296875 c 4,42,43
 1358.01419289 180.999915655 1358.01419289 180.999915655 1374.95605469 372.924804688 c 6,44,-1
 1393.52148438 583.2421875 l 5,45,-1
 1511.53808594 583.2421875 l 5,46,-1
 1536.97753906 371.204101562 l 6,0,1
EndSplineSet
EndChar

StartChar: uniFEBA
Encoding: 65210 65210 196
Width: 2610
VWidth: 2311
GlyphClass: 2
Flags: W
AnchorPoint: "Anchor-10" 1687.64 1072.47 basechar 0
AnchorPoint: "Anchor-7" 638.95 -728.09 basechar 0
LayerCount: 2
Fore
SplineSet
1726.72167969 -0.7109375 m 2,0,-1
 1533.25195312 0 l 2,1,2
 1397.04431289 0.500518199651 1397.04431289 0.500518199651 1300.55371094 51.03515625 c 1,3,4
 1298 -516 1298 -516 690.364257812 -517.545898438 c 0,5,6
 431 -518 431 -518 277 -400.520507812 c 0,7,8
 99 -264 99 -264 99.55859375 18.3544921875 c 0,9,10
 100 225 100 225 192.405273438 433.759765625 c 1,11,-1
 341.139648438 379.267578125 l 1,12,13
 261 184 261 184 260.893554688 35.2705078125 c 0,14,15
 261 -345 261 -345 693.024414062 -344.501953125 c 0,16,17
 1154 -344 1154 -344 1153.8515625 53.12109375 c 0,18,19
 1154 194 1154 194 1047.46191406 410.682617188 c 1,20,-1
 1184.29101562 530.477539062 l 1,21,22
 1203 480 1203 480 1287.19433594 286.931640625 c 0,23,24
 1311 233 1311 233 1364.87695312 224.975585938 c 1,25,26
 1731 757 1731 757 2067.03613281 757.189453125 c 0,27,28
 2219 757 2219 757 2314.14648438 669.135742188 c 0,29,30
 2415.62309206 574.486103539 2415.62309206 574.486103539 2415.45898438 422.947265625 c 0,31,32
 2415 291 2415 291 2343.80664062 185.189453125 c 1,33,-1
 2572.28710938 185.19140625 l 2,34,-1
 2617.18261719 184.768554688 l 2,35,36
 2665.18261719 183.997064848 2665.18261719 183.997064848 2665.18261719 107.2890625 c 2,37,-1
 2665.18261719 73.2890625 l 2,38,39
 2665.00071057 -0.7109375 2665.00071057 -0.7109375 2616.42675781 -0.7109375 c 2,40,-1
 2560.21191406 -0.7109375 l 2,41,42
 2274 -1 2274 -1 2200.80664062 81.2890625 c 1,43,44
 2049.18973518 -1.89590135595 2049.18973518 -1.89590135595 1726.72167969 -0.7109375 c 2,0,-1
1527.20605469 184.91796875 m 1,45,-1
 1709.99121094 184.91796875 l 2,46,47
 1976 185 1976 185 2099.81542969 232.807617188 c 0,48,49
 2250.44543602 291.96032771 2250.44543602 291.96032771 2237.85742188 428.157226562 c 0,50,51
 2232.75650122 479.448450239 2232.75650122 479.448450239 2206.1953125 513.896484375 c 0,52,53
 2157 577 2157 577 2061.78710938 577.580078125 c 0,54,55
 1935 578 1935 578 1798.890625 471.709960938 c 0,56,57
 1687 385 1687 385 1527.20605469 184.91796875 c 1,45,-1
EndSplineSet
EndChar

StartChar: uniFEBB
Encoding: 65211 65211 197
Width: 1690
VWidth: 2311
GlyphClass: 2
Flags: W
AnchorPoint: "Anchor-10" 934.378 1097.17 basechar 0
AnchorPoint: "Anchor-7" 680.518 -265 basechar 0
LayerCount: 2
Fore
SplineSet
-3.6240234375 185.479492188 m 2,0,-1
 48.509765625 185.478515625 l 2,1,2
 252.178337162 184.999580633 252.178337162 184.999580633 256.426757812 369.384765625 c 2,3,-1
 261.544921875 591.517578125 l 1,4,-1
 414.928710938 618.0234375 l 1,5,-1
 422.115234375 368.143554688 l 2,6,7
 426 247 426 247 544.0703125 225.686523438 c 1,8,9
 908 758 908 758 1246.22949219 757.900390625 c 0,10,11
 1399 758 1399 758 1493.33984375 669.846679688 c 0,12,13
 1593 578 1593 578 1594.65234375 423.658203125 c 0,14,15
 1596 231 1596 231 1434.03125 114.374023438 c 0,16,17
 1276 0 1276 0 905.915039062 0 c 2,18,-1
 753.72265625 0 l 2,19,20
 472 0 472 0 339.706054688 133.088867188 c 1,21,22
 240 0 240 0 47.830078125 0 c 6,23,-1
 -4 0 l 2,24,25
 -51.6240234375 0 -51.6240234375 0 -51.6240234375 74 c 2,26,-1
 -51.6240234375 108 l 2,27,28
 -52 185 -52 185 -3.6240234375 185.479492188 c 2,0,-1
706.399414062 185.62890625 m 1,29,-1
 889.184570312 185.62890625 l 2,30,31
 1157.95788607 186.00412938 1157.95788607 186.00412938 1279.00878906 233.518554688 c 0,32,33
 1428 292 1428 292 1417.05078125 428.868164062 c 0,34,35
 1413 478 1413 478 1385.38867188 514.607421875 c 0,36,37
 1337 578 1337 578 1240.98046875 578.291015625 c 0,38,39
 1115 579 1115 579 978.083984375 472.420898438 c 0,40,41
 867 386 867 386 706.399414062 185.62890625 c 1,29,-1
EndSplineSet
EndChar

StartChar: uniFEBC
Encoding: 65212 65212 198
Width: 1789
VWidth: 2311
GlyphClass: 2
Flags: W
AnchorPoint: "Anchor-7" 680.518 -265 basechar 0
AnchorPoint: "Anchor-10" 934.378 1097.17 basechar 0
LayerCount: 2
Fore
SplineSet
-3.6240234375 185.479492188 m 2,0,-1
 48.509765625 185.478515625 l 2,1,2
 252.178337162 184.999580633 252.178337162 184.999580633 256.426757812 369.384765625 c 2,3,-1
 261.544921875 591.517578125 l 1,4,-1
 414.928710938 618.0234375 l 1,5,-1
 422.115234375 368.143554688 l 2,6,7
 426 247 426 247 544.0703125 225.686523438 c 1,8,9
 909 758 909 758 1246.22949219 757.900390625 c 0,10,11
 1399 758 1399 758 1493.33984375 669.846679688 c 0,12,13
 1594 577 1594 577 1594.65234375 423.658203125 c 0,14,15
 1595 292 1595 292 1523 185.9 c 1,16,17
 1751.48046875 185.90234375 l 2,18,-1
 1796.37597656 185.479492188 l 2,19,20
 1844.37597656 184.996214561 1844.37597656 184.996214561 1844.37597656 108 c 2,21,-1
 1844.37597656 74 l 2,22,23
 1844 0 1844 0 1795.62011719 0 c 2,24,-1
 1739.40527344 0 l 2,25,26
 1454 0 1454 0 1380 82 c 1,27,28
 1228 0 1228 0 905.915039062 0 c 2,29,-1
 752.72265625 0 l 2,30,31
 472 0 472 0 339.706054688 133.088867188 c 1,32,33
 240 0 240 0 47.830078125 0 c 6,34,-1
 -4 0 l 2,35,36
 -51.6240234375 0 -51.6240234375 0 -51.6240234375 74 c 2,37,-1
 -51.6240234375 108 l 2,38,39
 -52 185 -52 185 -3.6240234375 185.479492188 c 2,0,-1
706.399414062 185.62890625 m 1,40,-1
 889.184570312 185.62890625 l 2,41,42
 1157.95788607 186.00412938 1157.95788607 186.00412938 1279.00878906 233.518554688 c 0,43,44
 1428 292 1428 292 1417.05078125 428.868164062 c 0,45,46
 1413 478 1413 478 1385.38867188 514.607421875 c 0,47,48
 1337 578 1337 578 1240.98046875 578.291015625 c 0,49,50
 1115 579 1115 579 978.083984375 472.420898438 c 0,51,52
 867 386 867 386 706.399414062 185.62890625 c 1,40,-1
EndSplineSet
EndChar

StartChar: uniFEC2
Encoding: 65218 65218 204
Width: 1672
VWidth: 2311
GlyphClass: 2
Flags: W
AnchorPoint: "Anchor-7" 732.918 -235.32 basechar 0
AnchorPoint: "Anchor-10" 335.13 1553.42 basechar 0
LayerCount: 2
Fore
SplineSet
1262.99023438 82 m 5,0,1
 1111 0 1111 0 788.905273438 0 c 2,2,-1
 683 0 l 2,3,4
 238 0 238 0 68 32 c 9,5,-1
 67.2548828125 185.477539062 l 1,6,-1
 294.129882812 185.479492188 l 1,7,-1
 261.3046875 1417.67480469 l 1,8,-1
 436.149414062 1487.00488281 l 1,9,-1
 436.043945312 255.59375 l 1,10,11
 801 758 801 758 1129.21972656 757.900390625 c 0,12,13
 1280 758 1280 758 1376.33007812 669.846679688 c 0,14,15
 1477 577 1477 577 1477.64257812 423.658203125 c 0,16,17
 1478 298 1478 298 1405.99023438 185.900390625 c 5,18,-1
 1634.47070312 185.90234375 l 6,19,-1
 1679.36621094 185.479492188 l 6,20,21
 1727.36621094 184.99631364 1727.36621094 184.99631364 1727.36621094 108 c 6,22,-1
 1727.36621094 74 l 6,23,24
 1727 0 1727 0 1678.61035156 0 c 6,25,-1
 1622.39550781 0 l 6,26,27
 1337 0 1337 0 1262.99023438 82 c 5,0,1
589.390625 185.62890625 m 1,28,-1
 772.174804688 185.62890625 l 2,29,30
 1038 186 1038 186 1161.99902344 233.518554688 c 0,31,32
 1311 292 1311 292 1300.04101562 428.868164062 c 0,33,34
 1296 478 1296 478 1268.37890625 514.607421875 c 0,35,36
 1220 578 1220 578 1123.97070312 578.291015625 c 0,37,38
 998 579 998 579 861.075195312 472.420898438 c 0,39,40
 750 386 750 386 589.390625 185.62890625 c 1,28,-1
EndSplineSet
EndChar

StartChar: uniFEC3
Encoding: 65219 65219 205
Width: 1472
VWidth: 2311
GlyphClass: 2
Flags: W
AnchorPoint: "Anchor-7" 595.363 -234.3 basechar 0
AnchorPoint: "Anchor-10" 235.043 1546.92 basechar 0
LayerCount: 2
Fore
SplineSet
-3.6240234375 185.479492188 m 2,0,-1
 189.9296875 185.479492188 l 1,1,-1
 157.104492188 1417.67480469 l 5,2,-1
 331.950195312 1487.00488281 l 5,3,-1
 331.84375 255.59375 l 1,4,5
 696 758 696 758 1025.01953125 757.900390625 c 0,6,7
 1176 758 1176 758 1272.13085938 669.846679688 c 0,8,9
 1372 578 1372 578 1373.44238281 423.658203125 c 0,10,11
 1375 229 1375 229 1212.82128906 114.374023438 c 0,12,13
 1050 0 1050 0 684.705078125 0 c 2,14,-1
 -4 0 l 2,15,16
 -51.6240234375 0 -51.6240234375 0 -51.6240234375 74 c 2,17,-1
 -51.6240234375 108 l 2,18,19
 -52 185 -52 185 -3.6240234375 185.479492188 c 2,0,-1
485.190429688 185.62890625 m 1,20,-1
 667.974609375 185.62890625 l 2,21,22
 937 186 937 186 1057.79882812 233.518554688 c 0,23,24
 1208.40853655 293.561535736 1208.40853655 293.561535736 1195.84179688 428.868164062 c 0,25,26
 1191 481 1191 481 1164.17871094 514.607421875 c 0,27,28
 1116 578 1116 578 1019.77050781 578.291015625 c 0,29,30
 894 579 894 579 756.875 472.420898438 c 0,31,32
 645 386 645 386 485.190429688 185.62890625 c 1,20,-1
EndSplineSet
EndChar

StartChar: uniFEC4
Encoding: 65220 65220 206
Width: 1568
VWidth: 2311
GlyphClass: 2
Flags: W
AnchorPoint: "Anchor-7" 595.363 -234.3 basechar 0
AnchorPoint: "Anchor-10" 235.043 1546.92 basechar 0
LayerCount: 2
Fore
SplineSet
1158.79003906 82 m 1,0,1
 1009 0 1009 0 684.705078125 0 c 2,2,-1
 -4 0 l 2,3,4
 -51.6240234375 0 -51.6240234375 0 -51.6240234375 74 c 2,5,-1
 -51.6240234375 108 l 2,6,7
 -52.0023412704 185.479492188 -52.0023412704 185.479492188 -3.6240234375 185.479492188 c 2,8,-1
 189.9296875 185.479492188 l 1,9,-1
 157.104492188 1417.67480469 l 1,10,-1
 331.950195312 1487.00488281 l 1,11,-1
 331.84375 255.59375 l 1,12,13
 696 758 696 758 1025.01953125 757.900390625 c 0,14,15
 1176 758 1176 758 1272.13085938 669.846679688 c 0,16,17
 1373 577 1373 577 1373.44238281 423.658203125 c 0,18,19
 1374 295 1374 295 1301.79003906 185.900390625 c 1,20,-1
 1530.27050781 185.90234375 l 2,21,-1
 1575.16601562 185.479492188 l 2,22,23
 1623.16601562 184.998335844 1623.16601562 184.998335844 1623.16601562 108 c 2,24,-1
 1623.16601562 74 l 2,25,26
 1623 0 1623 0 1574.41015625 0 c 2,27,-1
 1518.1953125 0 l 2,28,29
 1233 0 1233 0 1158.79003906 82 c 1,0,1
485.190429688 185.62890625 m 1,30,-1
 667.974609375 185.62890625 l 2,31,32
 937 186 937 186 1057.79882812 233.518554688 c 0,33,34
 1208.40853655 293.561535736 1208.40853655 293.561535736 1195.84179688 428.868164062 c 0,35,36
 1191 481 1191 481 1164.17871094 514.607421875 c 0,37,38
 1116 578 1116 578 1019.77050781 578.291015625 c 0,39,40
 894 579 894 579 756.875 472.420898438 c 0,41,42
 645 386 645 386 485.190429688 185.62890625 c 1,30,-1
EndSplineSet
EndChar

StartChar: uniFECA
Encoding: 65226 65226 212
Width: 1218
VWidth: 2311
GlyphClass: 2
Flags: W
AnchorPoint: "Anchor-7" 584.525 -813.648 basechar 0
AnchorPoint: "Anchor-10" 603.4 1212.21 basechar 0
LayerCount: 2
Fore
SplineSet
1225.37597656 185.479492188 m 2,0,1
 1273.37597656 185.094103722 1273.37597656 185.094103722 1273.37597656 108 c 2,2,-1
 1273.37597656 74 l 2,3,4
 1272.99758174 -0.475964618275 1272.99758174 -0.475964618275 1224.62011719 0 c 2,5,-1
 1170.72265625 0.5302734375 l 2,6,7
 807 4 807 4 569.360351562 238.888671875 c 1,8,-1
 557.723632812 236.919921875 l 1,9,10
 270 81 270 81 265.084960938 -140.095703125 c 24,11,12
 262 -293 262 -293 378.986328125 -387.198242188 c 0,13,14
 493 -479 493 -479 776.735351562 -479.671875 c 0,15,16
 923 -480 923 -480 1070.33105469 -438.1875 c 1,17,-1
 1114.33984375 -593.599609375 l 5,18,19
 933 -649 933 -649 778.907226562 -648.865234375 c 0,20,21
 551 -649 551 -649 389 -581 c 0,22,23
 96 -458 96 -458 96.4599609375 -143.330078125 c 0,24,25
 97 134 97 134 457.459960938 348.280273438 c 1,26,27
 170 546 170 546 176.87890625 682.350585938 c 0,28,29
 188 908 188 908 622.219726562 908.586914062 c 0,30,31
 1051 909 1051 909 1051.51953125 672.955078125 c 0,32,33
 1052 500 1052 500 717.583007812 323.015625 c 1,34,35
 887.759946296 188.190186439 887.759946296 188.190186439 1172.70996094 185.90234375 c 2,36,-1
 1225.37597656 185.479492188 l 2,0,1
889.19921875 648.767578125 m 0,37,38
 889 745 889 745 621.862304688 745.178710938 c 0,39,40
 365.230028572 744.249132756 365.230028572 744.249132756 366.925770231 676 c 0,41,42
 368.832557968 599.256818814 368.832557968 599.256818814 601.885742188 435.309570312 c 1,43,44
 718 486 718 486 813.651367188 561.602539062 c 0,45,46
 889 620 889 620 889.19921875 648.767578125 c 0,37,38
EndSplineSet
EndChar

StartChar: uniFECB
Encoding: 65227 65227 213
Width: 974
VWidth: 2311
GlyphClass: 2
Flags: W
AnchorPoint: "Anchor-10" 488.841 1130.38 basechar 0
AnchorPoint: "Anchor-7" 483.696 -239.05 basechar 0
LayerCount: 2
Fore
SplineSet
-3.6240234375 185.479492188 m 2,0,-1
 249.887695312 185.51953125 l 1,1,2
 125 296 125 296 125.61328125 471.392578125 c 4,3,4
 126 591 126 591 185 681.211914062 c 4,5,6
 291 841 291 841 493.859375 840.854492188 c 4,7,8
 703 841 703 841 824.549804688 672.555664062 c 5,9,-1
 733 559 l 5,10,11
 633 661 633 661 514.957550217 661.700450563 c 28,12,13
 376 662 376 662 317 569 c 4,14,15
 292 529 292 529 292.17626923 464.188648005 c 0,16,17
 292 421 292 421 311.138671875 373 c 4,18,19
 347 282 347 282 457.374023438 216.703125 c 0,20,21
 474 207 474 207 508.665009985 206.986057979 c 0,22,23
 554.926628372 206.999977923 554.926628372 206.999977923 633.258789062 224.151367188 c 2,24,-1
 877.919921875 277.721679688 l 1,25,-1
 877.919921875 110.21484375 l 1,26,27
 449.710440926 -0.0745786921133 449.710440926 -0.0745786921133 96.998046875 -0.0166015625 c 2,28,-1
 -4 0 l 2,29,30
 -51.6240234375 0 -51.6240234375 0 -51.6240234375 74 c 2,31,-1
 -51.6240234375 108 l 2,32,33
 -52 185 -52 185 -3.6240234375 185.479492188 c 2,0,-1
EndSplineSet
EndChar

StartChar: uniFECC
Encoding: 65228 65228 214
Width: 1079
VWidth: 2311
GlyphClass: 2
Flags: W
AnchorPoint: "Anchor-10" 508.215 1135.79 basechar 0
AnchorPoint: "Anchor-7" 537.375 -203.35 basechar 0
LayerCount: 2
Fore
SplineSet
-3.6240234375 185.479492188 m 2,0,-1
 83.4794921875 185.479492188 l 2,1,2
 330 185 330 185 427.421875 238.689453125 c 5,3,4
 113 377 113 377 112.099609375 559.436523438 c 4,5,6
 112 578 112 578 116.538085938 598.217773438 c 4,7,8
 151 750 151 750 379.90625 784.041992188 c 4,9,10
 467 797 467 797 556.774414062 796.592773438 c 4,11,12
 644 797 644 797 722.055664062 787.2421875 c 4,13,14
 923 763 923 763 979.560546875 651.916015625 c 4,15,16
 1000 612 1000 612 1000.20898438 571.081054688 c 4,17,18
 1001 398 1001 398 708.493164062 237.9453125 c 5,19,20
 825.934911596 185.475849667 825.934911596 185.475849667 1021.67480469 185.478515625 c 2,21,-1
 1093.37597656 185.479492188 l 2,22,23
 1141.37597656 184.996214561 1141.37597656 184.996214561 1141.37597656 108 c 2,24,-1
 1141.37597656 74 l 2,25,26
 1140.99828266 -0.338008490281 1140.99828266 -0.338008490281 1092.62011719 0 c 2,27,-1
 1016.72363281 0.5302734375 l 2,28,29
 754 2 754 2 569.111328125 142.913085938 c 5,30,31
 383 0 383 0 77.232421875 0 c 2,32,-1
 -4 0 l 2,33,34
 -51.6240234375 0 -51.6240234375 0 -51.6240234375 74 c 2,35,-1
 -51.6240234375 108 l 2,36,37
 -52 185 -52 185 -3.6240234375 185.479492188 c 2,0,-1
839.673828125 534.745117188 m 4,38,39
 839 631 839 631 555.291992188 630.907226562 c 4,40,41
 271 630 271 630 270.529296875 547.09765625 c 4,42,43
 270 498 270 498 471.499023438 387.603515625 c 4,44,45
 522 360 522 360 572.395507812 336.267578125 c 5,46,47
 666 376 666 376 768.177734375 450.391601562 c 4,48,49
 839 502 839 502 839.673828125 534.745117188 c 4,38,39
EndSplineSet
EndChar

StartChar: uniFEDA
Encoding: 65242 65242 228
Width: 1956
VWidth: 2311
GlyphClass: 2
Flags: W
AnchorPoint: "Anchor-7" 798.06 -201.16 basechar 0
AnchorPoint: "Anchor-10" 934.52 1470.01 basechar 0
LayerCount: 2
Fore
SplineSet
1962.62011719 0 m 2,0,-1
 1924.03710938 0.5302734375 l 2,1,2
 1737 3 1737 3 1610.71875 128.477539062 c 1,3,4
 1490 55 1490 55 1322.71875 27.490234375 c 0,5,6
 1161 1 1161 1 913.143554688 1.041015625 c 0,7,8
 561 1 561 1 411.7421875 64.771484375 c 0,9,10
 264 127 264 127 187.387695312 226.663085938 c 0,11,12
 113 324 113 324 101.422851562 465.737304688 c 0,13,14
 90 606 90 606 130.734375 751.975585938 c 1,15,-1
 272.969726562 714.446289062 l 1,16,17
 250 567 250 567 252.486328125 507.09375 c 0,18,19
 266 248 266 248 593.475585938 200.705078125 c 0,20,21
 674 189 674 189 879.3515625 188.149414062 c 0,22,23
 1091 188 1091 188 1202.02734375 193.40234375 c 0,24,25
 1608.01167677 211.000506152 1608.01167677 211.000506152 1597.87011719 466.272460938 c 2,26,-1
 1559.99121094 1419.71777344 l 5,27,-1
 1738.71777344 1487.50097656 l 5,28,-1
 1738.71777344 434.368164062 l 1,29,30
 1736 338 1736 338 1712.28710938 267.416992188 c 1,31,32
 1771.61925487 188.506383675 1771.61925487 188.506383675 1936.58789062 185.90234375 c 2,33,-1
 1963.37597656 185.479492188 l 2,34,35
 2011.37597656 184.996214561 2011.37597656 184.996214561 2011.37597656 108 c 2,36,-1
 2011.37597656 74 l 2,37,38
 2011 -1 2011 -1 1962.62011719 0 c 2,0,-1
732.576171875 784.887695312 m 2,39,40
 800.572265625 775.920898438 800.572265625 775.920898438 859.859375 776.087890625 c 0,41,42
 926.440429688 775.919921875 926.440429688 775.919921875 966.28125 791.7421875 c 0,43,44
 1044.09960938 822.559570312 1044.09960938 822.559570312 1043.51757812 869.092773438 c 0,45,46
 1043.04003906 892.51953125 1043.04003906 892.51953125 1023.1484375 907.950195312 c 0,47,48
 1002.75976562 923.259765625 1002.75976562 923.259765625 955.814453125 931.329101562 c 0,49,50
 886.16015625 942.33984375 886.16015625 942.33984375 850.266601562 981.633789062 c 0,51,52
 814.080078125 1021.83984375 814.080078125 1021.83984375 815.541015625 1076.2421875 c 0,53,54
 818.3203125 1178.71972656 818.3203125 1178.71972656 907.43359375 1224.10742188 c 0,55,56
 990.977539062 1266.63769531 990.977539062 1266.63769531 1112.80957031 1274.359375 c 2,57,-1
 1129.71582031 1275.43066406 l 1,58,-1
 1129.71582031 1182.32324219 l 1,59,-1
 1114.98535156 1181.23632812 l 2,60,61
 1039.86035156 1175.54003906 1039.86035156 1175.54003906 1002.64746094 1161.69726562 c 0,62,63
 911.599609375 1127.83984375 911.599609375 1127.83984375 911.950195312 1079.66308594 c 0,64,65
 911.599609375 1037.74023438 911.599609375 1037.74023438 954.403320312 1023.06542969 c 0,66,67
 978.379882812 1014.41992188 978.379882812 1014.41992188 1024.33691406 1007.75097656 c 0,68,69
 1139.5 990.040039062 1139.5 990.040039062 1139.55273438 876.780273438 c 0,70,71
 1139.5 779.099609375 1139.5 779.099609375 1027.10253906 715.190429688 c 0,72,73
 919.334960938 653.141601562 919.334960938 653.141601562 727.874023438 685.163085938 c 2,74,-1
 714.59765625 687.383789062 l 1,75,-1
 714.59765625 787.258789062 l 1,76,-1
 732.576171875 784.887695312 l 2,39,40
EndSplineSet
EndChar

StartChar: uniFEDB
Encoding: 65243 65243 229
Width: 926
VWidth: 2311
GlyphClass: 2
Flags: W
AnchorPoint: "Anchor-10" 222.07 1465.98 basechar 0
AnchorPoint: "Anchor-7" 326.48 -240.62 basechar 0
LayerCount: 2
Fore
SplineSet
-3.6240234375 185.479492188 m 2,0,-1
 255.329101562 185.637695312 l 2,1,2
 481 186 481 186 510.853515625 329.215820312 c 0,3,4
 527.929734674 410.664853043 527.929734674 410.664853043 446.944335938 500.44921875 c 2,5,-1
 64 925 l 1,6,7
 59.6442272225 1007.03372064 59.6442272225 1007.03372064 75.8422739749 1078 c 0,8,9
 87.2808684802 1128.11434437 87.2808684802 1128.11434437 136 1152.81567693 c 2,10,-1
 873.985351562 1526.98535156 l 1,11,-1
 873.985351562 1342.93359375 l 1,12,-1
 216.974609375 1005.1015625 l 1,13,-1
 565.220703125 620.109375 l 2,14,15
 698 473 698 473 659.227539062 286.499023438 c 0,16,17
 599 0 599 0 220.52734375 0 c 2,18,-1
 -4 0 l 2,19,20
 -51.6240234375 0 -51.6240234375 0 -51.6240234375 74 c 2,21,-1
 -51.6240234375 108 l 2,22,23
 -52 185 -52 185 -3.6240234375 185.479492188 c 2,0,-1
EndSplineSet
EndChar

StartChar: uniFEDC
Encoding: 65244 65244 230
Width: 1090
VWidth: 2311
GlyphClass: 2
Flags: W
AnchorPoint: "Anchor-10" 222.07 1465.98 basechar 0
AnchorPoint: "Anchor-7" 339.2 -240.02 basechar 0
LayerCount: 2
Fore
SplineSet
873.985351562 1526.98535156 m 5,0,-1
 873.985351562 1342.93359375 l 1,1,-1
 216.974609375 1005.1015625 l 1,2,-1
 866.834960938 283.708984375 l 2,3,4
 954.430391264 186.522483986 954.430391264 186.522483986 1052.27148438 185.80859375 c 2,5,-1
 1097.37597656 185.479492188 l 2,6,7
 1145.37597656 184.996214561 1145.37597656 184.996214561 1145.37597656 108 c 2,8,-1
 1145.37597656 74 l 2,9,10
 1145.0023827 -0.524696827877 1145.0023827 -0.524696827877 1096.62011719 0 c 2,11,-1
 1047.72363281 0.5302734375 l 2,12,13
 858 3 858 3 653.04296875 272.512695312 c 1,14,15
 619 0 619 0 222.927734375 0 c 2,16,-1
 -4 0 l 2,17,18
 -51.6240234375 0 -51.6240234375 0 -51.6240234375 74 c 2,19,-1
 -51.6240234375 108 l 2,20,21
 -52.0021969548 185.449936344 -52.0021969548 185.449936344 -3.6240234375 185.479492188 c 2,22,-1
 255.329101562 185.637695312 l 2,23,24
 479 186 479 186 510.853515625 329.215820312 c 0,25,26
 529.0868804 409.381984814 529.0868804 409.381984814 446.944335938 500.44921875 c 2,27,-1
 64 925 l 5,28,29
 60 1007 60 1007 75.841796875 1078 c 4,30,31
 86.992872703 1127.96806252 86.992872703 1127.96806252 136 1152.81542969 c 6,32,-1
 873.985351562 1526.98535156 l 5,0,-1
EndSplineSet
EndChar

StartChar: uniFEDE
Encoding: 65246 65246 232
Width: 1500
VWidth: 2311
GlyphClass: 2
Flags: W
AnchorPoint: "Anchor-10" 680.11 1134.51 basechar 0
AnchorPoint: "Anchor-7" 603.612 -721.916 basechar 0
LayerCount: 2
Fore
SplineSet
1082.83203125 142.38671875 m 2,0,1
 1058.77539062 1414.60839844 l 5,2,-1
 1231.49707031 1486.171875 l 5,3,-1
 1231.49707031 415.399414062 l 2,4,5
 1230.99937556 187.714329495 1230.99937556 187.714329495 1455.08300781 185.90234375 c 2,6,-1
 1507.37597656 185.479492188 l 2,7,8
 1555.37597656 184.996214561 1555.37597656 184.996214561 1555.37597656 108 c 2,9,-1
 1555.37597656 74 l 2,10,11
 1555.00159114 -0.682597769513 1555.00159114 -0.682597769513 1506.62011719 0 c 2,12,-1
 1469.03515625 0.5302734375 l 2,13,14
 1291 3 1291 3 1225.27441406 67.3798828125 c 1,15,16
 1220 -486 1220 -486 660.364257812 -487.545898438 c 0,17,18
 424 -488 424 -488 279 -376.520507812 c 0,19,20
 89 -230 89 -230 89.55859375 48.3544921875 c 0,21,22
 90 232 90 232 192.405273438 463.759765625 c 1,23,-1
 341.139648438 409.267578125 l 1,24,25
 261 214 261 214 260.893554688 65.2705078125 c 0,26,27
 261 -88 261 -88 351 -198 c 0,28,29
 446 -314 446 -314 663.024414062 -314.501953125 c 0,30,31
 1091 -315 1091 -315 1082.83203125 142.38671875 c 2,0,1
EndSplineSet
EndChar

StartChar: uniFEDF
Encoding: 65247 65247 233
Width: 561
VWidth: 2311
GlyphClass: 2
Flags: W
AnchorPoint: "Anchor-10" 336.773 1561.4 basechar 0
AnchorPoint: "Anchor-7" 247.754 -202.99 basechar 0
LayerCount: 2
Fore
SplineSet
-3.6240234375 185.479492188 m 2,0,-1
 38.0009765625 185.479492188 l 2,1,2
 288.499297922 184.999042358 288.499297922 184.999042358 279.08984375 479.5546875 c 2,3,-1
 249.323242188 1411.375 l 1,4,-1
 423.120117188 1487.33203125 l 1,5,-1
 423.120117188 466.072265625 l 2,6,7
 423 220 423 220 323.564453125 109.7265625 c 0,8,9
 224 0 224 0 47.3818359375 0 c 2,10,-1
 -4 0 l 2,11,12
 -51.6240234375 0 -51.6240234375 0 -51.6240234375 74 c 2,13,-1
 -51.6240234375 108 l 2,14,15
 -52 185 -52 185 -3.6240234375 185.479492188 c 2,0,-1
EndSplineSet
EndChar

StartChar: uniFEE0
Encoding: 65248 65248 234
Width: 668
VWidth: 2311
GlyphClass: 2
Flags: W
AnchorPoint: "Anchor-10" 333.574 1552.16 basechar 0
AnchorPoint: "Anchor-7" 291.534 -255.99 basechar 0
LayerCount: 2
Fore
SplineSet
-3.6240234375 185.479492188 m 2,0,-1
 88.7109375 185.479492188 l 2,1,2
 289.114425508 184.999726065 289.114425508 184.999726065 281.529296875 427.384765625 c 6,3,-1
 250.705078125 1412.38183594 l 5,4,-1
 423.440429688 1486.15332031 l 5,5,-1
 423.440429688 427.50390625 l 6,6,7
 423.000870842 185.479492188 423.000870842 185.479492188 632.266601562 185.479492188 c 2,8,-1
 675.375976562 185.479492188 l 2,9,10
 723.375976562 184.996214561 723.375976562 184.996214561 723.375976562 108 c 2,11,-1
 723.375976562 74 l 2,12,13
 723 0 723 0 674.620117188 0 c 2,14,-1
 632.885742188 0 l 2,15,16
 466 0 466 0 358.165039062 114.334960938 c 1,17,18
 255 0 255 0 86.921875 0 c 2,19,-1
 -4 0 l 2,20,21
 -51.6240234375 0 -51.6240234375 0 -51.6240234375 74 c 2,22,-1
 -51.6240234375 108 l 2,23,24
 -52 185 -52 185 -3.6240234375 185.479492188 c 2,0,-1
EndSplineSet
EndChar

StartChar: uniFEE2
Encoding: 65250 65250 236
Width: 1187
VWidth: 2311
GlyphClass: 2
Flags: W
AnchorPoint: "Anchor-10" 667.29 1049.64 basechar 0
AnchorPoint: "Anchor-7" 659.239 -312.747 basechar 0
LayerCount: 2
Fore
SplineSet
1194.37597656 185.479492188 m 2,0,1
 1242.37597656 186.033777903 1242.37597656 186.033777903 1242.37597656 108 c 2,2,-1
 1242.37597656 74 l 2,3,4
 1241.99866292 -1.26672073481 1241.99866292 -1.26672073481 1193.62011719 0 c 2,5,-1
 1164.86425781 0.7529296875 l 6,6,7
 1024 4 1024 4 951 81 c 1,8,9
 905 -83 905 -83 729.040039062 -82.93359375 c 0,10,11
 653 -83 653 -83 585.522460938 -54.3603515625 c 0,12,13
 374 36 374 36 349.77734375 363.295898438 c 1,14,15
 225.20616987 318.074842509 225.20616987 318.074842509 238.97265625 23.623046875 c 2,16,-1
 267.727539062 -591.416015625 l 1,17,-1
 96.369140625 -677.1875 l 1,18,-1
 96.369140625 86.40234375 l 2,19,20
 96 378 96 378 283.20703125 512.896484375 c 0,21,22
 473 650 473 650 694.948242188 653.083007812 c 0,23,24
 906 656 906 656 973 479.074566256 c 0,25,26
 1003 399 1003 399 1003 242 c 1,27,28
 1043.18373669 183.733581796 1043.18373669 183.733581796 1169.76660156 185.1953125 c 2,29,-1
 1194.37597656 185.479492188 l 2,0,1
485.21484375 416.708984375 m 1,30,31
 489 344 489 344 506.728515625 280 c 0,32,33
 562 80 562 80 728.219726562 80.6875 c 0,34,35
 850 81 850 81 850.005859375 249.099609375 c 0,36,37
 850 301 850 301 839.326171875 368.967773438 c 0,38,39
 820 485 820 485 711.435546875 488.12109375 c 0,40,41
 582 491 582 491 485.21484375 416.708984375 c 1,30,31
EndSplineSet
EndChar

StartChar: uniFEE3
Encoding: 65251 65251 237
Width: 968
VWidth: 2311
GlyphClass: 2
Flags: W
AnchorPoint: "Anchor-10" 476.711 1031.91 basechar 0
AnchorPoint: "Anchor-7" 480.552 -246.89 basechar 0
LayerCount: 2
Fore
SplineSet
-3.6240234375 185.479492188 m 6,0,-1
 57.1962890625 185.477539062 l 6,1,2
 131.757603304 185.007826701 131.757603304 185.007826701 164.03125 250.689453125 c 4,3,4
 260 446 260 446 312.495117188 534.240234375 c 4,5,6
 408.696515146 693.150538726 408.696515146 693.150538726 549.080078125 694.403320312 c 4,7,8
 729 696 729 696 828.071289062 457.501953125 c 4,9,10
 871 353 871 353 870.259765625 249.099609375 c 4,11,12
 870 167 870 167 844.8203125 107.920898438 c 12,13,14
 814 35 814 35 751.540039062 -5.896484375 c 4,15,16
 687 -49 687 -49 587.240234375 -47.552734375 c 4,17,18
 418 -46 418 -46 268.999023438 93.8359375 c 5,19,20
 210 0 210 0 41.3193359375 0 c 6,21,-1
 -4 0 l 6,22,23
 -51.6240234375 0 -51.6240234375 0 -51.6240234375 74 c 6,24,-1
 -51.6240234375 108 l 6,25,26
 -52 185 -52 185 -3.6240234375 185.479492188 c 6,0,-1
330.936523438 245.408203125 m 5,27,28
 478.059570312 114.48046875 478.059570312 114.48046875 585.120117188 114.466796875 c 4,29,30
 656.701171875 114.513671875 656.701171875 114.513671875 691.120117188 171.610351562 c 4,31,32
 742 255.459960938 742 255.459960938 667.834960938 411.1484375 c 4,33,34
 624.33984375 502.440429688 624.33984375 502.440429688 553.466796875 511.474609375 c 4,35,36
 486.0078125 520.002929688 486.0078125 520.002929688 429.299804688 428.240234375 c 4,37,38
 373.120117188 339.200195312 373.120117188 339.200195312 330.936523438 245.408203125 c 5,27,28
EndSplineSet
EndChar

StartChar: uniFEE4
Encoding: 65252 65252 238
Width: 1067
VWidth: 2311
GlyphClass: 2
Flags: W
AnchorPoint: "Anchor-7" 480.552 -246.89 basechar 0
AnchorPoint: "Anchor-10" 476.711 1031.91 basechar 0
LayerCount: 2
Fore
SplineSet
330.936523438 245.408203125 m 1,0,1
 478.059570312 114.48046875 478.059570312 114.48046875 585.120117188 114.466796875 c 0,2,3
 656.701171875 114.513671875 656.701171875 114.513671875 691.120117188 171.610351562 c 0,4,5
 742 255.459960938 742 255.459960938 667.834960938 411.1484375 c 0,6,7
 624.33984375 502.440429688 624.33984375 502.440429688 553.466796875 511.474609375 c 0,8,9
 486.0078125 520.002929688 486.0078125 520.002929688 429.299804688 428.240234375 c 0,10,11
 373.120117188 339.200195312 373.120117188 339.200195312 330.936523438 245.408203125 c 1,0,1
825.08984375 78.0390625 m 5,12,13
 804 29 804 29 751.540039062 -5.896484375 c 0,14,15
 687 -48 687 -48 587.240234375 -47.552734375 c 0,16,17
 418 -46 418 -46 268.999023438 93.8359375 c 1,18,19
 210 0 210 0 41.3193359375 0 c 2,20,-1
 -4 0 l 2,21,22
 -51.6240234375 0 -51.6240234375 0 -51.6240234375 74 c 2,23,-1
 -51.6240234375 108 l 2,24,25
 -52.0023488563 185.481045764 -52.0023488563 185.481045764 -3.6240234375 185.479492188 c 2,26,-1
 57.1962890625 185.477539062 l 2,27,28
 132 185 132 185 164.03125 250.689453125 c 0,29,30
 260 446 260 446 312.495117188 534.240234375 c 0,31,32
 407 693 407 693 549.080078125 694.403320312 c 0,33,34
 732 696 732 696 828.071289062 457.501953125 c 0,35,36
 859 381 859 381 869.0078125 288 c 8,37,38
 878.970735703 186.298729208 878.970735703 186.298729208 1046.65722656 185.595703125 c 2,39,-1
 1074.37597656 185.479492188 l 2,40,41
 1122.37597656 184.996214561 1122.37597656 184.996214561 1122.37597656 108 c 2,42,-1
 1122.37597656 74 l 2,43,44
 1121.99817447 -0.359301510139 1121.99817447 -0.359301510139 1073.62011719 0 c 2,45,-1
 1043.640625 0.22265625 l 2,46,47
 899 1 899 1 825.08984375 78.0390625 c 5,12,13
EndSplineSet
EndChar

StartChar: uniFEEA
Encoding: 65258 65258 244
Width: 1144
VWidth: 2311
GlyphClass: 2
Flags: W
AnchorPoint: "Anchor-10" 688.887 1248.14 basechar 0
AnchorPoint: "Anchor-7" 421.753 -193.98 basechar 0
LayerCount: 2
Fore
SplineSet
1151.37597656 185.479492188 m 2,0,1
 1199.37597656 185.45880975 1199.37597656 185.45880975 1199.37597656 108 c 2,2,-1
 1199.37597656 74 l 2,3,4
 1199 0 1199 0 1150.62011719 0 c 2,5,-1
 1102.75976562 0 l 2,6,7
 807 0 807 0 757.40625 237.259765625 c 1,8,9
 235 155 235 155 118.719726562 376.299804688 c 0,10,11
 99 414 99 414 97.103515625 465.278320312 c 0,12,13
 87 744 87 744 683.373046875 859.395507812 c 1,14,15
 683 872 683 872 668.592773438 976.579101562 c 1,16,-1
 826.462890625 1015.23144531 l 1,17,-1
 894.16015625 417.705078125 l 2,18,19
 920.046931332 185.579168201 920.046931332 185.579168201 1103.78125 185.5 c 2,20,-1
 1151.37597656 185.479492188 l 2,0,1
738.801757812 411.670898438 m 1,21,22
 722.919921875 577.700195312 722.919921875 577.700195312 704.403320312 697.138671875 c 1,23,24
 277.719726562 617.98046875 277.719726562 617.98046875 262.879882812 500.3203125 c 0,25,26
 252.280273438 415.51953125 252.280273438 415.51953125 343.440429688 397.5 c 0,27,28
 474.879882812 371 474.879882812 371 738.801757812 411.670898438 c 1,21,22
EndSplineSet
EndChar

StartChar: uniFEEB
Encoding: 65259 65259 245
Width: 1220
VWidth: 2311
GlyphClass: 2
Flags: W
AnchorPoint: "Anchor-10" 548.329 1229.2 basechar 0
AnchorPoint: "Anchor-7" 405.494 -241.623 basechar 0
LayerCount: 2
Fore
SplineSet
-3.6240234375 185.479492188 m 2,0,-1
 180.254882812 186.399414062 l 1,1,2
 105 274 105 274 110.8515625 413.240234375 c 0,3,4
 116 531 116 531 180.200195312 614.4609375 c 0,5,6
 276 737 276 737 402 771 c 1,7,-1
 363 792 l 1,8,-1
 443.965820312 931.935546875 l 1,9,-1
 774.895507812 711.850585938 l 6,10,11
 1112 488 1112 488 1128.95410156 291.530273438 c 0,12,13
 1138 187 1138 187 1092.86035156 105.961914062 c 0,14,15
 1020 -25 1020 -25 858.5 -34.8798828125 c 0,16,17
 665 -46 665 -46 396.65625 64.8369140625 c 1,18,19
 204 0 204 0 30.34765625 0 c 2,20,-1
 -4 0 l 2,21,22
 -51.6240234375 0 -51.6240234375 0 -51.6240234375 74 c 2,23,-1
 -51.6240234375 108 l 2,24,25
 -52 185 -52 185 -3.6240234375 185.479492188 c 2,0,-1
753.462890625 536.1015625 m 1,26,27
 754.719726562 321.1796875 754.719726562 321.1796875 569.404296875 173.2578125 c 1,28,29
 945.666015625 64.310546875 945.666015625 64.310546875 977.3359375 238.237304688 c 0,30,31
 999.580078125 360.400390625 999.580078125 360.400390625 753.462890625 536.1015625 c 1,26,27
594.015625 417.7265625 m 0,32,33
 659 563 659 563 577.5 619.5 c 0,34,35
 541 645 541 645 489 644.845042483 c 0,36,37
 469 645 469 645 449.440429688 639.1796875 c 0,38,39
 383 619 383 619 333.985351562 556.994140625 c 0,40,41
 281 490 281 490 268.78515625 414.291015625 c 0,42,43
 247 276 247 276 398 228 c 1,44,45
 531 281 531 281 594.015625 417.7265625 c 0,32,33
EndSplineSet
EndChar

StartChar: uniFEEC
Encoding: 65260 65260 246
Width: 994
VWidth: 2311
GlyphClass: 2
Flags: W
AnchorPoint: "Anchor-7" 519.493 -803.658 basechar 0
AnchorPoint: "Anchor-10" 467.766 1110.88 basechar 0
LayerCount: 2
Fore
SplineSet
-3.6240234375 185.479492188 m 2,0,-1
 232.202148438 185.5390625 l 1,1,2
 222 475 222 475 280.22265625 606.58203125 c 4,3,4
 362 791 362 791 522.328125 790.495117188 c 4,5,6
 768 790 768 790 768.126953125 484.486328125 c 4,7,8
 768 349 768 349 723.396484375 248 c 0,9,10
 673 135 673 135 598 72.8076171875 c 0,11,12
 510 1 510 1 392.616210938 0.013671875 c 1,13,14
 408 -202 408 -202 532.522460938 -330.747070312 c 1,15,16
 658.09243008 194.386542598 658.09243008 194.386542598 956.474609375 186.64453125 c 2,17,-1
 1001.37597656 185.479492188 l 2,18,19
 1049.37597656 183.988319878 1049.37597656 183.988319878 1049.37597656 108 c 2,20,-1
 1049.37597656 74 l 2,21,22
 1049 0 1049 0 1000.62011719 0 c 2,23,-1
 953.786132812 0 l 2,24,25
 726 0 726 0 632.508789062 -473.639648438 c 1,26,-1
 532.01953125 -529.6796875 l 1,27,28
 296 -374 296 -374 234.440429688 0 c 1,29,-1
 -4 0 l 2,30,31
 -51.6240234375 0 -51.6240234375 0 -51.6240234375 74 c 2,32,-1
 -51.6240234375 108 l 2,33,34
 -52 185 -52 185 -3.6240234375 185.479492188 c 2,0,-1
381.638671875 185.5390625 m 1,35,-1
 420.146484375 187.616210938 l 2,36,37
 517 193 517 193 565.966796875 267.674804688 c 0,38,39
 613 339 613 339 613.58984375 492.293945312 c 4,40,41
 614 565 614 565 591.639648438 599.309570312 c 4,42,43
 569 634 569 634 525.252929688 633.559570312 c 4,44,45
 423 634 423 634 396.7265625 464.702148438 c 4,46,47
 372 309 372 309 381.638671875 185.5390625 c 1,35,-1
EndSplineSet
EndChar

StartChar: uniFEEE
Encoding: 65262 65262 248
Width: 905
VWidth: 2311
GlyphClass: 2
Flags: W
AnchorPoint: "Anchor-7" 336.38 -688.85 basechar 0
AnchorPoint: "Anchor-10" 440.5 1061.72 basechar 0
LayerCount: 2
Fore
SplineSet
912.375976562 185.479492188 m 2,0,1
 960.375976562 185.471722504 960.375976562 185.471722504 960.375976562 108 c 2,2,-1
 960.375976562 74 l 2,3,4
 960 0 960 0 911.620117188 0 c 2,5,-1
 776.215820312 0 l 1,6,7
 747 -192 747 -192 619.330078125 -340.215820312 c 0,8,9
 450.716175032 -536.330115919 450.716175032 -536.330115919 99.9267578125 -536.506835938 c 2,10,-1
 97.98828125 -536.5078125 l 1,11,-1
 45.962890625 -396.889648438 l 5,12,13
 540 -367 540 -367 621.619140625 1.4716796875 c 1,14,15
 589 1 589 1 446.08203125 1.3134765625 c 0,16,17
 244 1 244 1 164.5625 104.953125 c 0,18,19
 111 175 111 175 111.573952024 279 c 0,20,21
 113 436 113 436 187 559 c 0,22,23
 281 717 281 717 445.200195312 717.748046875 c 0,24,25
 633 718 633 718 724.875976562 528.258789062 c 0,26,27
 779 417 779 417 785.681640625 185.5 c 1,28,-1
 912.375976562 185.479492188 l 2,0,1
436.081054688 545.701171875 m 0,29,30
 358 545 358 545 309.396484375 454.200195312 c 0,31,32
 267 374 267 374 266.833536113 309 c 0,33,34
 267 249 267 249 300.784179688 217.904296875 c 0,35,36
 338 184 338 184 414.173828125 178.711914062 c 0,37,38
 487 173 487 173 631.02734375 180.256835938 c 1,39,40
 631 545 631 545 436.081054688 545.701171875 c 0,29,30
EndSplineSet
EndChar

StartChar: uniFEF0
Encoding: 65264 65264 250
Width: 1481
VWidth: 2311
GlyphClass: 2
Flags: W
AnchorPoint: "Anchor-10" 741.849 620.691 basechar 0
AnchorPoint: "Anchor-7" 629.391 -835.455 basechar 0
LayerCount: 2
Fore
SplineSet
1488.37597656 185.479492188 m 2,0,1
 1536.37597656 185.387784299 1536.37597656 185.387784299 1536.37597656 108 c 2,2,-1
 1536.37597656 74 l 2,3,4
 1535.9988622 -0.223942340328 1535.9988622 -0.223942340328 1487.62011719 0 c 2,5,-1
 1362.9375 0.5771484375 l 1,6,-1
 1180.91015625 0 l 2,7,8
 1066 -0 1066 -0 1066.03320312 -42.580078125 c 0,9,10
 1065.99969549 -79.3340131646 1065.99969549 -79.3340131646 1141.45605469 -79.810546875 c 2,11,-1
 1203 -80.19921875 l 2,12,13
 1387 -81 1387 -81 1387.72265625 -246 c 0,14,15
 1387.99727134 -396.504540584 1387.99727134 -396.504540584 1249 -493.973632812 c 4,16,17
 1065 -623 1065 -623 737.80859375 -623.716796875 c 0,18,19
 427 -624 427 -624 266 -489 c 0,20,21
 98 -347 98 -347 97.111328125 -108 c 0,22,23
 96 103 96 103 212.884765625 352.415039062 c 1,24,-1
 360 292 l 1,25,26
 267 80 267 80 262.9765625 -96 c 0,27,28
 259 -271 259 -271 406 -371 c 0,29,30
 521 -449 521 -449 746.275390625 -447.954101562 c 0,31,32
 947 -447 947 -447 1081 -395 c 0,33,34
 1234 -336 1234 -336 1240.08007812 -263 c 0,35,36
 1242.9604073 -231.433904256 1242.9604073 -231.433904256 1178 -229.186523438 c 18,37,-1
 1110 -226.833984375 l 2,38,39
 894 -219 894 -219 893.28515625 -44.1669921875 c 0,40,41
 892.002118627 186.618912763 892.002118627 186.618912763 1178.62890625 186.071289062 c 2,42,-1
 1488.37597656 185.479492188 l 2,0,1
EndSplineSet
EndChar

StartChar: uniFEFB
Encoding: 65275 65275 261
Width: 1153
VWidth: 2311
GlyphClass: 3
Flags: W
AnchorPoint: "Anchor-9" 915.751 1550.28 baselig 0
AnchorPoint: "Anchor-6" 857.132 -187.49 baselig 0
AnchorPoint: "Anchor-6" 319.09 -211.622 baselig 1
AnchorPoint: "Anchor-9" 140.739 1504.51 baselig 1
LayerCount: 2
Fore
SplineSet
227.204101562 1367.92382812 m 1,0,1
 619.513671875 196.98828125 l 1,2,3
 874.423098515 225.046571133 874.423098515 225.046571133 863.430664062 616.012695312 c 6,4,-1
 841.068359375 1411.36914062 l 1,5,-1
 1014.87988281 1487.33203125 l 1,6,-1
 1014.87988281 548.75 l 2,7,8
 1015 258 1015 258 858.915039062 124.333007812 c 0,9,10
 709 -4 709 -4 459.900390625 -2.96875 c 0,11,12
 274 -2 274 -2 156.091796875 34.4423828125 c 1,13,-1
 156.091796875 198.75 l 1,14,15
 361 158 361 158 479.025390625 165.616210938 c 1,16,-1
 87.29296875 1254.34960938 l 1,17,-1
 227.204101562 1367.92382812 l 1,0,1
EndSplineSet
LCarets2: 1 0
Ligature2: "'rlig' Required Ligatures in Arabic lookup 16 subtable" uniFEDF uniFE8E
EndChar

StartChar: uniFEFC
Encoding: 65276 65276 262
Width: 1268
VWidth: 2311
GlyphClass: 3
Flags: W
AnchorPoint: "Anchor-9" 140.739 1504.51 baselig 1
AnchorPoint: "Anchor-6" 319.09 -211.622 baselig 1
AnchorPoint: "Anchor-6" 857.132 -187.49 baselig 0
AnchorPoint: "Anchor-9" 915.751 1550.28 baselig 0
LayerCount: 2
Fore
SplineSet
1014.87988281 548.75 m 2,0,1
 1015 375 1015 375 1064.68261719 285.5078125 c 0,2,3
 1119 187 1119 187 1232.68554688 185.90234375 c 2,4,-1
 1275.37597656 185.479492188 l 2,5,6
 1322.99996204 185.007773425 1322.99996204 185.007773425 1323.37597656 108 c 2,7,-1
 1323.37597656 74 l 2,8,9
 1323.37597656 -1.00777134091 1323.37597656 -1.00777134091 1274.62011719 0 c 2,10,-1
 1231.97070312 0.5302734375 l 2,11,12
 976.053301775 3.71217412977 976.053301775 3.71217412977 936.740234375 216 c 1,13,14
 904 164 904 164 858.915039062 124.333007812 c 0,15,16
 713 -4 713 -4 459.900390625 -2.96875 c 0,17,18
 274 -2 274 -2 156.091796875 34.4423828125 c 1,19,-1
 156.091796875 198.75 l 1,20,21
 361 158 361 158 479.025390625 165.616210938 c 1,22,-1
 87.29296875 1254.34960938 l 1,23,-1
 227.204101562 1367.92382812 l 1,24,-1
 619.513671875 196.98828125 l 1,25,26
 877 224 877 224 865.430664062 616.012695312 c 2,27,-1
 841.068359375 1411.36914062 l 1,28,-1
 1014.87988281 1487.33203125 l 1,29,-1
 1014.87988281 548.75 l 2,0,1
EndSplineSet
LCarets2: 1 0
Ligature2: "'rlig' Required Ligatures in Arabic lookup 16 subtable" uniFEE0 uniFE8E
EndChar

StartChar: arabic_dot
Encoding: 65536 -1 263
Width: 165
VWidth: 2170
GlyphClass: 2
Flags: W
LayerCount: 2
Fore
SplineSet
113.283203125 200.033203125 m 2,0,-1
 196.493164062 116.823242188 l 2,1,2
 222.6875 90.6298828125 222.6875 90.6298828125 197.0234375 64.966796875 c 2,3,-1
 110.103515625 -21.953125 l 2,4,5
 82.150390625 -49.908203125 82.150390625 -49.908203125 54.7265625 -22.4833984375 c 2,6,-1
 -32.193359375 64.4365234375 l 2,7,8
 -58.3876953125 90.6298828125 -58.3876953125 90.6298828125 -29.013671875 120.00390625 c 2,9,-1
 52.076171875 201.09375 l 2,10,11
 82.150390625 231.16796875 82.150390625 231.16796875 113.283203125 200.033203125 c 2,0,-1
EndSplineSet
EndChar

StartChar: arabic_2dots
Encoding: 65537 -1 264
Width: 485
VWidth: 2170
GlyphClass: 2
Flags: W
LayerCount: 2
Fore
SplineSet
423.86328125 200.033203125 m 6,0,-1
 507.073242188 116.823242188 l 6,1,2
 533.267578125 90.6298828125 533.267578125 90.6298828125 507.603515625 64.966796875 c 6,3,-1
 420.68359375 -21.953125 l 6,4,5
 392.73046875 -49.9072265625 392.73046875 -49.9072265625 365.306640625 -22.4833984375 c 6,6,-1
 278.38671875 64.4365234375 l 6,7,8
 252.192382812 90.6298828125 252.192382812 90.6298828125 281.56640625 120.00390625 c 6,9,-1
 362.65625 201.09375 l 6,10,11
 392.73046875 231.16796875 392.73046875 231.16796875 423.86328125 200.033203125 c 6,0,-1
123.883789062 200.033203125 m 6,12,-1
 207.09375 116.823242188 l 6,13,14
 233.288085938 90.6298828125 233.288085938 90.6298828125 207.623046875 64.966796875 c 6,15,-1
 120.703125 -21.953125 l 6,16,17
 92.75 -49.9072265625 92.75 -49.9072265625 65.326171875 -22.4833984375 c 6,18,-1
 -21.59375 64.4365234375 l 6,19,20
 -47.787109375 90.6298828125 -47.787109375 90.6298828125 -18.4130859375 120.00390625 c 6,21,-1
 62.6767578125 201.09375 l 6,22,23
 92.75 231.16796875 92.75 231.16796875 123.883789062 200.033203125 c 6,12,-1
EndSplineSet
EndChar

StartChar: arabic_3dots
Encoding: 65538 -1 265
Width: 488
VWidth: 2170
GlyphClass: 2
Flags: W
LayerCount: 2
Fore
SplineSet
424.681640625 187.313476562 m 6,0,-1
 507.891601562 104.103515625 l 6,1,2
 534.0859375 77.91015625 534.0859375 77.91015625 508.420898438 52.24609375 c 6,3,-1
 421.500976562 -34.673828125 l 6,4,5
 393.547851562 -62.626953125 393.547851562 -62.626953125 366.124023438 -35.203125 c 6,6,-1
 279.204101562 51.716796875 l 6,7,8
 253.009765625 77.91015625 253.009765625 77.91015625 282.384765625 107.283203125 c 6,9,-1
 363.474609375 188.374023438 l 6,10,11
 393.547851562 218.448242188 393.547851562 218.448242188 424.681640625 187.313476562 c 6,0,-1
124.701171875 187.313476562 m 6,12,-1
 207.911132812 104.103515625 l 6,13,14
 234.10546875 77.91015625 234.10546875 77.91015625 208.44140625 52.24609375 c 6,15,-1
 121.521484375 -34.673828125 l 6,16,17
 93.5673828125 -62.626953125 93.5673828125 -62.626953125 66.14453125 -35.203125 c 6,18,-1
 -20.775390625 51.716796875 l 6,19,20
 -46.96875 77.91015625 -46.96875 77.91015625 -17.595703125 107.283203125 c 6,21,-1
 63.494140625 188.374023438 l 6,22,23
 93.5673828125 218.448242188 93.5673828125 218.448242188 124.701171875 187.313476562 c 6,12,-1
274.65234375 425.188476562 m 2,24,-1
 357.862304688 341.978515625 l 2,25,26
 384.060546875 315.788085938 384.060546875 315.788085938 358.392578125 290.120117188 c 2,27,-1
 271.47265625 203.200195312 l 2,28,29
 243.518554688 175.247070312 243.518554688 175.247070312 216.095703125 202.669921875 c 2,30,-1
 129.17578125 289.58984375 l 2,31,32
 103.134765625 315.939453125 103.134765625 315.939453125 132.35546875 345.158203125 c 2,33,-1
 213.4453125 426.248046875 l 2,34,35
 243.518554688 456.321289062 243.518554688 456.321289062 274.65234375 425.188476562 c 2,24,-1
EndSplineSet
EndChar

StartChar: arabic_3dots_a
Encoding: 65539 -1 266
Width: 487
VWidth: 2170
GlyphClass: 2
Flags: W
LayerCount: 2
Fore
SplineSet
424.181640625 208.513671875 m 6,0,-1
 507.391601562 125.303710938 l 6,1,2
 533.5859375 99.1103515625 533.5859375 99.1103515625 507.920898438 73.4462890625 c 6,3,-1
 421.000976562 -13.4736328125 l 6,4,5
 393.047851562 -41.4267578125 393.047851562 -41.4267578125 365.624023438 -14.00390625 c 6,6,-1
 278.704101562 72.916015625 l 6,7,8
 252.509765625 99.1103515625 252.509765625 99.1103515625 281.884765625 128.483398438 c 6,9,-1
 362.974609375 209.573242188 l 6,10,11
 393.047851562 239.6484375 393.047851562 239.6484375 424.181640625 208.513671875 c 6,0,-1
124.201171875 208.513671875 m 6,12,-1
 207.411132812 125.303710938 l 6,13,14
 233.60546875 99.1103515625 233.60546875 99.1103515625 207.94140625 73.4462890625 c 6,15,-1
 121.021484375 -13.4736328125 l 6,16,17
 93.0673828125 -41.4267578125 93.0673828125 -41.4267578125 65.64453125 -14.00390625 c 6,18,-1
 -21.275390625 72.916015625 l 6,19,20
 -47.46875 99.1103515625 -47.46875 99.1103515625 -18.095703125 128.483398438 c 6,21,-1
 62.994140625 209.573242188 l 6,22,23
 93.0673828125 239.6484375 93.0673828125 239.6484375 124.201171875 208.513671875 c 6,12,-1
274.19140625 -12.1123046875 m 2,24,-1
 357.401367188 -95.322265625 l 2,25,26
 383.595703125 -121.515625 383.595703125 -121.515625 357.931640625 -147.180664062 c 2,27,-1
 271.010742188 -234.100585938 l 2,28,29
 243.057617188 -262.053710938 243.057617188 -262.053710938 215.634765625 -234.630859375 c 2,30,-1
 128.71484375 -147.7109375 l 2,31,32
 102.520507812 -121.515625 102.520507812 -121.515625 131.89453125 -92.142578125 c 2,33,-1
 213.381835938 -10.6552734375 l 2,34,35
 243.485351562 18.59375 243.485351562 18.59375 274.19140625 -12.1123046875 c 2,24,-1
EndSplineSet
EndChar

StartChar: uni066E.fina
Encoding: 65540 -1 267
Width: 2132
VWidth: 2311
GlyphClass: 2
Flags: W
AnchorPoint: "Anchor-10" 743.06 1127.31 basechar 0
AnchorPoint: "Anchor-7" 743.06 -186.56 basechar 0
LayerCount: 2
Fore
SplineSet
2139.37597656 185.479492188 m 2,0,1
 2187.37597656 184.979672551 2187.37597656 184.979672551 2187.37597656 108 c 2,2,-1
 2187.37597656 74 l 2,3,4
 2186.99793442 -0.406548862577 2186.99793442 -0.406548862577 2138.62011719 0 c 2,5,-1
 2075.51953125 0.5302734375 l 6,6,7
 1841 3 1841 3 1738.09179688 219.603515625 c 5,8,9
 1686 159 1686 159 1548.49316406 94.513671875 c 4,10,11
 1348 0 1348 0 907.125976562 0 c 0,12,13
 567 0 567 0 398.397460938 70.6044921875 c 0,14,15
 125 184 125 184 99.65234375 467.181640625 c 0,16,17
 88 600 88 600 131.100585938 751.973632812 c 1,18,-1
 273.30859375 714.452148438 l 1,19,20
 252 573 252 573 254.96875 507.0546875 c 0,21,22
 267 248 267 248 593.8359375 200.705078125 c 0,23,24
 697 186 697 186 921 185.604492188 c 0,25,26
 1333 186 1333 186 1502.77734375 266.155273438 c 0,27,28
 1701 360 1701 360 1728.50097656 576.422851562 c 1,29,-1
 1849.67285156 576.422851562 l 1,30,31
 1864 397 1864 397 1891.31542969 322.538085938 c 0,32,33
 1940.16142955 187.553895159 1940.16142955 187.553895159 2098.76757812 185.90234375 c 2,34,-1
 2139.37597656 185.479492188 l 2,0,1
EndSplineSet
EndChar

StartChar: uni06A1.fina
Encoding: 65543 -1 270
Width: 2042
VWidth: 2311
GlyphClass: 2
Flags: W
AnchorPoint: "Anchor-10" 561.8 1240.73 basechar 0
AnchorPoint: "Anchor-7" 675.22 -233.73 basechar 0
LayerCount: 2
Fore
SplineSet
921 185.604492188 m 28,0,1
 1028 185 1028 185 1122.33984375 190.956054688 c 0,2,3
 1177 194 1177 194 1335.68652344 214.4609375 c 1,4,5
 1237 279 1237 279 1195.11230469 377.192382812 c 0,6,7
 1168 439 1168 439 1168.20019531 506.313476562 c 0,8,9
 1168 554 1168 554 1181.8984375 605.30078125 c 0,10,11
 1203 686 1203 686 1268 755 c 0,12,13
 1374 868 1374 868 1519.625 868.24609375 c 0,14,15
 1676 868 1676 868 1779.45019531 753 c 0,16,17
 1836 691 1836 691 1855.66015625 603.635742188 c 0,18,19
 1866 558 1866 558 1865.83300781 515.197265625 c 0,20,21
 1866 451 1866 451 1843.21875 393.736328125 c 0,22,23
 1800 286 1800 286 1684.64257812 211.6328125 c 1,24,25
 1724.27681562 185.477246391 1724.27681562 185.477246391 1908.00976562 185.478515625 c 2,26,-1
 2049.37597656 185.479492188 l 2,27,28
 2097.37597656 184.996214561 2097.37597656 184.996214561 2097.37597656 108 c 2,29,-1
 2097.37597656 74 l 2,30,31
 2097 0 2097 0 2048.62011719 0 c 2,32,-1
 1911.92382812 0 l 2,33,34
 1666 0 1666 0 1516.09082031 113.47265625 c 1,35,36
 1299 0 1299 0 907.125976562 0 c 0,37,38
 567 0 567 0 398.397460938 70.6044921875 c 0,39,40
 125 184 125 184 99.65234375 467.181640625 c 0,41,42
 88 600 88 600 131.100585938 751.973632812 c 1,43,-1
 273.30859375 714.452148438 l 1,44,45
 252 573 252 573 254.96875 507.0546875 c 0,46,47
 267 248 267 248 593.8359375 200.705078125 c 0,48,49
 697 186 697 186 921 185.604492188 c 28,0,1
1330.92285156 503.780273438 m 0,50,51
 1331 427 1331 427 1385.234375 372.966796875 c 0,52,53
 1471 285 1471 285 1516.46777344 285.387695312 c 0,54,55
 1562 285 1562 285 1648.5078125 372.966796875 c 0,56,57
 1703 428 1703 428 1702.8046875 506.956054688 c 0,58,59
 1703 585 1703 585 1648.40527344 639.91796875 c 0,60,61
 1583 705 1583 705 1516.87304688 705.359375 c 0,62,63
 1450 705 1450 705 1385.33886719 639.920898438 c 0,64,65
 1331 586 1331 586 1330.92285156 503.780273438 c 0,50,51
EndSplineSet
EndChar

StartChar: uni06A1.init
Encoding: 65544 -1 271
Width: 870
VWidth: 2311
GlyphClass: 2
Flags: W
AnchorPoint: "Anchor-10" 433.042 1301.15 basechar 0
AnchorPoint: "Anchor-7" 406.542 -177.02 basechar 0
LayerCount: 2
Fore
SplineSet
433.104492188 1071.00195312 m 0,0,1
 602 1071 602 1071 686.634765625 927.232421875 c 0,2,3
 776 776 776 776 776.55078125 537.419921875 c 0,4,5
 778 178 778 178 597.702148438 64.0966796875 c 0,6,7
 497 0 497 0 253.583984375 0 c 2,8,-1
 -4 0 l 2,9,10
 -52 0 -52 0 -51.6240234375 74 c 2,11,-1
 -51.6240234375 108 l 2,12,13
 -51.6240234375 185.003726598 -51.6240234375 185.003726598 -3.6240234375 185.479492188 c 2,14,-1
 259.700195312 185.479492188 l 2,15,16
 471.599906094 185.479492188 471.599906094 185.479492188 527.325195312 230.01953125 c 0,17,18
 610 294 610 294 614.493164062 408.2890625 c 1,19,20
 541 356 541 356 396.440429688 356.759765625 c 0,21,22
 239 357 239 357 156.908203125 468.633789062 c 0,23,24
 104 541 104 541 105.192382812 648.4453125 c 0,25,26
 106.544921875 780.521484375 106.544921875 780.521484375 159.544921875 885.521484375 c 0,27,28
 252.544921875 1071.52148438 252.544921875 1071.52148438 433.104492188 1071.00195312 c 0,0,1
415.237304688 528.8828125 m 0,29,30
 538 528 538 528 616.709960938 586.138671875 c 1,31,32
 623 612 623 612 605.49609375 709.212890625 c 0,33,34
 569.767829673 898.922974828 569.767829673 898.922974828 442 899.219277441 c 4,35,36
 306.101057607 899.534436679 306.101057607 899.534436679 264.221679688 727.064453125 c 0,37,38
 255 688 255 688 254.415039062 656.341796875 c 0,39,40
 255 530 255 530 415.237304688 528.8828125 c 0,29,30
EndSplineSet
EndChar

StartChar: uni06A1.medi
Encoding: 65545 -1 272
Width: 1070
VWidth: 2311
GlyphClass: 2
Flags: W
AnchorPoint: "Anchor-10" 544.056 1070.6 basechar 0
AnchorPoint: "Anchor-7" 544.056 -177.02 basechar 0
LayerCount: 2
Fore
SplineSet
-3.6240234375 185.479492188 m 2,0,-1
 120.299804688 185.479492188 l 2,1,2
 317 185 317 185 363.686523438 214.4609375 c 5,3,4
 265 279 265 279 223.112304688 377.192382812 c 4,5,6
 196.200209133 438.943898454 196.200209133 438.943898454 196.200209133 506.313202195 c 4,7,8
 196.200209133 554.377267602 196.200209133 554.377267602 209.8984375 605.30078125 c 4,9,10
 231 686 231 686 296 755 c 4,11,12
 402.168508645 868.246409221 402.168508645 868.246409221 547.625279285 868.246409221 c 4,13,14
 703.580482821 868.246409221 703.580482821 868.246409221 807.450195312 753 c 4,15,16
 864 691 864 691 883.66015625 603.635742188 c 4,17,18
 893.832788616 558.016888325 893.832788616 558.016888325 893.832788616 515.197727468 c 4,19,20
 893.832788616 451.355130921 893.832788616 451.355130921 871.21875 393.736328125 c 4,21,22
 828 286 828 286 712.642578125 211.6328125 c 5,23,24
 768.971935929 185.477361722 768.971935929 185.477361722 936.009765625 185.478515625 c 2,25,-1
 1077.37597656 185.479492188 l 2,26,27
 1125.37597656 184.996214561 1125.37597656 184.996214561 1125.37597656 108 c 2,28,-1
 1125.37597656 74 l 2,29,30
 1125 0 1125 0 1076.62011719 0 c 2,31,-1
 939.923828125 0 l 2,32,33
 694 0 694 0 544.090820312 113.47265625 c 1,34,35
 412 0 412 0 138.637695312 0 c 2,36,-1
 -4 0 l 2,37,38
 -51.6240234375 0 -51.6240234375 0 -51.6240234375 74 c 2,39,-1
 -51.6240234375 108 l 2,40,41
 -52 185 -52 185 -3.6240234375 185.479492188 c 2,0,-1
358.922797489 503.780641962 m 4,42,43
 358.922797489 427.080563478 358.922797489 427.080563478 413.234375 372.966796875 c 4,44,45
 498.621776977 285.387930104 498.621776977 285.387930104 544.4676744 285.387930104 c 132,-1,46
 590.398198395 285.387930104 590.398198395 285.387930104 676.5078125 372.966796875 c 4,47,48
 730.804414144 427.812549924 730.804414144 427.812549924 730.804414144 506.956466556 c 4,49,50
 730.804414144 585.196743872 730.804414144 585.196743872 676.405273438 639.91796875 c 4,51,52
 611 705 611 705 544.873046875 705.359375 c 4,53,54
 478 705 478 705 413.338867188 639.920898438 c 4,55,56
 358.922797489 585.923391322 358.922797489 585.923391322 358.922797489 503.780641962 c 4,42,43
EndSplineSet
EndChar

StartChar: uni066F.fina
Encoding: 65546 -1 273
Width: 1456
VWidth: 2311
GlyphClass: 2
Flags: W
AnchorPoint: "Anchor-10" 243.8 957.18 basechar 0
AnchorPoint: "Anchor-7" 332.464 -758.77 basechar 0
LayerCount: 2
Fore
SplineSet
693.024414062 -344.501953125 m 28,0,1
 1134 -346 1134 -346 1175.46582031 2.59765625 c 5,2,3
 1142 2 1142 2 991.448242188 2.4384765625 c 4,4,5
 791 2 791 2 709.928710938 106.079101562 c 4,6,7
 646 189 646 189 659.45703125 324.067382812 c 4,8,9
 679 518 679 518 805.0703125 641.626953125 c 4,10,11
 885 720 885 720 990.565429688 718.874023438 c 4,12,13
 1180 717 1180 717 1270.2421875 529.383789062 c 4,14,15
 1324 418 1324 418 1331.04785156 185.565429688 c 5,16,-1
 1463.37597656 185.479492188 l 2,17,18
 1511.37597656 184.996214561 1511.37597656 184.996214561 1511.37597656 108 c 2,19,-1
 1511.37597656 74 l 2,20,21
 1511.00192928 -0.615146066532 1511.00192928 -0.615146066532 1462.62011719 0 c 2,22,-1
 1322.67675781 1.779296875 l 5,23,24
 1291 -513 1291 -513 690.364257812 -517.545898438 c 28,25,26
 432.000428485 -518.032894182 432.000428485 -518.032894182 277 -400.520507812 c 4,27,28
 99 -264 99 -264 99.55859375 18.3544921875 c 4,29,30
 100 225 100 225 192.405273438 433.759765625 c 5,31,-1
 341.139648438 379.267578125 l 5,32,33
 261 184 261 184 260.893554688 35.2705078125 c 4,34,35
 261 -343 261 -343 693.024414062 -344.501953125 c 28,0,1
981.447265625 546.826171875 m 4,36,37
 900.465820312 545.96484375 900.465820312 545.96484375 846.76171875 446.325195312 c 4,38,39
 818.845703125 394.384765625 818.845703125 394.384765625 813.286132812 332.22265625 c 4,40,41
 806.125976562 255.525390625 806.125976562 255.525390625 846.150390625 219.029296875 c 4,42,43
 883.505859375 185.565429688 883.505859375 185.565429688 959.540039062 179.836914062 c 4,44,45
 1031.90625 173.905273438 1031.90625 173.905273438 1176.39257812 181.381835938 c 5,46,47
 1176.06542969 548.084960938 1176.06542969 548.084960938 981.447265625 546.826171875 c 4,36,37
EndSplineSet
EndChar

StartChar: arabic_gaf_bar
Encoding: 65550 -1 274
Width: 690
VWidth: 2170
GlyphClass: 2
Flags: W
LayerCount: 2
Fore
SplineSet
672.3203125 1744.64355469 m 1,0,-1
 0 1398.16308594 l 1,1,-1
 0 1520.89648438 l 1,2,-1
 672.3203125 1867.37695312 l 1,3,-1
 672.3203125 1744.64355469 l 1,0,-1
EndSplineSet
EndChar

StartChar: guillemotleft
Encoding: 171 171 283
Width: 966
VWidth: 2170
Flags: W
LayerCount: 2
Fore
SplineSet
287.524414062 5.48828125 m 1,0,1
 121.9375 266.318359375 121.9375 266.318359375 121.9375 498.900390625 c 128,-1,2
 121.9375 731.481445312 121.9375 731.481445312 287.490234375 993.323242188 c 1,3,-1
 436.717773438 993.323242188 l 1,4,-1
 406.991210938 941.052734375 l 2,5,6
 280.9375 719.416992188 280.9375 719.416992188 280.9375 499.9140625 c 0,7,8
 280.9375 278.533203125 280.9375 278.533203125 406.942382812 57.8125 c 2,9,-1
 436.819335938 5.48828125 l 1,10,-1
 287.524414062 5.48828125 l 1,0,1
686.084960938 5.48828125 m 1,11,12
 520.498046875 266.318359375 520.498046875 266.318359375 520.498046875 498.900390625 c 128,-1,13
 520.498046875 731.481445312 520.498046875 731.481445312 686.05078125 993.323242188 c 1,14,-1
 835.27734375 993.323242188 l 1,15,-1
 805.55078125 941.052734375 l 2,16,17
 679.498046875 719.416992188 679.498046875 719.416992188 679.498046875 499.9140625 c 0,18,19
 679.498046875 278.967773438 679.498046875 278.967773438 805.224609375 58.2998046875 c 2,20,-1
 835.37890625 5.48828125 l 1,21,-1
 686.084960938 5.48828125 l 1,11,12
EndSplineSet
EndChar

StartChar: guillemotright
Encoding: 187 187 284
Width: 966
VWidth: 2170
Flags: W
LayerCount: 2
Fore
SplineSet
678.569335938 993.323242188 m 1,0,1
 844.122070312 731.481445312 844.122070312 731.481445312 844.122070312 498.908203125 c 132,-1,2
 844.122070312 266.334960938 844.122070312 266.334960938 678.53515625 5.48828125 c 1,3,-1
 529.241210938 5.48828125 l 1,4,-1
 559.1171875 57.8125 l 2,5,6
 685.122070312 278.495117188 685.122070312 278.495117188 685.122070312 499.9140625 c 4,7,8
 685.122070312 719.37109375 685.122070312 719.37109375 559.069335938 941.052734375 c 2,9,-1
 529.342773438 993.323242188 l 1,10,-1
 678.569335938 993.323242188 l 1,0,1
280.009765625 993.323242188 m 1,11,12
 445.5625 731.481445312 445.5625 731.481445312 445.5625 498.903320312 c 132,-1,13
 445.5625 266.325195312 445.5625 266.325195312 279.975585938 5.48828125 c 1,14,-1
 130.680664062 5.48828125 l 1,15,-1
 160.557617188 57.8125 l 2,16,17
 286.5625 278.495117188 286.5625 278.495117188 286.5625 499.9140625 c 4,18,19
 286.5625 719.37109375 286.5625 719.37109375 160.508789062 941.052734375 c 2,20,-1
 130.782226562 993.323242188 l 1,21,-1
 280.009765625 993.323242188 l 1,11,12
EndSplineSet
EndChar

StartChar: NameMe.337
Encoding: 65562 -1 291
Width: 658
VWidth: 2311
Flags: W
LayerCount: 2
Fore
SplineSet
-3.6240234375 185.479492188 m 2,0,-1
 69.310546875 185.479492188 l 2,1,2
 261.806238117 185.000482161 261.806238117 185.000482161 251.529296875 427.384765625 c 2,3,-1
 220.705078125 1154.38183594 l 5,4,-1
 393.440429688 1228.15332031 l 5,5,-1
 393.440429688 427.50390625 l 2,6,7
 393.000870842 185.479492188 393.000870842 185.479492188 594.247070312 185.479492188 c 2,8,-1
 665.375976562 185.479492188 l 2,9,10
 713.375976562 184.996214561 713.375976562 184.996214561 713.375976562 108 c 2,11,-1
 713.375976562 74 l 2,12,13
 713 0 713 0 664.620117188 0 c 2,14,-1
 584.865234375 0 l 2,15,16
 436 0 436 0 328.165039062 114.334960938 c 1,17,18
 225 0 225 0 67.5224609375 0 c 2,19,-1
 -4 0 l 2,20,21
 -51.6240234375 0 -51.6240234375 0 -51.6240234375 74 c 2,22,-1
 -51.6240234375 108 l 2,23,24
 -52 185 -52 185 -3.6240234375 185.479492188 c 2,0,-1
EndSplineSet
EndChar

StartChar: NameMe.338
Encoding: 65563 -1 292
Width: 561
VWidth: 2311
Flags: W
LayerCount: 2
Fore
SplineSet
-3.6240234375 185.479492188 m 2,0,-1
 59.2001953125 185.479492188 l 2,1,2
 289.797261037 185.000421195 289.797261037 185.000421195 279.08984375 479.5546875 c 2,3,-1
 249.323242188 1298.41503906 l 5,4,-1
 423.120117188 1374.37207031 l 5,5,-1
 423.120117188 466.072265625 l 2,6,7
 423 220 423 220 323.564453125 109.725585938 c 0,8,9
 224 0 224 0 68.58203125 0 c 2,10,-1
 -4 0 l 2,11,12
 -51.6240234375 0 -51.6240234375 0 -51.6240234375 74 c 2,13,-1
 -51.6240234375 108 l 2,14,15
 -52 185 -52 185 -3.6240234375 185.479492188 c 2,0,-1
EndSplineSet
EndChar

